#N canvas 495 29 519 598 10;
#X obj 90 411 *~;
#X obj 213 348 line~;
#X text 76 62 PITCH SHIFTER;
#X obj 213 322 pack 0 200;
#X obj 27 205 exp;
#X obj 27 289 /;
#X obj 154 219 * 0.001;
#X obj 27 463 cos~;
#X obj 27 490 *~;
#X obj 27 519 +~;
#X obj 114 370 wrap~;
#X obj 259 413 *~;
#X obj 196 473 cos~;
#X obj 196 500 *~;
#X obj 154 246 t b f;
#X obj 114 343 +~ 0.5;
#X obj 27 411 -~ 0.5;
#X obj 27 437 *~ 0.5;
#X obj 196 412 -~ 0.5;
#X obj 196 445 *~ 0.5;
#X obj 27 235 - 1;
#X obj 27 179 * 0.05776;
#X obj 27 261 * -1;
#X text 61 139 <-- transposition;
#X text 104 152 (halftones);
#X text 90 216 speed;
#X text 89 207 change;
#X text 267 190 <--window (msec);
#X text 62 282 tape head;
#X obj 27 369 phasor~;
#X text 63 295 rotation freq;
#X obj 17 60 inlet~;
#X obj 17 91 delwrite~ \$0-del 5000;
#X obj 90 463 vd~ \$0-del;
#X obj 259 475 vd~ \$0-del;
#X obj 27 546 outlet~;
#X obj 27 146 \$1;
#X obj 28 114 inlet;
#X obj 76 116 loadbang;
#X obj 232 169 loadbang;
#X msg 232 192 100;
#X obj 25 343 line~;
#X obj 24 317 pack f 10;
#X obj 332 107 inlet;
#X obj 418 106 inlet;
#X obj 262 542 hipp~ 20;
#X obj 346 342 line~;
#X obj 262 520 *~;
#X obj 346 308 pack f 20;
#X obj 127 487 *~ -1;
#X connect 0 0 33 0;
#X connect 1 0 0 1;
#X connect 1 0 11 1;
#X connect 3 0 1 0;
#X connect 4 0 20 0;
#X connect 5 0 42 0;
#X connect 6 0 14 0;
#X connect 7 0 8 0;
#X connect 8 0 9 0;
#X connect 9 0 35 0;
#X connect 10 0 11 0;
#X connect 10 0 18 0;
#X connect 11 0 34 0;
#X connect 12 0 13 0;
#X connect 13 0 9 1;
#X connect 14 0 5 0;
#X connect 14 1 5 1;
#X connect 15 0 10 0;
#X connect 16 0 17 0;
#X connect 17 0 7 0;
#X connect 18 0 19 0;
#X connect 19 0 12 0;
#X connect 20 0 22 0;
#X connect 21 0 4 0;
#X connect 22 0 5 0;
#X connect 29 0 0 0;
#X connect 29 0 16 0;
#X connect 29 0 15 0;
#X connect 31 0 32 0;
#X connect 33 0 8 1;
#X connect 33 0 49 0;
#X connect 34 0 13 1;
#X connect 36 0 21 0;
#X connect 37 0 36 0;
#X connect 38 0 36 0;
#X connect 39 0 40 0;
#X connect 40 0 6 0;
#X connect 40 0 3 0;
#X connect 41 0 29 0;
#X connect 42 0 41 0;
#X connect 43 0 3 0;
#X connect 43 0 6 0;
#X connect 44 0 48 0;
#X connect 45 0 32 0;
#X connect 46 0 47 1;
#X connect 47 0 45 0;
#X connect 48 0 46 0;
#X connect 49 0 47 0;
