#N canvas 540 29 554 631 10;
#X obj 38 439 line~;
#X obj 61 414 pack 1 f;
#X obj 35 327 random;
#X obj 77 273 f;
#X obj 77 298 -, f 5;
#X obj 77 228 t b f;
#X obj 77 207 * 44.1;
#X floatatom 67 96 5 0 0 0 - - -, f 5;
#X obj 35 351 t f f b f;
#X obj 61 390 +;
#X obj 133 355 * 44.1;
#X obj 155 576 *~;
#X obj 174 533 line~;
#X obj 35 145 t b b, f 23;
#X msg 180 471 0;
#X obj 45 166 s \$0-start;
#X obj 223 451 r \$0-start;
#X obj 213 471 pack 512 f;
#X obj 35 123 metro;
#X obj 40 462 tabread4~ \$1-sample;
#X obj 174 552 tabread4~ \$1-hann;
#X obj 35 30 loadbang;
#X obj 35 52 t b b;
#X msg 67 72 100;
#X obj 95 252 r \$1-nb_samples;
#X obj 155 601 throw~ \$1-bus1;
#X obj 278 430 r \$0-duration;
#X obj 114 389 r \$0-duration;
#X obj 133 334 r \$0-duration;
#X obj 77 185 r \$0-duration;
#X obj 118 63 r \$0-duration;
#X obj 394 104 r \$1-duration;
#X obj 323 41 r \$1-duration-rand;
#X obj 355 151 random;
#X obj 323 272 s \$0-duration;
#X obj 319 192 *;
#X obj 323 246 +;
#X obj 323 97 t f b;
#X obj 394 129 t b f f;
#X obj 355 173 -;
#X obj 430 161 * 0.5;
#X obj 388 492 pack \$1 s;
#X msg 387 514 set \$1-\$2;
#X obj 397 459 t b l;
#X obj 402 407 r \$1-window;
#X obj 402 428 symbol;
#X connect 0 0 19 0;
#X connect 1 0 0 0;
#X connect 2 0 8 0;
#X connect 3 0 4 0;
#X connect 4 0 2 1;
#X connect 5 0 3 0;
#X connect 5 1 4 1;
#X connect 6 0 5 0;
#X connect 7 0 18 1;
#X connect 8 0 9 0;
#X connect 8 1 0 0;
#X connect 9 0 1 0;
#X connect 10 0 9 1;
#X connect 11 0 25 0;
#X connect 12 0 20 0;
#X connect 13 0 2 0;
#X connect 13 0 15 0;
#X connect 13 1 14 0;
#X connect 14 0 12 0;
#X connect 16 0 17 0;
#X connect 17 0 12 0;
#X connect 18 0 13 0;
#X connect 19 0 11 0;
#X connect 20 0 11 1;
#X connect 21 0 22 0;
#X connect 22 0 18 0;
#X connect 22 1 23 0;
#X connect 23 0 7 0;
#X connect 24 0 3 1;
#X connect 26 0 17 1;
#X connect 27 0 1 1;
#X connect 28 0 10 0;
#X connect 29 0 6 0;
#X connect 30 0 7 0;
#X connect 31 0 38 0;
#X connect 32 0 37 0;
#X connect 33 0 39 0;
#X connect 35 0 36 0;
#X connect 36 0 34 0;
#X connect 37 0 35 0;
#X connect 37 1 33 0;
#X connect 38 0 36 0;
#X connect 38 1 33 1;
#X connect 38 1 36 1;
#X connect 38 2 40 0;
#X connect 39 0 35 1;
#X connect 40 0 39 1;
#X connect 41 0 42 0;
#X connect 42 0 20 0;
#X connect 43 0 41 0;
#X connect 43 1 41 1;
#X connect 44 0 45 0;
#X connect 45 0 43 0;
