#N canvas 526 29 553 626 10;
#X obj 322 185 bng 15 250 50 0 empty empty empty 17 7 0 10 -262144
-1 -1;
#X obj 43 338 r \$1-seq;
#X obj 45 600 throw~ \$1-\$2;
#X obj 399 435 table \$0-sample;
#X obj 322 371 openpanel;
#X obj 322 435 soundfiler;
#X obj 342 346 \$0;
#X obj 342 324 loadbang;
#X obj 322 392 pack s f;
#X msg 322 414 read -resize \$1 \$2-sample;
#X obj 322 457 / 44.1;
#X obj 186 542 line~;
#X obj 223 511 pack 0 f;
#X obj 223 489 del;
#N canvas 0 50 450 250 (subpatch) 0;
#X array \$0-step1 16 float 3;
#A 0 0 0 0 0 0 0 0 0 0 0 0 0 0 0 0 0;
#X coords 0 1 16 0 100 30 1 0 0;
#X restore 420 157 graph;
#X obj 364 73 swap;
#X obj 364 49 unpack f f;
#X obj 364 7 r \$0-toggle;
#X obj 196 321 s \$0-toggle;
#X msg 82 206 1 \$1;
#X msg 99 229 2 \$1;
#X msg 123 246 3 \$1;
#X msg 128 260 4 \$1;
#X obj 436 95 - 1;
#X msg 141 205 5 \$1;
#X msg 155 223 6 \$1;
#X msg 171 241 7 \$1;
#X msg 187 259 8 \$1;
#X msg 202 205 9 \$1;
#X msg 216 223 10 \$1;
#X msg 232 241 11 \$1;
#X msg 248 259 12 \$1;
#X msg 261 205 13 \$1;
#X msg 275 223 14 \$1;
#X msg 291 241 15 \$1;
#X msg 307 259 16 \$1;
#X obj 43 360 - 1;
#X obj 364 116 tabwrite \$0-step1;
#X obj 43 382 tabread \$0-step1;
#X obj 230 7 r \$1-change-step;
#X obj 230 29 pack f \$0;
#X msg 230 49 set \$2-step\$1;
#N canvas 0 50 450 250 (subpatch) 0;
#X array \$0-step2 16 float 3;
#A 0 0 0 0 0 0 0 0 0 0 0 0 0 0 0 0 0;
#X coords 0 1 16 0 100 30 1 0 0;
#X restore 419 204 graph;
#N canvas 275 224 426 376 retrieve-values 0;
#X obj 51 194 tabread \$0-step1;
#X obj 44 146 f;
#X obj 81 146 + 1;
#X msg 76 122 0;
#X obj 44 99 until;
#X msg 44 78 16;
#X obj 44 57 t b b;
#X obj 44 168 t f f;
#X obj 51 239 swap;
#X obj 51 261 pack f f;
#X obj 51 283 outlet;
#X obj 44 13 inlet;
#X obj 44 35 t b a;
#X obj 51 216 * 2;
#X connect 0 0 13 0;
#X connect 1 0 2 0;
#X connect 1 0 7 0;
#X connect 2 0 1 1;
#X connect 3 0 1 1;
#X connect 4 0 1 0;
#X connect 5 0 4 0;
#X connect 6 0 5 0;
#X connect 6 1 3 0;
#X connect 7 0 0 0;
#X connect 7 1 8 1;
#X connect 8 0 9 0;
#X connect 8 1 9 1;
#X connect 9 0 10 0;
#X connect 11 0 12 0;
#X connect 12 0 6 0;
#X connect 12 1 0 0;
#X connect 13 0 8 0;
#X restore 55 129 pd retrieve-values;
#X obj 226 116 print changestep;
#X obj 55 151 route 0 1 2 3 4 5 6 7 8 9 10 11 12 13 14 15;
#X obj 44 459 tabplay~ \$0-sample;
#X obj 46 570 *~;
#N canvas 0 50 450 250 (subpatch) 0;
#X array \$0-step3 16 float 3;
#A 0 0 0 0 0 0 0 0 0 0 0 0 0 0 0 0 0;
#X coords 0 1 16 0 100 30 1 0 0;
#X restore 419 253 graph;
#N canvas 0 50 450 250 (subpatch) 0;
#X array \$0-step4 16 float 3;
#A 0 0 0 0 0 0 0 0 0 0 0 0 0 0 0 0 0;
#X coords 0 1 16 0 100 30 1 0 0;
#X restore 418 300 graph;
#X obj 322 479 - 50;
#X obj 276 475 - 60;
#N canvas 0 50 450 300 copy2nextArray 0;
#X obj 23 140 array get;
#X obj 83 97 pack f symbol \$0;
#X msg 83 119 \$2 \$3-step\$1;
#X obj 23 210 array set;
#X obj 100 145 + 1;
#X obj 99 165 pack f symbol \$0;
#X msg 99 187 \$2 \$3-step\$1;
#X obj 100 60 r \$1-change-step;
#X obj 23 33 r \$1-copy2next;
#X connect 0 0 3 0;
#X connect 1 0 2 0;
#X connect 2 0 0 2;
#X connect 4 0 5 0;
#X connect 5 0 6 0;
#X connect 6 0 3 2;
#X connect 7 0 1 0;
#X connect 7 0 4 0;
#X connect 8 0 0 0;
#X restore 415 518 pd copy2nextArray;
#X obj 364 95 * 0.5;
#X obj 43 404 route 0;
#X obj 89 430 t b f;
#X msg 183 512 \$1 0;
#X obj 215 457 t b;
#X obj 364 29 spigot;
#X obj 230 71 t b a a a b;
#X msg 312 90 0;
#X msg 230 93 1;
#X obj 82 185 hoc.gui.bnt_3s;
#X obj 97 185 hoc.gui.bnt_3s;
#X obj 112 185 hoc.gui.bnt_3s;
#X obj 127 185 hoc.gui.bnt_3s;
#X obj 142 185 hoc.gui.bnt_3s;
#X obj 157 185 hoc.gui.bnt_3s;
#X obj 172 185 hoc.gui.bnt_3s;
#X obj 187 185 hoc.gui.bnt_3s;
#X obj 202 185 hoc.gui.bnt_3s;
#X obj 217 185 hoc.gui.bnt_3s;
#X obj 232 185 hoc.gui.bnt_3s;
#X obj 247 185 hoc.gui.bnt_3s;
#X obj 262 185 hoc.gui.bnt_3s;
#X obj 277 185 hoc.gui.bnt_3s;
#X obj 292 185 hoc.gui.bnt_3s;
#X obj 307 185 hoc.gui.bnt_3s;
#X obj 88 191 cnv 3 3 3 empty empty empty 20 12 0 14 -1 -66577 0;
#X obj 148 191 cnv 3 3 3 empty empty empty 20 12 0 14 -1 -66577 0;
#X obj 268 191 cnv 3 3 3 empty empty empty 20 12 0 14 -1 -66577 0;
#X obj 208 191 cnv 3 3 3 empty empty empty 20 12 0 14 -1 -66577 0;
#X connect 0 0 4 0;
#X connect 1 0 36 0;
#X connect 4 0 8 0;
#X connect 5 0 10 0;
#X connect 6 0 8 1;
#X connect 7 0 6 0;
#X connect 8 0 9 0;
#X connect 9 0 5 0;
#X connect 10 0 50 0;
#X connect 10 0 51 1;
#X connect 11 0 47 1;
#X connect 12 0 11 0;
#X connect 13 0 12 0;
#X connect 15 0 53 0;
#X connect 15 1 23 0;
#X connect 16 0 15 0;
#X connect 16 1 15 1;
#X connect 17 0 58 0;
#X connect 19 0 18 0;
#X connect 20 0 18 0;
#X connect 21 0 18 0;
#X connect 22 0 18 0;
#X connect 23 0 37 1;
#X connect 24 0 18 0;
#X connect 25 0 18 0;
#X connect 26 0 18 0;
#X connect 27 0 18 0;
#X connect 28 0 18 0;
#X connect 29 0 18 0;
#X connect 30 0 18 0;
#X connect 31 0 18 0;
#X connect 32 0 18 0;
#X connect 33 0 18 0;
#X connect 34 0 18 0;
#X connect 35 0 18 0;
#X connect 36 0 38 0;
#X connect 38 0 54 0;
#X connect 39 0 40 0;
#X connect 40 0 41 0;
#X connect 41 0 59 0;
#X connect 43 0 45 0;
#X connect 45 0 62 0;
#X connect 45 1 63 0;
#X connect 45 2 64 0;
#X connect 45 3 65 0;
#X connect 45 4 66 0;
#X connect 45 5 67 0;
#X connect 45 6 68 0;
#X connect 45 7 69 0;
#X connect 45 8 70 0;
#X connect 45 9 71 0;
#X connect 45 10 72 0;
#X connect 45 11 73 0;
#X connect 45 12 74 0;
#X connect 45 13 75 0;
#X connect 45 14 76 0;
#X connect 45 15 77 0;
#X connect 46 0 47 0;
#X connect 47 0 2 0;
#X connect 50 0 12 1;
#X connect 51 0 13 1;
#X connect 53 0 37 0;
#X connect 54 1 55 0;
#X connect 55 0 46 0;
#X connect 55 1 56 0;
#X connect 55 1 57 0;
#X connect 56 0 11 0;
#X connect 57 0 13 0;
#X connect 58 0 16 0;
#X connect 59 0 61 0;
#X connect 59 1 43 0;
#X connect 59 2 38 0;
#X connect 59 3 37 0;
#X connect 59 4 60 0;
#X connect 60 0 58 1;
#X connect 61 0 58 1;
#X connect 62 0 19 0;
#X connect 63 0 20 0;
#X connect 64 0 21 0;
#X connect 65 0 22 0;
#X connect 66 0 24 0;
#X connect 67 0 25 0;
#X connect 68 0 26 0;
#X connect 69 0 27 0;
#X connect 70 0 28 0;
#X connect 71 0 29 0;
#X connect 72 0 30 0;
#X connect 73 0 31 0;
#X connect 74 0 32 0;
#X connect 75 0 33 0;
#X connect 76 0 34 0;
#X connect 77 0 35 0;
#X coords 0 -1 1 1 257 15 1 81 184;
