#N canvas 304 64 615 488 10;
#X obj 43 338 r \$1-seq;
#N canvas 0 50 450 250 (subpatch) 0;
#X array \$0-step1 16 float 3;
#A 0 1 0.5 0 0 0 0.5 0 0 0 0.5 0 0 1 0 0 0.5;
#X coords 0 1 16 0 100 30 1 0 0;
#X restore 374 186 graph;
#X obj 32 89 swap;
#X obj 32 66 unpack f f;
#X obj 32 23 r \$0-toggle;
#X obj 196 321 s \$0-toggle;
#X msg 82 206 1 \$1;
#X msg 99 229 2 \$1;
#X msg 123 246 3 \$1;
#X msg 128 260 4 \$1;
#X obj 104 112 - 1;
#X msg 141 205 5 \$1;
#X msg 155 223 6 \$1;
#X msg 171 241 7 \$1;
#X msg 187 259 8 \$1;
#X msg 202 205 9 \$1;
#X msg 216 223 10 \$1;
#X msg 232 241 11 \$1;
#X msg 248 259 12 \$1;
#X msg 261 205 13 \$1;
#X msg 275 223 14 \$1;
#X msg 291 241 15 \$1;
#X msg 307 259 16 \$1;
#X obj 43 360 - 1;
#X obj 32 133 tabwrite \$0-step1;
#X obj 43 382 tabread \$0-step1;
#X obj 32 112 * 0.5;
#X obj 82 185 hoc.gui.bnt_3s;
#X obj 97 185 hoc.gui.bnt_3s;
#X obj 112 185 hoc.gui.bnt_3s;
#X obj 127 185 hoc.gui.bnt_3s;
#X obj 142 185 hoc.gui.bnt_3s;
#X obj 157 185 hoc.gui.bnt_3s;
#X obj 172 185 hoc.gui.bnt_3s;
#X obj 187 185 hoc.gui.bnt_3s;
#X obj 202 185 hoc.gui.bnt_3s;
#X obj 217 185 hoc.gui.bnt_3s;
#X obj 232 185 hoc.gui.bnt_3s;
#X obj 247 185 hoc.gui.bnt_3s;
#X obj 262 185 hoc.gui.bnt_3s;
#X obj 277 185 hoc.gui.bnt_3s;
#X obj 292 185 hoc.gui.bnt_3s;
#X obj 307 185 hoc.gui.bnt_3s;
#X obj 88 191 cnv 3 3 3 empty empty empty 20 12 0 14 -1 -66577 0;
#X obj 148 191 cnv 3 3 3 empty empty empty 20 12 0 14 -1 -66577 0;
#X obj 268 191 cnv 3 3 3 empty empty empty 20 12 0 14 -1 -66577 0;
#X obj 208 191 cnv 3 3 3 empty empty empty 20 12 0 14 -1 -66577 0;
#X obj 43 405 outlet;
#X connect 0 0 23 0;
#X connect 2 0 26 0;
#X connect 2 1 10 0;
#X connect 3 0 2 0;
#X connect 3 1 2 1;
#X connect 4 0 3 0;
#X connect 6 0 5 0;
#X connect 7 0 5 0;
#X connect 8 0 5 0;
#X connect 9 0 5 0;
#X connect 10 0 24 1;
#X connect 11 0 5 0;
#X connect 12 0 5 0;
#X connect 13 0 5 0;
#X connect 14 0 5 0;
#X connect 15 0 5 0;
#X connect 16 0 5 0;
#X connect 17 0 5 0;
#X connect 18 0 5 0;
#X connect 19 0 5 0;
#X connect 20 0 5 0;
#X connect 21 0 5 0;
#X connect 22 0 5 0;
#X connect 23 0 25 0;
#X connect 25 0 47 0;
#X connect 26 0 24 0;
#X connect 27 0 6 0;
#X connect 28 0 7 0;
#X connect 29 0 8 0;
#X connect 30 0 9 0;
#X connect 31 0 11 0;
#X connect 32 0 12 0;
#X connect 33 0 13 0;
#X connect 34 0 14 0;
#X connect 35 0 15 0;
#X connect 36 0 16 0;
#X connect 37 0 17 0;
#X connect 38 0 18 0;
#X connect 39 0 19 0;
#X connect 40 0 20 0;
#X connect 41 0 21 0;
#X connect 42 0 22 0;
#X coords 0 -1 1 1 242 15 1 81 184;
