#N canvas 528 44 450 300 10;
#X obj 32 234 *~;
#X obj 31 195 line~;
#X obj 32 31 inlet~ mod;
#X obj 91 174 inlet~ carrier;
#X obj 32 280 outlet~;
#X obj 31 111 env~ 1024;
#X obj 32 139 dbtorms;
#X obj 32 54 bp~ \$1 80;
#X obj 33 79 bp~ \$1 80;
#X msg 31 174 \$1 23;
#X obj 91 195 bp~ \$1 80;
#X obj 92 216 bp~ \$1 80;
#X connect 0 0 4 0;
#X connect 1 0 0 0;
#X connect 2 0 7 0;
#X connect 3 0 10 0;
#X connect 5 0 6 0;
#X connect 6 0 9 0;
#X connect 7 0 8 0;
#X connect 8 0 5 0;
#X connect 9 0 1 0;
#X connect 10 0 11 0;
#X connect 11 0 0 1;
