#N canvas 469 321 450 300 10;
#X obj 118 216 osc~;
#X obj 136 106 mtof;
#X obj 136 151 line~;
#X obj 136 127 pack f 3;
#X obj 117 186 +~;
#X obj 227 158 osc~;
#X obj 227 134 line~;
#X obj 227 110 pack f 3;
#X obj 226 183 *~;
#X obj 315 182 line~;
#X obj 315 161 pack f 5;
#X obj 136 43 inlet;
#X obj 118 238 outlet~;
#X obj 317 139 inlet;
#X obj 261 45 inlet;
#X obj 227 83 * 2;
#X connect 0 0 12 0;
#X connect 1 0 3 0;
#X connect 1 0 15 0;
#X connect 2 0 4 1;
#X connect 3 0 2 0;
#X connect 4 0 0 0;
#X connect 5 0 8 0;
#X connect 6 0 5 0;
#X connect 7 0 6 0;
#X connect 8 0 4 0;
#X connect 9 0 8 1;
#X connect 10 0 9 0;
#X connect 11 0 1 0;
#X connect 13 0 10 0;
#X connect 14 0 15 1;
#X connect 15 0 7 0;
