#N canvas 547 184 776 472 10;
#X obj 59 285 outlet;
#X text 25 14 Utilisé pour le shuffling;
#X obj 59 246 del 1000;
#X msg 60 215 stop;
#X obj 112 202 random;
#X obj 112 225 +;
#X obj 111 124 t b b f f b;
#X obj 22 247 t b;
#X obj 111 93 inlet;
#X connect 2 0 7 0;
#X connect 2 0 0 0;
#X connect 3 0 2 0;
#X connect 4 0 5 0;
#X connect 5 0 2 1;
#X connect 6 0 2 0;
#X connect 6 1 4 0;
#X connect 6 2 4 1;
#X connect 6 3 5 1;
#X connect 6 4 3 0;
#X connect 7 0 2 0;
#X connect 8 0 6 0;
