#N canvas 276 29 911 705 10;
#X msg 111 131 stop;
#X obj 111 109 del 500;
#N canvas 0 50 450 250 (subpatch) 0;
#X array \$0-array1 44100 float 2;
#X coords 0 1 44100 -1 200 140 1 0 0;
#X restore 291 108 graph;
#X floatatom 188 91 5 0 0 0 - - -, f 5;
#X obj 189 155 /;
#X msg 187 131 1;
#X obj 188 110 t b f;
#X obj 189 174 * 1000;
#X obj 156 201 * 44.1;
#X obj 138 225 f;
#X obj 36 116 inlet~;
#X obj 37 158 tabwrite~ \$0-array1;
#X obj 269 427 tabread4~ \$0-array1;
#X obj 110 63 s \$0-trig;
#X obj 89 200 r \$0-trig;
#X obj 156 41 t b f;
#X obj 333 539 outlet~;
#X obj 230 -1 \$1;
#X obj 188 69 clip 1 1000;
#X obj 230 -22 loadbang;
#X obj 229 23 sel 0;
#X msg 229 45 100;
#X obj 111 84 r \$0-trig;
#X obj 270 399 line~;
#X obj 270 377 pack f f;
#X obj 229 295 t f b;
#X obj 545 483 line~;
#X msg 613 455 0;
#X obj 333 500 *~;
#X floatatom 703 297 5 0 0 0 env - -, f 5;
#X obj 618 354 clip 1;
#X obj 657 330 / 2;
#X obj 618 330 f;
#X obj 544 426 pack f f, f 13;
#X obj 562 336 -;
#X obj 595 303 t f b f;
#X obj 551 254 t b f b;
#X obj 544 361 del;
#X msg 544 390 0;
#X obj 551 221 inlet;
#X obj 703 274 inlet;
#X obj 721 125 inlet;
#X obj 783 133 inlet;
#X obj 312 288 +;
#X obj 376 267 loadbang;
#X msg 376 289 0;
#X obj 567 283 f;
#X msg 575 389 1;
#X obj 687 224 t b b b b;
#X obj 271 347 f;
#X msg 227 356 0;
#X obj 622 383 + 1;
#X connect 0 0 11 0;
#X connect 1 0 0 0;
#X connect 3 0 6 0;
#X connect 3 0 1 1;
#X connect 3 0 8 0;
#X connect 3 0 43 0;
#X connect 4 0 7 0;
#X connect 5 0 4 0;
#X connect 6 0 5 0;
#X connect 6 1 4 1;
#X connect 8 0 9 1;
#X connect 9 0 25 0;
#X connect 10 0 11 0;
#X connect 12 0 28 0;
#X connect 14 0 9 0;
#X connect 15 0 13 0;
#X connect 15 0 1 0;
#X connect 15 1 18 0;
#X connect 17 0 20 0;
#X connect 18 0 3 0;
#X connect 19 0 17 0;
#X connect 20 0 21 0;
#X connect 20 1 18 0;
#X connect 21 0 18 0;
#X connect 22 0 1 0;
#X connect 22 0 11 0;
#X connect 23 0 12 0;
#X connect 24 0 23 0;
#X connect 25 0 49 0;
#X connect 25 1 50 0;
#X connect 26 0 28 1;
#X connect 27 0 26 0;
#X connect 28 0 16 0;
#X connect 29 0 32 1;
#X connect 30 0 51 0;
#X connect 31 0 30 2;
#X connect 32 0 30 0;
#X connect 33 0 26 0;
#X connect 34 0 37 1;
#X connect 35 0 34 0;
#X connect 35 0 47 0;
#X connect 35 1 32 0;
#X connect 35 2 31 0;
#X connect 36 0 37 0;
#X connect 36 1 15 0;
#X connect 36 1 46 0;
#X connect 36 2 27 0;
#X connect 37 0 38 0;
#X connect 38 0 33 0;
#X connect 39 0 36 0;
#X connect 40 0 29 0;
#X connect 41 0 48 0;
#X connect 42 0 43 1;
#X connect 43 0 24 1;
#X connect 44 0 45 0;
#X connect 45 0 43 1;
#X connect 46 0 35 0;
#X connect 47 0 33 0;
#X connect 48 0 49 0;
#X connect 48 1 37 0;
#X connect 48 2 46 0;
#X connect 48 3 50 0;
#X connect 49 0 24 0;
#X connect 50 0 23 0;
#X connect 51 0 33 1;
#X connect 51 0 34 1;
