#N canvas 274 156 499 557 10;
#N canvas 0 50 450 250 (subpatch) 0;
#X array \$0-sample 110250 float 2;
#X coords 0 1 110250 -1 200 140 1;
#X restore 228 88 graph;
#X obj 226 349 soundfiler;
#X obj 226 288 symbol \$1;
#X msg 226 327 read -resize \$1 \$2-sample;
#X obj 297 288 \$0;
#X obj 226 247 loadbang;
#X obj 226 307 pack s f;
#X obj 226 268 t b b;
#X obj 38 318 tabread4~ \$0-sample;
#X obj 226 401 s \$0-size;
#X obj 37 294 line~;
#X obj 38 390 outlet~;
#X msg 69 149 0;
#X obj 37 270 pack f f;
#X obj 55 183 r \$0-size;
#X obj 37 205 f;
#X obj 90 208 / 44.1;
#X obj 37 129 t b b f;
#X obj 72 239 *;
#X obj 34 -80 inlet;
#X obj 34 31 mtof;
#X obj 34 -16 * -1;
#X obj 43 359 *~;
#X obj 151 -10 / 127;
#X obj 96 -57 unpack f f;
#X obj 5 -47 stripnote;
#X obj 367 282 symbol;
#X obj 372 259 t a b;
#X obj 373 239 inlet soundfile;
#X obj 32 54 / 261.625;
#X obj 34 8 + 120;
#X obj 157 96 vline~;
#X obj 157 72 pack f 2;
#X obj 227 374 sel 0;
#X connect 1 0 33 0;
#X connect 2 0 6 0;
#X connect 3 0 1 0;
#X connect 4 0 6 1;
#X connect 5 0 7 0;
#X connect 6 0 3 0;
#X connect 7 0 2 0;
#X connect 7 1 4 0;
#X connect 8 0 22 0;
#X connect 10 0 8 0;
#X connect 12 0 10 0;
#X connect 13 0 10 0;
#X connect 14 0 15 1;
#X connect 14 0 16 0;
#X connect 15 0 13 0;
#X connect 16 0 18 1;
#X connect 17 0 15 0;
#X connect 17 1 12 0;
#X connect 17 2 18 0;
#X connect 18 0 13 1;
#X connect 19 0 25 0;
#X connect 19 0 24 0;
#X connect 20 0 29 0;
#X connect 21 0 30 0;
#X connect 22 0 11 0;
#X connect 23 0 32 0;
#X connect 24 1 23 0;
#X connect 25 0 21 0;
#X connect 26 0 6 0;
#X connect 27 0 26 0;
#X connect 27 1 4 0;
#X connect 28 0 27 0;
#X connect 29 0 17 0;
#X connect 30 0 20 0;
#X connect 31 0 22 1;
#X connect 32 0 31 0;
#X connect 33 1 9 0;
