#N canvas 0 0 450 300 10;
#X obj 148 77 hip~ \$1;
#X obj 148 99 hip~ \$1;
#X obj 197 45 inlet;
#X obj 147 47 inlet~;
#X obj 148 132 outlet~;
#X connect 0 0 1 0;
#X connect 1 0 4 0;
#X connect 2 0 0 1;
#X connect 2 0 1 1;
#X connect 3 0 0 0;
