#N canvas 551 357 450 300 10;
#X obj 64 100 vcf~ 1;
#X obj 99 159 lopp~;
#X obj 64 214 +~;
#X obj 28 17 inlet~ audioin;
#X obj 149 17 inlet freq;
#X obj 220 17 inlet res;
#X obj 136 60 \$1;
#X obj 150 36 loadbang;
#X obj 219 43 loadbang;
#X obj 136 82 sel 0;
#X msg 136 103 300;
#X obj 128 124 clip 20 20000;
#X obj 62 155 *~;
#X obj 205 67 \$2;
#X obj 228 93 sel 0;
#X msg 226 114 1;
#X obj 218 136 clip 0 10;
#X obj 65 238 outlet~;
#X obj 63 123 vcf~ 1;
#X obj 63 184 hoc.limiter~;
#X connect 0 0 18 0;
#X connect 1 0 2 1;
#X connect 2 0 17 0;
#X connect 3 0 0 0;
#X connect 3 0 1 0;
#X connect 4 0 11 0;
#X connect 5 0 16 0;
#X connect 6 0 9 0;
#X connect 7 0 6 0;
#X connect 8 0 13 0;
#X connect 9 0 10 0;
#X connect 9 1 11 0;
#X connect 10 0 11 0;
#X connect 11 0 0 1;
#X connect 11 0 1 1;
#X connect 11 0 18 1;
#X connect 12 0 19 0;
#X connect 13 0 14 0;
#X connect 14 0 15 0;
#X connect 14 1 16 0;
#X connect 15 0 16 0;
#X connect 16 0 12 1;
#X connect 16 0 0 2;
#X connect 16 0 18 2;
#X connect 18 0 12 0;
#X connect 19 0 2 0;
