#N canvas 40 229 556 352 10;
#X obj 216 238 vd~ \$0-d;
#X obj 62 102 delwrite~ \$0-d 50;
#X obj 108 237 hipp~ 10;
#X obj 327 218 line~;
#X obj 327 197 pack f 20;
#X obj 109 215 *~;
#X obj 327 175 clip 0 0.99;
#X obj 328 148 sqrt;
#X obj 328 127 sqrt;
#X obj 216 202 line~;
#X obj 215 181 pack f 5;
#X obj 216 137 /;
#X obj 215 92 t b f;
#X msg 216 113 1;
#X obj 215 160 * 1000;
#X obj 61 73 inlet~;
#X obj 201 282 outlet~;
#X obj 215 47 \$1;
#X obj 215 21 inlet freq;
#X obj 328 40 inlet depth;
#X obj 328 62 \$2;
#X obj 215 69 clip 20 1000;
#X floatatom 280 153 5 0 0 0 - - -, f 5;
#X floatatom 399 213 5 0 0 0 - - -, f 5;
#X obj 411 58 loadbang;
#X obj 125 31 loadbang;
#X connect 0 0 5 0;
#X connect 0 0 16 0;
#X connect 2 0 1 0;
#X connect 3 0 5 1;
#X connect 4 0 3 0;
#X connect 5 0 2 0;
#X connect 6 0 4 0;
#X connect 6 0 23 0;
#X connect 7 0 6 0;
#X connect 8 0 7 0;
#X connect 9 0 0 0;
#X connect 10 0 9 0;
#X connect 11 0 14 0;
#X connect 12 0 13 0;
#X connect 12 1 11 1;
#X connect 13 0 11 0;
#X connect 14 0 10 0;
#X connect 14 0 22 0;
#X connect 15 0 1 0;
#X connect 17 0 21 0;
#X connect 18 0 17 0;
#X connect 19 0 20 0;
#X connect 20 0 8 0;
#X connect 21 0 12 0;
#X connect 24 0 20 0;
#X connect 25 0 17 0;
