#N canvas 254 82 565 738 10;
#X obj 11 35 inlet~;
#X obj 122 25 inlet;
#X obj 230 93 table \$0-tab1 88200;
#X obj 230 114 table \$0-tab2 88200;
#X obj 96 269 tabwrite~ \$0-tab1;
#X obj 95 137 % 2;
#X obj 95 116 + 1;
#X obj 95 93 0;
#X obj 95 159 sel 0 1;
#X obj 163 -39 loadbang;
#X obj 163 -16 \$1;
#X obj 95 72 metro;
#X obj 163 5 sel 0;
#X msg 163 25 1000;
#X obj 314 4 \$2;
#X obj 95 5 loadbang;
#X obj 168 388 line~;
#X obj 167 410 tabread4~ \$0-tab2;
#X obj 298 190 *~;
#X obj 314 168 line~;
#X obj 314 147 pack f 10;
#X obj 314 26 clip 0 1;
#X obj 314 -19 loadbang;
#X obj 11 365 outlet~;
#X obj 375 -19 inlet;
#X obj 25 257 - 1;
#X obj 25 280 * -1;
#X obj 11 342 *~;
#X obj 27 320 line~;
#X obj 27 299 pack f 10;
#X obj 167 475 *~;
#X obj 181 454 line~;
#X msg 181 433 0 5;
#X msg 215 433 1 5;
#X obj 123 47 clip 20 2000;
#X obj 95 189 del 5;
#X obj 104 221 del;
#X msg 104 246 stop;
#X obj 279 388 line~;
#X obj 278 475 *~;
#X obj 292 454 line~;
#X msg 292 433 0 5;
#X msg 326 433 1 5;
#X obj 278 410 tabread4~ \$0-tab1;
#X obj 205 268 tabwrite~ \$0-tab1;
#X obj 204 188 del 5;
#X obj 213 220 del;
#X msg 213 245 stop;
#X msg 195 345 0;
#X obj 168 324 t b b;
#X obj 168 366 pack 0 f;
#X msg 306 344 0;
#X obj 279 323 t b b;
#X obj 279 365 pack 0 f;
#X connect 0 0 4 0;
#X connect 0 0 27 0;
#X connect 0 0 44 0;
#X connect 1 0 34 0;
#X connect 5 0 8 0;
#X connect 6 0 7 1;
#X connect 6 0 5 0;
#X connect 7 0 6 0;
#X connect 8 0 32 0;
#X connect 8 0 35 0;
#X connect 8 0 42 0;
#X connect 8 0 52 0;
#X connect 8 1 45 0;
#X connect 8 1 33 0;
#X connect 8 1 41 0;
#X connect 8 1 49 0;
#X connect 9 0 10 0;
#X connect 10 0 12 0;
#X connect 11 0 7 0;
#X connect 12 0 13 0;
#X connect 12 1 34 0;
#X connect 13 0 34 0;
#X connect 14 0 21 0;
#X connect 15 0 11 0;
#X connect 16 0 17 0;
#X connect 17 0 30 0;
#X connect 18 0 23 0;
#X connect 19 0 18 1;
#X connect 20 0 19 0;
#X connect 21 0 20 0;
#X connect 21 0 25 0;
#X connect 22 0 14 0;
#X connect 24 0 21 0;
#X connect 25 0 26 0;
#X connect 26 0 29 0;
#X connect 27 0 23 0;
#X connect 28 0 27 1;
#X connect 29 0 28 0;
#X connect 30 0 23 0;
#X connect 31 0 30 1;
#X connect 32 0 31 0;
#X connect 33 0 31 0;
#X connect 34 0 11 1;
#X connect 34 0 36 1;
#X connect 34 0 46 1;
#X connect 34 0 50 1;
#X connect 34 0 53 1;
#X connect 35 0 36 0;
#X connect 35 0 4 0;
#X connect 36 0 37 0;
#X connect 37 0 4 0;
#X connect 38 0 43 0;
#X connect 39 0 23 0;
#X connect 40 0 39 1;
#X connect 41 0 40 0;
#X connect 42 0 40 0;
#X connect 43 0 39 0;
#X connect 45 0 46 0;
#X connect 45 0 44 0;
#X connect 46 0 47 0;
#X connect 47 0 44 0;
#X connect 48 0 16 0;
#X connect 49 0 50 0;
#X connect 49 1 48 0;
#X connect 50 0 16 0;
#X connect 51 0 38 0;
#X connect 52 0 53 0;
#X connect 52 1 51 0;
#X connect 53 0 38 0;
