#N canvas 470 191 600 382 10;
#X obj -277 237 *~;
#X obj -278 213 vd~ \$0-delay;
#X obj -277 191 line~;
#X obj -67 209 line~;
#X obj -66 184 pack f 100;
#X obj -75 76 inlet fdbk;
#X obj -277 66 inlet time;
#X obj -277 87 \$1;
#X obj -75 96 \$2;
#X obj -330 262 outlet~;
#X msg -277 127 80;
#X obj -66 163 clip 0 1;
#X msg -75 136 0.5;
#X obj -302 34 delwrite~ \$0-delay 2000;
#X obj -302 9 inlet~ sig;
#X obj -277 147 clip 0.01 2000;
#X obj -277 107 moses 0.01;
#X obj -75 116 moses 0.01;
#X obj -151 61 loadbang;
#X obj -276 170 pack f 50;
#X obj 9 46 inlet mode;
#X obj 18 158 i;
#X obj 55 70 loadbang;
#X obj 21 77 \$3;
#X obj 18 185 sel 1 2 3 4 5;
#X msg 18 208 50;
#X msg 35 233 200;
#X msg 54 265 800;
#X msg 70 295 3200, f 5;
#X obj 18 136 clip 1 4;
#X obj 24 98 sel 0;
#X msg 30 117 2;
#X connect 0 0 13 0;
#X connect 1 0 0 0;
#X connect 1 0 9 0;
#X connect 2 0 1 0;
#X connect 3 0 0 1;
#X connect 4 0 3 0;
#X connect 5 0 8 0;
#X connect 6 0 7 0;
#X connect 7 0 16 0;
#X connect 8 0 17 0;
#X connect 10 0 15 0;
#X connect 11 0 4 0;
#X connect 12 0 11 0;
#X connect 14 0 13 0;
#X connect 15 0 19 0;
#X connect 16 0 10 0;
#X connect 16 1 15 0;
#X connect 17 0 12 0;
#X connect 17 1 11 0;
#X connect 18 0 8 0;
#X connect 18 0 7 0;
#X connect 19 0 2 0;
#X connect 20 0 29 0;
#X connect 21 0 24 0;
#X connect 22 0 23 0;
#X connect 23 0 30 0;
#X connect 24 0 25 0;
#X connect 24 1 26 0;
#X connect 24 2 27 0;
#X connect 24 3 28 0;
#X connect 25 0 19 1;
#X connect 26 0 19 1;
#X connect 27 0 19 1;
#X connect 28 0 19 1;
#X connect 29 0 21 0;
#X connect 30 0 31 0;
#X connect 31 0 29 0;
