#N canvas 337 34 622 358 10;
#X obj 40 287 outlet~;
#X obj 37 103 pack f f f;
#X obj 37 128 route 1 2 3 4;
#X obj 39 182 abstractions/samplevoice~ ./samples/baby-crying.wav;
#X obj 38 49 inlet;
#X obj 399 61 inlet sound;
#X obj 38 77 poly 4 1;
#X obj 51 203 abstractions/samplevoice~ ./samples/baby-crying.wav;
#X obj 67 224 abstractions/samplevoice~ ./samples/baby-crying.wav;
#X obj 79 245 abstractions/samplevoice~ ./samples/baby-crying.wav;
#X connect 1 0 2 0;
#X connect 2 0 3 0;
#X connect 2 1 7 0;
#X connect 2 2 8 0;
#X connect 2 3 9 0;
#X connect 3 0 0 0;
#X connect 4 0 6 0;
#X connect 5 0 3 1;
#X connect 5 0 7 1;
#X connect 5 0 8 1;
#X connect 5 0 9 1;
#X connect 6 0 1 0;
#X connect 6 1 1 1;
#X connect 6 2 1 2;
#X connect 7 0 0 0;
#X connect 8 0 0 0;
#X connect 9 0 0 0;
