#N canvas 2164 272 943 566 10;
#X obj 37 27 sel 1 0;
#X obj 202 28 \$1;
#X obj 202 -13 loadbang;
#X obj 211 6 inlet attack;
#X obj 37 3 inlet trig;
#X obj 302 -13 loadbang;
#X obj 308 6 inlet decay;
#X obj 302 27 \$2;
#X obj 302 48 sel 0;
#X obj 129 230 pack 1 f;
#X msg 347 48 20;
#X obj 403 -16 loadbang;
#X obj 403 46 sel 0;
#X obj 419 3 inlet sustain;
#X obj 403 25 \$3;
#X msg 403 107 1;
#X obj 316 115 del;
#X obj 385 152 f;
#X obj 385 178 pack f f;
#X obj 545 -15 loadbang;
#X obj 591 3 inlet release;
#X obj 545 26 \$4;
#X obj 492 252 pack 0 f;
#X obj 37 74 t b b;
#X obj 60 51 s \$0-2release;
#X obj 492 229 r \$0-2release;
#X obj 591 33 clip 1 1000;
#X msg 99 71 stop;
#X msg 29 189 0;
#X obj 129 338 line;
#X obj 129 361 outlet;
#X connect 0 0 23 0;
#X connect 0 1 24 0;
#X connect 0 1 27 0;
#X connect 0 2 23 0;
#X connect 1 0 9 1;
#X connect 1 0 16 1;
#X connect 2 0 1 0;
#X connect 3 0 1 0;
#X connect 4 0 0 0;
#X connect 5 0 7 0;
#X connect 6 0 7 0;
#X connect 7 0 8 0;
#X connect 8 0 10 0;
#X connect 8 1 18 1;
#X connect 9 0 29 0;
#X connect 10 0 18 1;
#X connect 11 0 14 0;
#X connect 12 0 15 0;
#X connect 12 1 17 1;
#X connect 13 0 17 1;
#X connect 14 0 12 0;
#X connect 15 0 17 1;
#X connect 16 0 17 0;
#X connect 17 0 18 0;
#X connect 18 0 29 0;
#X connect 19 0 21 0;
#X connect 20 0 26 0;
#X connect 21 0 22 1;
#X connect 22 0 29 0;
#X connect 23 0 16 0;
#X connect 23 0 9 0;
#X connect 23 1 28 0;
#X connect 25 0 22 0;
#X connect 26 0 22 1;
#X connect 27 0 16 0;
#X connect 28 0 29 0;
#X connect 29 0 30 0;
