#N canvas 555 389 450 300 10;
#X obj 19 55 bng 15 250 50 0 empty empty déclenche-moi! 17 7 0 10
-262144 -1 -1;
#X obj 19 75 hoc.play~ samples/bigbuckbunny.wav;
#X obj 20 180 dac~;
#X obj 19 145 hoc.pitchshifter.pvoc~;
#X floatatom 83 123 5 0 0 0 transpo - -;
#X msg 194 151 \; pd dsp 1;
#X obj 194 129 loadbang;
#X text 16 5 pitchshifter basé sur un vocoder de phase (I07);
#X connect 0 0 1 0;
#X connect 1 0 3 0;
#X connect 1 1 0 0;
#X connect 3 0 2 0;
#X connect 3 0 2 1;
#X connect 4 0 3 1;
#X connect 6 0 5 0;
