#N canvas 1825 303 450 300 10;
#X obj 66 135 mtof;
#X obj 66 206 *~;
#X obj 133 164 hoc.adsr~ 5 20 0.5 50;
#X obj 66 105 unpack f f;
#X obj 133 133 / 127;
#X obj 67 256 dac~;
#X text 9 5 Pour jouer avec le clavier de l'ordinateur;
#X msg 343 226 \; pd dsp 1;
#X obj 343 203 loadbang;
#X obj 66 228 *~ 0.3;
#X obj 66 166 osc~;
#X obj 66 50 hoc.keyboard;
#X text 259 120 Q S D;
#X text 314 121 J K L M;
#X text 265 107 Z E;
#X text 320 107 U I O;
#X text 218 85 Lettres du clavier à jouer :;
#X text 190 43 Inlet1/arg1 : temps de la note (ms);
#X connect 0 0 10 0;
#X connect 1 0 9 0;
#X connect 2 0 1 1;
#X connect 3 0 0 0;
#X connect 3 1 4 0;
#X connect 4 0 2 0;
#X connect 8 0 7 0;
#X connect 9 0 5 0;
#X connect 9 0 5 1;
#X connect 10 0 1 0;
#X connect 11 0 3 0;
