#N canvas 642 286 277 291 10;
#X obj 13 36 list fromsymbol;
#X obj 11 164 list tosymbol;
#X obj 10 14 inlet;
#X obj 11 186 outlet;
#X obj 13 137 list split \$1;
#X connect 0 0 4 0;
#X connect 1 0 3 0;
#X connect 2 0 0 0;
#X connect 4 0 1 0;
#X connect 4 2 1 0;
