#N canvas 434 275 405 322 10;
#X obj 57 14 inlet;
#X obj 56 276 outlet;
#X obj 89 111 + 1;
#X obj 57 111 0;
#X obj 57 45 t b;
#X obj 128 248 %;
#X obj 153 48 \$1;
#X obj 189 216 + 1;
#X obj 153 25 loadbang;
#X obj 153 71 sel 0;
#X obj 187 92 t f b, f 12;
#X obj 56 188 route infinite finite;
#X obj 56 139 list prepend finite;
#X msg 156 114 infinite;
#X msg 246 116 finite;
#X obj 56 164 route list;
#X obj 66 69 inlet reset;
#X msg 67 82 0;
#X connect 0 0 4 0;
#X connect 2 0 3 1;
#X connect 3 0 2 0;
#X connect 3 0 12 0;
#X connect 4 0 3 0;
#X connect 5 0 1 0;
#X connect 6 0 9 0;
#X connect 7 0 5 1;
#X connect 8 0 6 0;
#X connect 9 0 13 0;
#X connect 9 1 10 0;
#X connect 10 0 7 0;
#X connect 10 1 14 0;
#X connect 11 0 1 0;
#X connect 11 1 5 0;
#X connect 12 0 15 0;
#X connect 13 0 12 1;
#X connect 14 0 12 1;
#X connect 15 0 11 0;
#X connect 16 0 17 0;
#X connect 17 0 3 1;
