#N canvas 141 123 883 531 10;
#X obj 25 23 loadbang;
#X obj 25 45 \$1;
#X obj 25 67 sel 0;
#X msg 25 88 4;
#X obj 95 29 inlet frequence;
#X obj 22 210 /;
#X obj 22 163 t b f;
#X msg 22 186 1;
#X obj 22 137 * 0.001;
#X obj 326 451 outlet;
#X obj 326 388 *;
#X obj 407 22 inlet depth;
#X obj 342 75 sel 0;
#X obj 342 53 \$2;
#X obj 343 23 loadbang;
#X msg 342 100 1;
#X obj 531 51 \$3;
#X obj 515 25 loadbang;
#X obj 22 233 s \$0-periode;
#X obj 25 112 clip 0.0001 100;
#X obj 417 225 metro 100;
#X obj 417 247 random 100;
#X obj 417 325 line;
#X obj 417 295 pack f 100;
#X obj 499 166 r \$0-periode;
#X obj 417 269 / 100;
#X obj 519 265 *;
#X obj 531 73 clip 0 1;
#X obj 580 27 inlet smoothing;
#X obj 542 221 t b f;
#X obj 411 185 loadbang;
#X connect 0 0 1 0;
#X connect 1 0 2 0;
#X connect 2 0 3 0;
#X connect 2 1 19 0;
#X connect 3 0 19 0;
#X connect 4 0 19 0;
#X connect 5 0 18 0;
#X connect 6 0 7 0;
#X connect 6 1 5 1;
#X connect 7 0 5 0;
#X connect 8 0 6 0;
#X connect 10 0 9 0;
#X connect 11 0 13 0;
#X connect 12 0 15 0;
#X connect 12 1 10 1;
#X connect 13 0 12 0;
#X connect 14 0 13 0;
#X connect 15 0 10 1;
#X connect 16 0 27 0;
#X connect 17 0 16 0;
#X connect 19 0 8 0;
#X connect 20 0 21 0;
#X connect 21 0 25 0;
#X connect 22 0 10 0;
#X connect 23 0 22 0;
#X connect 24 0 20 1;
#X connect 24 0 26 0;
#X connect 25 0 23 0;
#X connect 26 0 23 1;
#X connect 27 0 29 0;
#X connect 28 0 16 0;
#X connect 29 0 26 0;
#X connect 29 1 26 1;
#X connect 30 0 20 0;
