#N canvas 586 306 600 323 10;
#X obj 39 236 h.output~;
#X obj 38 59 bng 15 250 50 0 empty empty empty 17 7 0 10 -262144 -1
-1;
#N canvas 0 29 679 217 notes 0;
#X obj 154 69 metro 1000;
#X obj 154 46 loadbang;
#X obj 154 180 outlet;
#X obj 154 156 mtof;
#X obj 154 134 + 32;
#X obj 154 111 * 2;
#X obj 154 89 hoc.counter 8;
#X connect 0 0 6 0;
#X connect 1 0 0 0;
#X connect 3 0 2 0;
#X connect 4 0 3 0;
#X connect 5 0 4 0;
#X connect 6 0 5 0;
#X restore 153 132 pd notes;
#X obj 38 79 hoc.play~ ./samples/voice.wav;
#X obj 38 37 loadbang;
#X obj 153 154 phasor~;
#X text 30 7 Vocoder basé sur le manuel;
#X obj 38 178 hoc.vocoder.pvoc~;
#X connect 1 0 3 0;
#X connect 2 0 5 0;
#X connect 3 0 7 0;
#X connect 3 1 1 0;
#X connect 4 0 1 0;
#X connect 5 0 7 1;
#X connect 7 0 0 1;
#X connect 7 0 0 0;
