#N canvas 149 56 362 445 10;
#X obj 114 139 -;
#X obj 114 64 t b b;
#X obj 51 67 t b b;
#X obj 51 139 -;
#X obj 94 224 /;
#X obj 76 336 *;
#X obj 76 293 +;
#X obj 185 218 -;
#X obj 94 18 t b b b b, f 20;
#X obj 146 96 \$1;
#X obj 114 96 \$2;
#X obj 230 176 \$1;
#X obj 185 176 \$3;
#X obj 83 97 \$3;
#X obj 51 99 \$4;
#X obj 27 258 inlet;
#X obj 31 381 outlet;
#X obj 94 -3 loadbang;
#X text 87 197 factor;
#X text 210 217 shift;
#X connect 0 0 4 1;
#X connect 1 0 10 0;
#X connect 1 1 9 0;
#X connect 2 0 14 0;
#X connect 2 1 13 0;
#X connect 3 0 4 0;
#X connect 4 0 5 1;
#X connect 5 0 16 0;
#X connect 6 0 5 0;
#X connect 7 0 6 1;
#X connect 8 0 2 0;
#X connect 8 1 1 0;
#X connect 8 2 12 0;
#X connect 8 3 11 0;
#X connect 9 0 0 1;
#X connect 10 0 0 0;
#X connect 11 0 7 1;
#X connect 12 0 7 0;
#X connect 13 0 3 1;
#X connect 14 0 3 0;
#X connect 15 0 6 0;
#X connect 17 0 8 0;
