#N canvas 265 242 553 300 10;
#X obj 116 144 random 12;
#X obj 116 166 + 60;
#X obj 116 121 metro 300;
#X obj 116 99 loadbang;
#X obj 224 58 \$1;
#X obj 224 79 sel 0;
#X obj 224 36 loadbang;
#X obj 116 214 outlet midiPitch;
#X obj 254 243 outlet velocity;
#X obj 267 81 inlet;
#X obj 313 80 sel 0;
#X obj 313 37 loadbang;
#X obj 356 82 inlet;
#X obj 313 59 \$2;
#X obj 402 84 sel 0;
#X obj 402 41 loadbang;
#X obj 445 86 inlet;
#X obj 402 64 \$3;
#X obj 340 120 f;
#X obj 411 123 f;
#X obj 340 191 -;
#X obj 410 152 t b f;
#X obj 340 214 abs;
#X obj 116 187 makenote 127 200;
#X obj 225 132 - 50, f 5;
#X msg 199 104 300;
#X connect 0 0 1 0;
#X connect 1 0 23 0;
#X connect 2 0 0 0;
#X connect 3 0 2 0;
#X connect 4 0 5 0;
#X connect 5 0 25 0;
#X connect 5 1 24 0;
#X connect 5 1 2 1;
#X connect 6 0 4 0;
#X connect 9 0 24 0;
#X connect 9 0 2 1;
#X connect 10 1 18 0;
#X connect 11 0 13 0;
#X connect 12 0 18 0;
#X connect 13 0 10 0;
#X connect 14 1 19 0;
#X connect 15 0 17 0;
#X connect 16 0 19 0;
#X connect 17 0 14 0;
#X connect 18 0 20 0;
#X connect 18 0 1 1;
#X connect 19 0 21 0;
#X connect 20 0 22 0;
#X connect 21 0 20 0;
#X connect 21 1 20 1;
#X connect 22 0 0 1;
#X connect 23 0 7 0;
#X connect 23 1 8 0;
#X connect 24 0 23 2;
#X connect 25 0 2 1;
