#N canvas 632 384 450 300 10;
#X obj 103 128 sel 1;
#X obj 70 158 f;
#X obj 56 79 t f f;
#X obj 56 54 inlet;
#X obj 70 182 outlet;
#X obj 174 7 inlet;
#X obj 174 29 t b;
#X obj 178 117 t b f;
#X msg 231 69 0;
#X obj 178 92 spigot 1;
#X msg 174 51 1;
#X obj 103 106 <, f 7;
#X connect 0 0 1 0;
#X connect 1 0 4 0;
#X connect 1 0 11 1;
#X connect 2 0 11 0;
#X connect 2 1 1 1;
#X connect 2 1 9 0;
#X connect 3 0 2 0;
#X connect 5 0 6 0;
#X connect 6 0 10 0;
#X connect 7 0 8 0;
#X connect 7 1 1 0;
#X connect 7 1 11 1;
#X connect 8 0 9 1;
#X connect 9 0 7 0;
#X connect 10 0 9 1;
#X connect 11 0 0 0;
