#N canvas 0 63 450 300 10;
#X obj 10 47 bng 15 250 50 0 empty empty déclenche-moi! 17 7 0 10
-262144 -1 -1;
#X obj 10 67 hoc.play~ samples/bigbuckbunny.wav;
#X obj 11 220 dac~;
#X obj 11 126 hoc.limiter~;
#N canvas 0 29 450 300 compare 0;
#X obj 47 214 *~;
#X obj 121 214 *~;
#X obj 46 106 inlet~;
#X obj 122 106 inlet~;
#X obj 213 100 * -1;
#X obj 213 123 + 1;
#X obj 214 76 tgl 15 0 empty empty empty 17 7 0 10 -262144 -1 -1 0
1;
#X obj 142 182 line~;
#X msg 145 161 \$1 20;
#X obj 66 179 line~;
#X msg 69 158 \$1 20;
#X obj 45 243 outlet~;
#X obj 213 51 inlet;
#X connect 0 0 11 0;
#X connect 1 0 11 0;
#X connect 2 0 0 0;
#X connect 3 0 1 0;
#X connect 4 0 5 0;
#X connect 5 0 10 0;
#X connect 6 0 4 0;
#X connect 6 0 8 0;
#X connect 7 0 1 1;
#X connect 8 0 7 0;
#X connect 9 0 0 1;
#X connect 10 0 9 0;
#X connect 12 0 6 0;
#X restore 11 188 pd compare;
#X msg 298 135 \; pd dsp 1;
#X obj 298 113 loadbang;
#X text 4 6 Simple limiter;
#X obj 78 167 tgl 15 0 empty empty Comparer 17 7 0 10 -262144 -1 -1
0 1;
#X obj 11 105 *~ 3;
#X connect 0 0 1 0;
#X connect 1 0 4 1;
#X connect 1 0 9 0;
#X connect 1 1 0 0;
#X connect 3 0 4 0;
#X connect 4 0 2 0;
#X connect 4 0 2 1;
#X connect 6 0 5 0;
#X connect 8 0 4 2;
#X connect 9 0 3 0;
