#N canvas 0 29 482 426 10;
#X obj 251 195 line~;
#X obj 251 171 pack 0 50;
#X obj 101 211 *~;
#X obj 251 96 / 10;
#X obj 251 120 moses 0;
#X msg 251 144 0;
#X obj 49 244 sig~ 1;
#X obj 70 297 /~;
#X obj 85 271 +~;
#X obj 70 349 hip~;
#X obj 69 372 outlet~;
#X obj 61 68 inlet freq;
#X obj 101 190 osc~;
#X obj 158 75 \$1;
#X obj 158 52 loadbang;
#X obj 102 167 line~;
#X obj 102 143 pack f 5;
#X obj 251 58 inlet spect;
#X obj 158 97 sel 0;
#X msg 157 119 100;
#X obj 362 87 \$2;
#X obj 361 67 loadbang;
#X obj 101 239 *~;
#X connect 0 0 2 1;
#X connect 1 0 0 0;
#X connect 2 0 22 0;
#X connect 2 0 22 1;
#X connect 3 0 4 0;
#X connect 4 0 5 0;
#X connect 4 1 1 0;
#X connect 5 0 1 0;
#X connect 6 0 7 0;
#X connect 6 0 8 0;
#X connect 7 0 9 0;
#X connect 8 0 7 1;
#X connect 9 0 10 0;
#X connect 11 0 16 0;
#X connect 12 0 2 0;
#X connect 13 0 18 0;
#X connect 14 0 13 0;
#X connect 15 0 12 0;
#X connect 16 0 15 0;
#X connect 17 0 3 0;
#X connect 18 0 19 0;
#X connect 18 1 16 0;
#X connect 19 0 16 0;
#X connect 20 0 3 0;
#X connect 21 0 20 0;
#X connect 22 0 8 1;
