#N canvas 0 48 900 718 10;
#X obj 153 34 bng 15 250 50 0 empty empty empty 17 7 0 10 -262144 -1
-1;
#X obj 153 87 savepanel;
#X msg 153 108 open \$1;
#X msg 308 107 start;
#X msg 270 107 stop;
#X obj 270 69 sel 0 1;
#X obj 48 80 inlet~;
#X obj 171 34 tgl 15 0 empty empty empty 17 7 0 10 -262144 -1 -262144
0 1;
#X obj 397 80 + 1;
#X obj 369 81 0;
#X obj 369 123 sel 0 1;
#X obj 369 103 % 2;
#X obj 368 53 metro 500;
#X msg 366 160 color 13;
#X msg 362 192 color 0;
#X obj 153 200 writesf~ 2;
#X obj 98 80 inlet~;
#X connect 0 0 1 0;
#X connect 1 0 2 0;
#X connect 2 0 15 0;
#X connect 3 0 15 0;
#X connect 4 0 15 0;
#X connect 5 0 4 0;
#X connect 5 1 3 0;
#X connect 5 1 14 0;
#X connect 6 0 15 0;
#X connect 7 0 5 0;
#X connect 7 0 12 0;
#X connect 8 0 9 1;
#X connect 9 0 8 0;
#X connect 9 0 11 0;
#X connect 10 0 13 0;
#X connect 10 1 14 0;
#X connect 11 0 10 0;
#X connect 12 0 9 0;
#X connect 13 0 7 0;
#X connect 14 0 7 0;
#X connect 16 0 15 1;
#X coords 0 -1 1 1 40 30 1 150 20;
