#N canvas 1 82 450 300 10;
#X obj 22 50 bng 15 250 50 0 empty empty déclenche-moi! 17 7 0 10
-262144 -1 -1;
#X msg 261 52 \; pd dsp 1;
#X obj 261 31 loadbang;
#X obj 22 70 hoc.play~ samples/bigbuckbunny.wav;
#X text 17 6 Renverse le son tous les n milisecondes;
#X obj 22 28 loadbang;
#X obj 24 172 dac~;
#X obj 117 106 tgl 15 0 empty empty empty 17 7 0 10 -262144 -1 -1 1
1;
#X obj 23 127 hoc.reverse~ 200;
#X connect 0 0 3 0;
#X connect 2 0 1 0;
#X connect 3 0 8 0;
#X connect 3 1 0 0;
#X connect 5 0 0 0;
#X connect 7 0 8 2;
#X connect 8 0 6 0;
#X connect 8 0 6 1;
