#N canvas 555 260 450 300 10;
#X obj 33 76 env~;
#X obj 34 180 *~;
#X obj 33 97 / 100;
#X obj 33 141 line~;
#X msg 33 118 \$1 5;
#X obj 32 31 inlet~ mod;
#X obj 77 128 inlet~ carrier;
#X obj 34 226 outlet~;
#X obj 32 52 bp~ \$1 1000;
#X obj 77 150 bp~ \$1 1000;
#X connect 0 0 2 0;
#X connect 1 0 7 0;
#X connect 2 0 4 0;
#X connect 3 0 1 0;
#X connect 4 0 3 0;
#X connect 5 0 8 0;
#X connect 6 0 9 0;
#X connect 8 0 0 0;
#X connect 9 0 1 1;
