#N canvas 0 29 679 342 10;
#X obj 231 182 table \$0-sample;
#X obj 154 110 openpanel;
#X obj 154 182 soundfiler;
#X obj 198 89 \$0;
#X obj 198 67 loadbang;
#X obj 154 137 pack s f;
#X msg 154 161 read -resize \$1 \$2-sample;
#X obj 8 177 outlet~;
#X obj 102 114 bng 15 250 50 0 empty empty empty 17 7 0 10 -262144
-1 -1;
#X obj 255 86 symbol \$1;
#X msg 255 125 read -resize \$1 \$2-sample;
#X obj 320 85 \$0;
#X obj 305 33 loadbang;
#X obj 255 105 pack s f;
#X obj 255 66 t b b;
#X obj 9 145 tabread4~ \$0-sample;
#X obj 10 89 *~;
#X obj 12 22 inlet;
#X obj 165 19 inlet;
#X obj 11 67 line~;
#X obj 7 47 pack f 600;
#X obj 181 237 outlet size;
#X connect 1 0 5 0;
#X connect 2 0 16 1;
#X connect 2 0 21 0;
#X connect 3 0 5 1;
#X connect 4 0 3 0;
#X connect 5 0 6 0;
#X connect 6 0 2 0;
#X connect 8 0 1 0;
#X connect 9 0 13 0;
#X connect 10 0 2 0;
#X connect 11 0 13 1;
#X connect 12 0 14 0;
#X connect 13 0 10 0;
#X connect 14 0 9 0;
#X connect 14 1 11 0;
#X connect 15 0 7 0;
#X connect 16 0 15 0;
#X connect 17 0 20 0;
#X connect 18 0 8 0;
#X connect 19 0 16 0;
#X connect 20 0 19 0;
#X coords 0 -1 1 1 30 30 1 100 100;
