#N canvas 309 364 450 300 10;
#X obj 121 184 line~;
#X obj 121 162 pack f 30;
#X obj 196 184 line~;
#X obj 196 162 pack f 30;
#X obj 122 114 * -1;
#X obj 122 136 + 1;
#X obj 35 241 *~;
#X obj 97 241 *~;
#X obj 97 44 inlet~;
#X obj 34 43 inlet~;
#X obj 35 270 outlet~;
#X obj 97 272 outlet~;
#X obj 167 46 inlet;
#X obj 217 72 \$1;
#X obj 217 47 loadbang;
#X obj 217 93 clip 0 1;
#X connect 0 0 6 1;
#X connect 1 0 0 0;
#X connect 2 0 7 1;
#X connect 3 0 2 0;
#X connect 4 0 5 0;
#X connect 5 0 1 0;
#X connect 6 0 10 0;
#X connect 7 0 11 0;
#X connect 8 0 7 0;
#X connect 9 0 6 0;
#X connect 12 0 15 0;
#X connect 13 0 15 0;
#X connect 14 0 13 0;
#X connect 15 0 4 0;
#X connect 15 0 3 0;
