#N canvas 116 74 564 371 10;
#X obj 97 119 until;
#X obj 106 195 sel 1;
#X obj 106 145 0;
#X obj 97 89 t b b;
#X msg 154 120 0;
#X obj 139 143 + 1;
#X obj 66 226 pack f 0;
#X obj 66 192 % 127;
#X obj 106 175 > 2032;
#X obj 97 61 inlet;
#X obj 66 251 outlet;
#X text 151 175 Pour 16 voix de polyphonie (16 * 127 = 2032);
#X connect 0 0 2 0;
#X connect 1 0 0 1;
#X connect 2 0 5 0;
#X connect 2 0 7 0;
#X connect 2 0 8 0;
#X connect 3 0 0 0;
#X connect 3 1 4 0;
#X connect 4 0 2 1;
#X connect 5 0 2 1;
#X connect 6 0 10 0;
#X connect 7 0 6 0;
#X connect 8 0 1 0;
#X connect 9 0 3 0;
