#N canvas 762 370 450 300 10;
#X obj 67 102 expr~ $v1 > $v2;
#X obj 67 123 -~ 0.5;
#X obj 67 144 *~ 2;
#X msg 155 49 0.5;
#X obj 156 -14 loadbang;
#X obj 156 29 sel 0;
#X obj 67 165 outlet~;
#X obj 156 7 \$2;
#X obj 67 62 sig~ \$1;
#X obj 38 36 inlet~;
#X obj 67 82 phasor~;
#X obj 217 31 inlet~ PW;
#X obj 153 80 clip~ -0.5 0.5;
#X obj 218 54 clip~ -0.5 0.5;
#X connect 0 0 1 0;
#X connect 1 0 2 0;
#X connect 2 0 6 0;
#X connect 3 0 12 0;
#X connect 4 0 7 0;
#X connect 5 0 3 0;
#X connect 5 1 12 0;
#X connect 7 0 5 0;
#X connect 8 0 10 0;
#X connect 9 0 10 0;
#X connect 10 0 0 0;
#X connect 11 0 13 0;
#X connect 12 0 0 1;
#X connect 13 0 0 1;
