#N canvas 70 447 368 257 10;
#X obj 181 128 hoc.higher;
#X obj 86 128 hoc.lesser;
#X obj 81 29 inlet;
#X obj 38 164 hoc.scale 0 0 0 1;
#X obj 38 212 outlet;
#X obj 201 10 loadbang;
#X obj 279 63 sel 0;
#X obj 279 41 \$1;
#X obj 201 60 metro;
#X obj 283 106 max 1;
#X msg 275 84 1000;
#X obj 201 32 t b b;
#X connect 0 0 3 2;
#X connect 1 0 3 1;
#X connect 2 0 0 0;
#X connect 2 0 1 0;
#X connect 2 0 3 0;
#X connect 3 0 4 0;
#X connect 5 0 11 0;
#X connect 6 0 10 0;
#X connect 6 1 9 0;
#X connect 7 0 6 0;
#X connect 8 0 0 1;
#X connect 8 0 1 1;
#X connect 9 0 8 1;
#X connect 10 0 9 0;
#X connect 11 0 8 0;
#X connect 11 1 7 0;
