#N canvas 448 29 736 523 10;
#X obj 13 64 delwrite~ \$0-del 3000;
#X obj 13 44 inlet~;
#X obj 284 191 line~;
#X msg 284 168 \$1 20;
#X obj 182 195 vd~ \$0-del;
#X obj 183 420 outlet~;
#X obj 183 148 vline~;
#X obj 183 28 inlet time;
#X obj 200 53 loadbang;
#X obj 183 103 clip 1 3000;
#X msg 183 125 \$1 2;
#X obj 183 81 \$1;
#X obj 232 221 *~;
#X obj 284 28 inlet feedback;
#X obj 284 80 \$2;
#X obj 298 51 loadbang;
#X obj 284 102 clip 0 1;
#X obj 406 51 loadbang;
#X obj 392 28 inlet Q;
#X obj 502 51 loadbang;
#X msg 488 160 \$1 20;
#X obj 488 28 inlet mod;
#X obj 392 80 \$3;
#X obj 488 80 \$4;
#X obj 183 170 +~;
#X obj 471 251 *~;
#X obj 488 183 line~;
#X obj 488 102 clip 0 10;
#X obj 449 220 osc~ 20;
#X obj 232 252 hoc.pan.mono~;
#X obj 392 102 clip 0 1;
#X obj 320 339 *~ 0.8;
#X obj 321 364 hoc.limiter~;
#X obj 321 386 hipp~ 20;
#X obj 321 408 lopp~ 15000;
#X obj 320 296 bp~ 1000 1.7;
#X obj 392 124 moses 0.5;
#X obj 373 171 * 2;
#X obj 414 177 + 0.5;
#X floatatom 367 209 5 0 0 0 - - -, f 5;
#X connect 1 0 0 0;
#X connect 2 0 12 1;
#X connect 3 0 2 0;
#X connect 4 0 5 0;
#X connect 4 0 12 0;
#X connect 6 0 24 0;
#X connect 7 0 11 0;
#X connect 8 0 11 0;
#X connect 9 0 10 0;
#X connect 10 0 6 0;
#X connect 11 0 9 0;
#X connect 12 0 29 0;
#X connect 13 0 14 0;
#X connect 14 0 16 0;
#X connect 15 0 14 0;
#X connect 16 0 3 0;
#X connect 17 0 22 0;
#X connect 18 0 22 0;
#X connect 19 0 23 0;
#X connect 20 0 26 0;
#X connect 21 0 23 0;
#X connect 22 0 30 0;
#X connect 23 0 27 0;
#X connect 24 0 4 0;
#X connect 25 0 24 1;
#X connect 26 0 25 1;
#X connect 27 0 20 0;
#X connect 28 0 25 0;
#X connect 29 0 0 0;
#X connect 29 1 35 0;
#X connect 30 0 36 0;
#X connect 31 0 32 0;
#X connect 32 0 33 0;
#X connect 33 0 34 0;
#X connect 34 0 0 0;
#X connect 35 0 31 0;
#X connect 36 0 37 0;
#X connect 36 1 38 0;
#X connect 37 0 29 1;
#X connect 37 0 39 0;
#X connect 38 0 35 2;
