#N canvas 650 108 790 578 10;
#X floatatom 133 133 5 0 0 0 - - -;
#X obj 137 279 osc~;
#X obj 138 254 +~;
#X obj 154 230 *~;
#X obj 153 207 osc~;
#X obj 154 160 sig~;
#X obj 122 205 sig~;
#X obj 190 205 sig~ 5000;
#X obj 153 185 +~;
#X obj 205 163 *~;
#X obj 204 138 delread~ \$0-fdbk 1;
#X obj 176 299 delwrite~ \$0-fdbk 1;
#X obj 221 116 sig~ 40;
#X obj 33 180 delread~ \$0-fdbk 1;
#X obj 33 227 +~;
#X obj 34 203 *~;
#X obj 132 110 * 3;
#X obj 136 327 clip~ -1 1;
#X obj 154 60 t b;
#X obj 223 53 random 10;
#X obj 136 303 *~ 6;
#X obj 50 135 sig~ 40;
#X obj 54 67 random 10;
#X obj 132 17 inlet freq;
#X obj 135 351 outlet~;
#X obj 125 55 \$1;
#X obj 65 32 loadbang;
#X floatatom 298 116 5 0 0 0 - - -;
#X obj 223 72 / 3;
#X obj 54 91 / 3;
#X floatatom 297 86 5 0 0 0 - - -;
#X floatatom -28 142 5 0 0 0 - - -;
#X floatatom 96 109 5 0 0 0 - - -;
#X obj 223 95 + 7;
#X obj 52 114 + 10;
#X obj 365 50 moses 200;
#X obj 365 72 t b;
#X obj 410 72 t b;
#X msg 410 96 30;
#X obj -38 22 moses 200;
#X obj -38 44 t b;
#X obj 7 44 t b;
#X msg -38 68 5;
#X msg 365 96 2;
#X msg 7 68 66;
#X obj 132 87 - 20;
#X connect 0 0 5 0;
#X connect 0 0 6 0;
#X connect 1 0 20 0;
#X connect 2 0 1 0;
#X connect 3 0 2 1;
#X connect 4 0 3 0;
#X connect 5 0 8 0;
#X connect 6 0 14 1;
#X connect 7 0 3 1;
#X connect 8 0 4 0;
#X connect 9 0 8 1;
#X connect 10 0 9 0;
#X connect 12 0 9 1;
#X connect 13 0 15 0;
#X connect 14 0 2 0;
#X connect 15 0 14 0;
#X connect 16 0 0 0;
#X connect 16 0 35 0;
#X connect 16 0 39 0;
#X connect 17 0 24 0;
#X connect 18 0 19 0;
#X connect 18 0 22 0;
#X connect 19 0 28 0;
#X connect 20 0 17 0;
#X connect 20 0 11 0;
#X connect 21 0 15 1;
#X connect 22 0 29 0;
#X connect 23 0 18 0;
#X connect 23 0 25 0;
#X connect 25 0 45 0;
#X connect 26 0 25 1;
#X connect 28 0 33 0;
#X connect 29 0 34 0;
#X connect 30 0 12 0;
#X connect 32 0 0 0;
#X connect 33 0 12 0;
#X connect 33 0 27 0;
#X connect 34 0 21 0;
#X connect 34 0 31 0;
#X connect 35 0 36 0;
#X connect 35 1 37 0;
#X connect 36 0 43 0;
#X connect 37 0 38 0;
#X connect 38 0 33 1;
#X connect 39 0 40 0;
#X connect 39 1 41 0;
#X connect 40 0 42 0;
#X connect 41 0 44 0;
#X connect 42 0 34 1;
#X connect 43 0 33 1;
#X connect 44 0 34 1;
#X connect 45 0 16 0;
