#N canvas 652 317 450 300 10;
#X obj 10 9 inlet~;
#N canvas 1 97 450 300 route0/1 0;
#X obj 64 112 line~;
#X obj 64 91 pack f 5;
#X obj 119 111 line~;
#X obj 119 90 pack f 5;
#X obj 64 48 - 1;
#X obj 64 67 * -1;
#X obj 62 27 inlet;
#X obj 64 132 outlet~;
#X obj 118 132 outlet~;
#X connect 0 0 7 0;
#X connect 1 0 0 0;
#X connect 2 0 8 0;
#X connect 3 0 2 0;
#X connect 4 0 5 0;
#X connect 5 0 1 0;
#X connect 6 0 4 0;
#X connect 6 0 3 0;
#X restore 73 58 pd route0/1;
#X obj 11 195 outlet~;
#X obj 73 16 inlet;
#X obj 73 37 tgl 15 0 empty empty empty 17 7 0 10 -262144 -1 -1 1 1
;
#X obj 10 74 *~;
#X obj 18 118 delwrite~ \$0-s 1000;
#X obj 94 37 s \$0-01;
#X obj 147 118 *~;
#X obj 162 92 delread~ \$0-s 1000;
#X obj 122 166 *~;
#X obj 147 145 s~ \$0-feedback;
#X obj 25 93 r~ \$0-feedback;
#X obj 162 -6 \$1;
#X obj 162 33 sel 0;
#X msg 162 54 1000;
#X obj 162 13 t f f;
#X obj 162 -27 loadbang;
#X obj 209 27 inlet time;
#X obj 205 53 moses 0;
#X msg 112 15 0;
#X connect 0 0 5 0;
#X connect 1 0 5 1;
#X connect 1 1 10 1;
#X connect 1 1 8 0;
#X connect 3 0 4 0;
#X connect 3 0 7 0;
#X connect 4 0 1 0;
#X connect 5 0 2 0;
#X connect 5 0 6 0;
#X connect 8 0 11 0;
#X connect 9 0 10 0;
#X connect 9 0 8 1;
#X connect 10 0 2 0;
#X connect 12 0 6 0;
#X connect 13 0 16 0;
#X connect 14 0 15 0;
#X connect 15 0 9 0;
#X connect 16 0 14 0;
#X connect 16 1 19 0;
#X connect 17 0 13 0;
#X connect 17 0 20 0;
#X connect 18 0 19 0;
#X connect 19 1 9 0;
#X connect 20 0 4 0;
