#N canvas 27 261 485 344 10;
#N canvas 640 29 714 494 fft-analysis 1;
#X obj 275 314 *~;
#X obj 257 348 *~;
#X obj 218 348 *~;
#X obj 105 163 *~;
#X obj 66 156 *~;
#X obj 66 182 +~;
#X obj 216 104 *~;
#X obj 253 104 inlet~;
#X obj 216 130 rfft~;
#X obj 42 371 *~;
#X floatatom 459 230 0 0 0 0 - - -;
#X obj 334 177 *~;
#X obj 66 104 *~;
#X obj 103 104 inlet~;
#X obj 66 130 rfft~;
#X obj 218 374 rifft~;
#X obj 42 397 outlet~;
#X obj 297 177 *~;
#X obj 297 203 +~;
#X obj 307 314 sig~ 0.001;
#X text 122 214 modulus;
#X obj 66 208 sqrt~;
#X obj 275 288 *~;
#X obj 297 229 rsqrt~;
#X obj 341 203 sig~ 1e-20;
#X obj 297 255 clip~;
#X obj 458 130 t f f;
#X obj 459 178 *;
#X obj 459 204 * 0.01;
#X obj 456 94 max 1;
#X obj 456 50 loadbang;
#X obj 459 256 max 0;
#X msg 456 72 8;
#X obj 45 65 tabreceive~ \$0-hanning;
#X obj 340 418 block~ 1024 4;
#X connect 0 0 1 1;
#X connect 0 0 2 1;
#X connect 1 0 15 1;
#X connect 2 0 15 0;
#X connect 3 0 5 1;
#X connect 4 0 5 0;
#X connect 5 0 21 0;
#X connect 6 0 8 0;
#X connect 7 0 6 1;
#X connect 8 0 17 0;
#X connect 8 0 17 1;
#X connect 8 0 2 0;
#X connect 8 1 11 0;
#X connect 8 1 11 1;
#X connect 8 1 1 0;
#X connect 9 0 16 0;
#X connect 10 0 31 0;
#X connect 11 0 18 1;
#X connect 12 0 14 0;
#X connect 13 0 12 1;
#X connect 14 0 4 0;
#X connect 14 0 4 1;
#X connect 14 1 3 0;
#X connect 14 1 3 1;
#X connect 15 0 9 1;
#X connect 17 0 18 0;
#X connect 18 0 23 0;
#X connect 19 0 0 1;
#X connect 21 0 22 0;
#X connect 22 0 0 0;
#X connect 23 0 25 0;
#X connect 24 0 23 0;
#X connect 25 0 22 1;
#X connect 26 0 27 0;
#X connect 26 1 27 1;
#X connect 27 0 28 0;
#X connect 28 0 10 0;
#X connect 29 0 26 0;
#X connect 30 0 32 0;
#X connect 31 0 25 2;
#X connect 32 0 29 0;
#X connect 33 0 12 0;
#X connect 33 0 6 0;
#X connect 33 0 9 0;
#X restore 80 167 pd fft-analysis;
#N canvas 14 50 743 554 hanning-window 0;
#X obj 122 273 phasor~;
#X obj 122 311 cos~;
#X obj 40 336 -~;
#X obj 37 290 sig~ 1;
#X msg 50 240 0;
#X text 188 18 CALCULATE HANNING;
#X text 188 36 WINDOW TABLE;
#N canvas 0 50 450 300 (subpatch) 0;
#X array \$0-hanning 1024 float 0;
#X coords 0 1 1023 -1 400 300 1 0 0;
#X restore 342 235 graph;
#X obj 123 227 sig~;
#X text 156 173 sample rate / window size;
#X msg 31 191 bang;
#X obj 88 357 sig~ 0.5;
#X obj 66 399 *~;
#X obj 124 106 samplerate~;
#X obj 123 175 /;
#X obj 44 9 loadbang;
#X msg 46 38 1024;
#X obj 31 70 t b f;
#X obj 31 435 tabwrite~ \$0-hanning;
#X connect 0 0 1 0;
#X connect 1 0 2 1;
#X connect 2 0 12 0;
#X connect 3 0 2 0;
#X connect 4 0 0 1;
#X connect 8 0 0 0;
#X connect 10 0 4 0;
#X connect 10 0 18 0;
#X connect 11 0 12 1;
#X connect 12 0 18 0;
#X connect 13 0 14 0;
#X connect 14 0 8 0;
#X connect 15 0 16 0;
#X connect 16 0 17 0;
#X connect 17 0 13 0;
#X connect 17 0 10 0;
#X connect 17 1 14 1;
#X restore 165 228 pd hanning-window;
#X obj 81 127 inlet~;
#X obj 180 130 inlet~;
#X obj 82 228 outlet~;
#X text 73 20 adaptation du vocoder du manuel;
#X connect 0 0 4 0;
#X connect 2 0 0 0;
#X connect 3 0 0 1;
