#N canvas 0 29 631 546 10;
#X obj 154 211 pow 2;
#X obj 154 233 * 2;
#X obj 44 347 /;
#X obj 44 370 * -1;
#X obj 44 320 *;
#X obj 44 293 t f f;
#X obj 44 393 exp;
#X text 197 211 2c^2;
#X text 79 291 (x-b)^2;
#X text 70 393 e^;
#X obj 44 243 until;
#X msg 44 217 512;
#X obj 76 269 + 0.003;
#X obj 44 267 f;
#X obj 44 197 t b b;
#X obj 44 427 t f b;
#X obj 117 457 + 1;
#X msg 94 421 0;
#X obj 76 458 f;
#X msg 105 240 -0.75;
#N canvas 0 50 450 300 (subpatch) 0;
#X array \$1 512 float 0;
#X coords 0 1 511 0 100 50 2 0 0;
#X restore 51 101 graph;
#X obj 162 134 del 10;
#X obj 162 187 f;
#X floatatom 169 99 5 0 0 0 - - -, f 5;
#X obj 162 156 t b b;
#X obj 169 76 + 0.01;
#X obj 169 53 * 0.25;
#X obj 170 12 loadbang;
#X msg 170 34 0.75;
#X obj 253 9 inlet width;
#X obj 44 486 tabwrite \$1;
#X connect 0 0 1 0;
#X connect 1 0 2 1;
#X connect 2 0 3 0;
#X connect 3 0 6 0;
#X connect 4 0 2 0;
#X connect 5 0 4 0;
#X connect 5 1 4 1;
#X connect 6 0 15 0;
#X connect 10 0 13 0;
#X connect 11 0 10 0;
#X connect 12 0 13 1;
#X connect 13 0 12 0;
#X connect 13 0 5 0;
#X connect 14 0 11 0;
#X connect 14 1 19 0;
#X connect 14 1 17 0;
#X connect 15 0 30 0;
#X connect 15 1 18 0;
#X connect 16 0 18 1;
#X connect 17 0 18 1;
#X connect 18 0 16 0;
#X connect 18 0 30 1;
#X connect 19 0 13 1;
#X connect 21 0 24 0;
#X connect 22 0 0 0;
#X connect 23 0 21 0;
#X connect 23 0 22 1;
#X connect 24 0 14 0;
#X connect 24 1 22 0;
#X connect 25 0 23 0;
#X connect 26 0 25 0;
#X connect 27 0 28 0;
#X connect 28 0 26 0;
#X connect 29 0 26 0;
#X coords 0 -1 1 1 102 52 2 50 100;
