#N canvas 416 165 816 510 10;
#N canvas 665 307 450 300 randomwalk 0;
#X obj 123 113 f;
#X obj 104 198 random 4;
#X obj 26 197 random 2;
#X obj 123 138 t b b f;
#X obj 26 253 sel 0 1;
#X obj 159 328 +;
#X obj 123 87 metro 100;
#X obj 104 252 + 1;
#X obj 82 309 *;
#X msg 26 282 -1;
#X obj 242 83 moses 0;
#X obj 316 83 moses 100;
#X obj 242 107 * -1;
#X obj 407 86 * -1;
#X obj 407 111 + 200;
#X msg 60 282 1;
#X text 39 9 Random walk generator;
#X text 35 235 sign;
#X text 113 234 magnitude;
#X text 256 30 coercion to range 0-100 \; if out of range \, reflect
;
#X text 255 60 us back in.;
#X obj 258 265 outlet;
#X obj 258 187 f;
#X obj 123 54 inlet;
#X obj 166 54 inlet period;
#X obj 258 226 * 0.01;
#X connect 0 0 3 0;
#X connect 1 0 7 0;
#X connect 2 0 4 0;
#X connect 3 0 2 0;
#X connect 3 1 1 0;
#X connect 3 2 5 1;
#X connect 4 0 9 0;
#X connect 4 1 15 0;
#X connect 5 0 10 0;
#X connect 6 0 0 0;
#X connect 7 0 8 1;
#X connect 8 0 5 0;
#X connect 9 0 8 0;
#X connect 10 0 12 0;
#X connect 10 1 11 0;
#X connect 11 0 22 0;
#X connect 11 1 13 0;
#X connect 12 0 22 0;
#X connect 13 0 14 0;
#X connect 14 0 22 0;
#X connect 15 0 8 0;
#X connect 22 0 0 1;
#X connect 22 0 25 0;
#X connect 23 0 6 0;
#X connect 24 0 6 1;
#X connect 25 0 21 0;
#X restore 177 296 pd randomwalk;
#X obj 76 320 random 100;
#X obj 76 298 metro 100;
#X obj 139 22 loadbang;
#X obj 139 44 \$1;
#X obj 139 66 sel 0;
#X obj 139 111 clip 0.0001 20;
#X msg 139 87 4;
#X obj 209 28 inlet frequence;
#X obj 136 209 /;
#X obj 136 162 t b f;
#X msg 136 185 1;
#X obj 136 136 * 0.001;
#X obj 76 342 * 0.001;
#X obj 327 451 outlet;
#X obj 326 388 *;
#X obj 407 22 inlet depth;
#X obj 342 75 sel 0;
#X obj 342 53 \$2;
#X obj 343 23 loadbang;
#X msg 342 100 1;
#X obj 531 73 sel 0;
#X msg 531 98 2;
#X obj 580 27 inlet wavform;
#X obj 531 51 \$3;
#X obj 515 25 loadbang;
#X obj 531 156 sel 1 2 3, f 36;
#X obj 531 185 t b b;
#X msg 563 228 0;
#X msg 531 228 1;
#X obj 616 184 t b b;
#X msg 616 227 1;
#X obj 699 183 t b b;
#X msg 699 226 1;
#N canvas 659 259 567 434 vagues 0;
#X restore 405 320 pd vagues;
#X connect 0 0 15 0;
#X connect 1 0 13 0;
#X connect 2 0 1 0;
#X connect 3 0 4 0;
#X connect 4 0 5 0;
#X connect 5 0 7 0;
#X connect 5 1 6 0;
#X connect 6 0 12 0;
#X connect 7 0 6 0;
#X connect 8 0 6 0;
#X connect 9 0 0 1;
#X connect 9 0 2 1;
#X connect 10 0 11 0;
#X connect 10 1 9 1;
#X connect 11 0 9 0;
#X connect 12 0 10 0;
#X connect 13 0 15 0;
#X connect 15 0 14 0;
#X connect 16 0 18 0;
#X connect 17 0 20 0;
#X connect 17 1 15 1;
#X connect 18 0 17 0;
#X connect 19 0 18 0;
#X connect 20 0 15 1;
#X connect 21 0 22 0;
#X connect 21 1 26 0;
#X connect 22 0 26 0;
#X connect 23 0 24 0;
#X connect 24 0 21 0;
#X connect 25 0 24 0;
#X connect 26 0 27 0;
#X connect 26 1 30 0;
#X connect 26 2 32 0;
#X connect 27 0 29 0;
#X connect 27 1 28 0;
#X connect 28 0 2 0;
#X connect 28 0 0 0;
#X connect 30 0 31 0;
#X connect 30 1 28 0;
#X connect 32 0 33 0;
#X connect 32 1 28 0;
