#N canvas 229 409 450 300 10;
#X obj 119 147 outlet~;
#X obj 134 98 inlet~ amp;
#X obj 119 121 *~;
#X obj 212 118 sig~ \$2;
#X obj 89 18 inlet~;
#X obj 90 77 osc~;
#X obj 157 51 sig~ \$1;
#X connect 1 0 2 1;
#X connect 2 0 0 0;
#X connect 3 0 2 1;
#X connect 4 0 5 0;
#X connect 5 0 2 0;
#X connect 6 0 5 0;
