#N canvas 2151 377 669 527 10;
#X msg 125 108 10;
#X obj 181 97 expr 8./3;
#X msg 16 211 set 1.2 2.3 4.4;
#X msg 281 99 18;
#X msg 343 99 0.01;
#X obj 88 409 outlet~;
#X obj 79 40 loadbang;
#X obj 88 339 fexpr~ $y1+($f2*$y2-$f2*$y1)*$f5 \; $y2 +(-$y1*$y3 +
$f4*$y1-$y2)*$f5 \; $y3+($y1*$y2 - $f3*$y3)*$f5, f 37;
#X msg 50 289 start;
#X obj 88 387 *~ 0.1;
#X obj 406 168 / 1000;
#X obj 406 145 + 6;
#X obj 406 123 * 0.34;
#X obj 406 101 clip 0 100;
#X obj 406 78 inlet;
#X obj 340 44 \$1;
#X obj 340 66 sel 0;
#X connect 0 0 7 1;
#X connect 1 0 7 2;
#X connect 2 0 7 0;
#X connect 3 0 7 3;
#X connect 4 0 7 4;
#X connect 6 0 0 0;
#X connect 6 0 1 0;
#X connect 6 0 3 0;
#X connect 6 0 2 0;
#X connect 6 0 15 0;
#X connect 7 0 9 0;
#X connect 8 0 7 0;
#X connect 9 0 5 0;
#X connect 10 0 7 4;
#X connect 11 0 10 0;
#X connect 12 0 11 0;
#X connect 13 0 12 0;
#X connect 14 0 13 0;
#X connect 15 0 16 0;
#X connect 16 0 4 0;
#X connect 16 1 13 0;
