#N canvas 421 236 450 300 10;
#X obj 14 197 h.output~;
#X obj 15 137 hoc.shuffling2~ 160 0.6 80 100;
#X floatatom 65 115 5 0 0 2 time - -, f 5;
#X floatatom 167 114 5 0 0 2 env - -, f 5;
#X floatatom 208 114 5 0 0 2 pitch - -, f 5;
#X text 14 17 Version avec tables;
#X floatatom 106 116 5 0 0 2 feedback - -, f 5;
#X obj 14 46 bng 15 250 50 0 empty empty déclenche-moi! 17 7 0 10
-262144 -1 -1;
#X obj 14 68 hoc.play~ samples/bigbuckbunny.wav;
#X connect 1 0 0 0;
#X connect 1 1 0 1;
#X connect 2 0 1 1;
#X connect 3 0 1 3;
#X connect 4 0 1 4;
#X connect 6 0 1 2;
#X connect 7 0 8 0;
#X connect 8 0 1 0;
