#N canvas 0 29 1351 714 10;
#X obj 523 99 s~ \$0-modulator;
#X obj 191 497 outlet~;
#X obj 662 73 s~ \$0-carrier;
#X obj 726 179 env~;
#X obj 726 201 > 10;
#X obj 726 248 pack f 20;
#X obj 726 270 line~;
#X obj 726 159 r~ \$0-carrier;
#X obj 726 225 change;
#X obj 272 58 inlet~ mod;
#X obj 428 55 inlet~ carrier;
#X obj 191 476 hipp~ 20;
#X floatatom 803 228 5 0 0 0 - - -, f 5;
#X obj 191 456 *~ 1;
#X obj 227 216 abstractions/hoc.vocoder.voice~ 770;
#X obj 259 255 abstractions/hoc.vocoder.voice~ 1080;
#X obj 174 112 abstractions/hoc.vocoder.voice~ 100;
#X obj 183 134 abstractions/hoc.vocoder.voice~ 200;
#X obj 195 154 abstractions/hoc.vocoder.voice~ 300;
#X obj 206 175 abstractions/hoc.vocoder.voice~ 510;
#X obj 216 196 abstractions/hoc.vocoder.voice~ 630;
#X obj 242 235 abstractions/hoc.vocoder.voice~ 920;
#X obj 270 277 abstractions/hoc.vocoder.voice~ 1270;
#X obj 282 297 abstractions/hoc.vocoder.voice~ 1480;
#X obj 293 318 abstractions/hoc.vocoder.voice~ 1720;
#X obj 303 338 abstractions/hoc.vocoder.voice~ 2000;
#X obj 315 358 abstractions/hoc.vocoder.voice~ 2320;
#X obj 328 378 abstractions/hoc.vocoder.voice~ 2700;
#X obj 340 399 abstractions/hoc.vocoder.voice~ 3150;
#X obj 352 419 abstractions/hoc.vocoder.voice~ 3700;
#X obj 365 439 abstractions/hoc.vocoder.voice~ 4400;
#X obj 377 459 abstractions/hoc.vocoder.voice~ 5300;
#X obj 389 480 abstractions/hoc.vocoder.voice~ 6400;
#X obj 401 500 abstractions/hoc.vocoder.voice~ 7700;
#X obj 411 521 abstractions/hoc.vocoder.voice~ 9500;
#X obj 418 541 abstractions/hoc.vocoder.voice~ 12000;
#X obj 429 559 abstractions/hoc.vocoder.voice~ 15500;
#X connect 3 0 4 0;
#X connect 4 0 8 0;
#X connect 5 0 6 0;
#X connect 7 0 3 0;
#X connect 8 0 5 0;
#X connect 9 0 0 0;
#X connect 9 0 14 0;
#X connect 9 0 15 0;
#X connect 9 0 16 0;
#X connect 9 0 17 0;
#X connect 9 0 18 0;
#X connect 9 0 19 0;
#X connect 9 0 20 0;
#X connect 9 0 21 0;
#X connect 9 0 22 0;
#X connect 9 0 23 0;
#X connect 9 0 24 0;
#X connect 9 0 25 0;
#X connect 9 0 26 0;
#X connect 9 0 27 0;
#X connect 9 0 28 0;
#X connect 9 0 29 0;
#X connect 9 0 30 0;
#X connect 9 0 31 0;
#X connect 9 0 32 0;
#X connect 9 0 33 0;
#X connect 9 0 34 0;
#X connect 9 0 35 0;
#X connect 9 0 36 0;
#X connect 10 0 2 0;
#X connect 10 0 14 1;
#X connect 10 0 15 1;
#X connect 10 0 16 1;
#X connect 10 0 17 1;
#X connect 10 0 18 1;
#X connect 10 0 19 1;
#X connect 10 0 20 1;
#X connect 10 0 21 1;
#X connect 10 0 22 1;
#X connect 10 0 23 1;
#X connect 10 0 24 1;
#X connect 10 0 25 1;
#X connect 10 0 26 1;
#X connect 10 0 27 1;
#X connect 10 0 28 1;
#X connect 10 0 29 1;
#X connect 10 0 30 1;
#X connect 10 0 31 1;
#X connect 10 0 32 1;
#X connect 10 0 33 1;
#X connect 10 0 34 1;
#X connect 10 0 35 1;
#X connect 10 0 36 1;
#X connect 11 0 1 0;
#X connect 13 0 11 0;
#X connect 14 0 13 0;
#X connect 15 0 13 0;
#X connect 16 0 13 0;
#X connect 17 0 13 0;
#X connect 18 0 13 0;
#X connect 19 0 13 0;
#X connect 20 0 13 0;
#X connect 21 0 13 0;
#X connect 22 0 13 0;
#X connect 23 0 13 0;
#X connect 24 0 13 0;
#X connect 25 0 13 0;
#X connect 26 0 13 0;
#X connect 27 0 13 0;
#X connect 28 0 13 0;
#X connect 29 0 13 0;
#X connect 30 0 13 0;
#X connect 31 0 13 0;
#X connect 33 0 13 0;
#X connect 34 0 13 0;
#X connect 35 0 13 0;
#X connect 36 0 13 0;
