#N canvas 324 356 450 300 10;
#X obj 56 197 h.output~;
#X obj 56 144 *~ 0.1;
#X obj 56 122 hoc.paf~ 440 10;
#X text 17 14 PAF synthesis from F04 WaveshapingPulse;
#X floatatom 56 99 5 20 5000 0 - - -, f 5;
#X floatatom 158 99 5 0 100 0 - - -, f 5;
#X text 238 121 arg1/in1 : frequence;
#X text 238 135 arg2/in2 : spectrum;
#X connect 1 0 0 0;
#X connect 1 0 0 1;
#X connect 2 0 1 0;
#X connect 4 0 2 0;
#X connect 5 0 2 1;
