#N canvas 639 301 450 300 10;
#X obj 155 33 loadbang;
#X obj 92 215 metro;
#X obj 155 53 \$1;
#X obj 152 116 clip 1 2000;
#X obj 216 49 inlet time;
#X obj 90 108 loadbang;
#X obj 119 163 random;
#X msg 154 95 100;
#X obj 155 74 sel 0;
#X obj 92 47 loadbang;
#X obj 92 240 outlet;
#X obj 119 191 +;
#X obj 90 129 metro 50;
#X obj 161 140 / 4;
#X connect 0 0 2 0;
#X connect 1 0 10 0;
#X connect 2 0 8 0;
#X connect 3 0 6 1;
#X connect 3 0 13 0;
#X connect 4 0 3 0;
#X connect 5 0 12 0;
#X connect 6 0 11 0;
#X connect 7 0 3 0;
#X connect 8 0 7 0;
#X connect 8 1 3 0;
#X connect 9 0 1 0;
#X connect 11 0 1 1;
#X connect 12 0 6 0;
#X connect 13 0 11 1;
