#N canvas 368 312 348 211 10;
#X text 8 -8 Simple flanger;
#X obj 16 48 hoc.flanger~ 0.4 10 0.7;
#X text 165 115 inlet2 & arg1 : frequence;
#X text 168 130 inlet3 & arg2 : depth;
#X text 170 144 inlet4 & arg3 : feedback;
#X text 162 102 inlet1 : signal;
#X msg 164 34 \; pd dsp 1;
#X obj 164 12 loadbang;
#X obj 15 77 dac~;
#N canvas 1 87 450 300 bursts 0;
#N canvas 1 97 450 300 burst 0;
#X obj 22 60 noise~;
#X obj 23 120 *~;
#X obj 80 -26 loadbang;
#X obj 134 -24 bng 15 250 50 0 empty empty empty 17 7 0 10 -262144
-1 -1;
#X msg 92 79 1;
#X obj 48 77 del 40;
#X obj 78 57 t b b;
#X msg 48 99 0;
#X obj 76 107 hoc.adsr~ 1 15 0.1 200;
#X obj 22 154 outlet~;
#X obj 79 40 sel 0;
#X obj 79 18 random 6;
#X obj 79 -4 metro 50;
#X connect 0 0 1 0;
#X connect 1 0 9 0;
#X connect 2 0 12 0;
#X connect 3 0 12 0;
#X connect 4 0 8 0;
#X connect 5 0 7 0;
#X connect 6 0 5 0;
#X connect 6 1 4 0;
#X connect 7 0 8 0;
#X connect 8 0 1 1;
#X connect 10 0 6 0;
#X connect 11 0 10 0;
#X connect 12 0 11 0;
#X restore 38 55 pd burst;
#N canvas 1 92 450 300 burst 0;
#X obj 22 60 noise~;
#X obj 23 120 *~;
#X obj 80 -26 loadbang;
#X obj 134 -24 bng 15 250 50 0 empty empty empty 17 7 0 10 -262144
-1 -1;
#X msg 92 79 1;
#X obj 48 77 del 40;
#X obj 78 57 t b b;
#X msg 48 99 0;
#X obj 76 107 hoc.adsr~ 1 15 0.1 200;
#X obj 22 154 outlet~;
#X obj 79 40 sel 0;
#X obj 79 18 random 6;
#X obj 79 -4 metro 50;
#X connect 0 0 1 0;
#X connect 1 0 9 0;
#X connect 2 0 12 0;
#X connect 3 0 12 0;
#X connect 4 0 8 0;
#X connect 5 0 7 0;
#X connect 6 0 5 0;
#X connect 6 1 4 0;
#X connect 7 0 8 0;
#X connect 8 0 1 1;
#X connect 10 0 6 0;
#X connect 11 0 10 0;
#X connect 12 0 11 0;
#X restore 94 55 pd burst;
#N canvas 1 92 450 300 burst 0;
#X obj 22 60 noise~;
#X obj 23 120 *~;
#X obj 80 -26 loadbang;
#X obj 134 -24 bng 15 250 50 0 empty empty empty 17 7 0 10 -262144
-1 -1;
#X msg 92 79 1;
#X obj 48 77 del 40;
#X obj 78 57 t b b;
#X msg 48 99 0;
#X obj 76 107 hoc.adsr~ 1 15 0.1 200;
#X obj 22 154 outlet~;
#X obj 79 40 sel 0;
#X obj 79 18 random 6;
#X obj 79 -4 metro 50;
#X connect 0 0 1 0;
#X connect 1 0 9 0;
#X connect 2 0 12 0;
#X connect 3 0 12 0;
#X connect 4 0 8 0;
#X connect 5 0 7 0;
#X connect 6 0 5 0;
#X connect 6 1 4 0;
#X connect 7 0 8 0;
#X connect 8 0 1 1;
#X connect 10 0 6 0;
#X connect 11 0 10 0;
#X connect 12 0 11 0;
#X restore 150 55 pd burst;
#N canvas 1 92 450 300 burst 0;
#X obj 22 60 noise~;
#X obj 23 120 *~;
#X obj 80 -26 loadbang;
#X obj 134 -24 bng 15 250 50 0 empty empty empty 17 7 0 10 -262144
-1 -1;
#X msg 92 79 1;
#X obj 48 77 del 40;
#X obj 78 57 t b b;
#X msg 48 99 0;
#X obj 76 107 hoc.adsr~ 1 15 0.1 200;
#X obj 22 154 outlet~;
#X obj 79 40 sel 0;
#X obj 79 18 random 6;
#X obj 79 -4 metro 50;
#X connect 0 0 1 0;
#X connect 1 0 9 0;
#X connect 2 0 12 0;
#X connect 3 0 12 0;
#X connect 4 0 8 0;
#X connect 5 0 7 0;
#X connect 6 0 5 0;
#X connect 6 1 4 0;
#X connect 7 0 8 0;
#X connect 8 0 1 1;
#X connect 10 0 6 0;
#X connect 11 0 10 0;
#X connect 12 0 11 0;
#X restore 206 55 pd burst;
#X obj 39 104 outlet~;
#X obj 39 84 *~ 0.2;
#X connect 0 0 5 0;
#X connect 1 0 5 0;
#X connect 2 0 5 0;
#X connect 3 0 5 0;
#X connect 5 0 4 0;
#X restore 15 26 pd bursts;
#X connect 1 0 8 0;
#X connect 1 0 8 1;
#X connect 7 0 6 0;
#X connect 9 0 1 0;
