#N canvas 1 57 273 243 10;
#X obj 31 24 keyname;
#X msg 77 70 1;
#X obj 31 98 spigot;
#X msg 112 69 0;
#X obj 31 120 sel 1;
#X obj 31 142 outlet;
#X obj 77 48 sel \$1;
#X connect 0 0 2 0;
#X connect 0 1 6 0;
#X connect 1 0 2 1;
#X connect 2 0 4 0;
#X connect 3 0 2 1;
#X connect 4 0 5 0;
#X connect 6 0 1 0;
#X connect 6 1 3 0;
