#N canvas 297 157 668 456 10;
#X obj 94 324 lop~;
#X obj 94 207 -~;
#X obj 94 185 dbtorms~;
#X obj 94 229 *~;
#X obj 94 251 +~;
#X obj 166 162 + 100;
#X obj 166 184 dbtorms;
#X obj 166 133 inlet threshold;
#X obj 284 133 inlet ratio;
#X obj 284 155 swap 1;
#X obj 284 177 /;
#X obj 369 176 /;
#X obj 369 132 inlet env;
#X obj 369 154 swap 1000;
#X obj 201 88 loadbang;
#X obj 201 110 \$1;
#X obj 317 86 loadbang;
#X obj 317 108 \$2;
#X obj 479 85 loadbang;
#X obj 479 107 \$3;
#X obj 94 163 env~ 512;
#X obj 29 72 inlet~;
#X obj 28 367 *~;
#X obj 28 389 outlet~;
#X obj 479 128 clip 1 1000;
#X obj 56 114 hipp~ 20;
#X obj 56 136 lop~ 10000;
#X text 189 291 Inspiré de http://designingsound.org/2013/06/tutorial-a-compressor-in-pure-data/
;
#X connect 0 0 22 1;
#X connect 1 0 3 0;
#X connect 2 0 1 0;
#X connect 3 0 4 0;
#X connect 4 0 0 0;
#X connect 5 0 6 0;
#X connect 6 0 1 1;
#X connect 6 0 4 1;
#X connect 7 0 5 0;
#X connect 8 0 9 0;
#X connect 9 0 10 0;
#X connect 9 1 10 1;
#X connect 10 0 3 1;
#X connect 11 0 0 1;
#X connect 12 0 13 0;
#X connect 13 0 11 0;
#X connect 13 1 11 1;
#X connect 14 0 15 0;
#X connect 15 0 5 0;
#X connect 16 0 17 0;
#X connect 17 0 9 0;
#X connect 18 0 19 0;
#X connect 19 0 24 0;
#X connect 20 0 2 0;
#X connect 21 0 22 0;
#X connect 21 0 25 0;
#X connect 22 0 23 0;
#X connect 24 0 13 0;
#X connect 25 0 26 0;
#X connect 26 0 20 0;
