#N canvas 304 90 545 626 10;
#X obj 65 356 line;
#X obj 65 334 pack f f;
#X obj 65 259 metro;
#X obj 100 15 loadbang;
#X obj 100 37 \$1;
#X obj 100 59 sel 0;
#X obj 100 104 clip 0.0001 20;
#X msg 100 80 4;
#X obj 170 21 inlet frequence;
#X obj 97 202 /;
#X obj 97 155 t b f;
#X msg 97 178 1;
#X obj 97 129 * 0.001;
#X obj 65 284 random 100;
#X obj 17 228 loadbang;
#X obj 65 308 / 100;
#X obj 65 519 pow 2;
#X obj 45 203 bng 15 250 50 0 empty empty empty 17 7 0 10 -262144 -1
-1;
#X obj 65 494 +;
#X obj 97 474 / 100;
#X obj 65 382 t f b;
#X obj 115 429 div 2;
#X obj 97 451 -;
#X obj 425 89 inlet tremblote;
#X obj 341 94 loadbang;
#X obj 341 138 sel 0;
#X msg 341 159 0;
#X obj 341 184 clip 0 1;
#X obj 341 211 * 50;
#X obj 97 409 random;
#X obj 209 346 loadbang;
#X obj 209 390 sel 0;
#X obj 293 341 inlet power;
#X obj 209 436 clip 0 5;
#X msg 209 411 2;
#X obj 65 591 outlet;
#X obj 5 147 inlet reset;
#X obj 341 116 \$3;
#X obj 209 368 \$2;
#X obj 66 543 pack f f;
#X obj 65 569 line;
#X connect 0 0 20 0;
#X connect 1 0 0 0;
#X connect 2 0 13 0;
#X connect 3 0 4 0;
#X connect 4 0 5 0;
#X connect 5 0 7 0;
#X connect 5 1 6 0;
#X connect 6 0 12 0;
#X connect 7 0 6 0;
#X connect 8 0 6 0;
#X connect 9 0 2 1;
#X connect 9 0 1 1;
#X connect 10 0 11 0;
#X connect 10 1 9 1;
#X connect 11 0 9 0;
#X connect 12 0 10 0;
#X connect 13 0 15 0;
#X connect 14 0 2 0;
#X connect 15 0 1 0;
#X connect 16 0 39 0;
#X connect 17 0 2 0;
#X connect 18 0 16 0;
#X connect 19 0 18 1;
#X connect 20 0 18 0;
#X connect 20 1 29 0;
#X connect 21 0 22 1;
#X connect 21 0 39 1;
#X connect 22 0 19 0;
#X connect 23 0 27 0;
#X connect 24 0 37 0;
#X connect 25 0 26 0;
#X connect 25 1 27 0;
#X connect 26 0 27 0;
#X connect 27 0 28 0;
#X connect 28 0 21 0;
#X connect 28 0 29 1;
#X connect 29 0 22 0;
#X connect 30 0 38 0;
#X connect 31 0 34 0;
#X connect 31 1 33 0;
#X connect 32 0 33 0;
#X connect 33 0 16 1;
#X connect 34 0 33 0;
#X connect 36 0 17 0;
#X connect 37 0 25 0;
#X connect 38 0 31 0;
#X connect 39 0 40 0;
#X connect 40 0 35 0;
