#N canvas -5 181 282 190 10;
#X msg 28 88 6 \$1;
#X obj 28 48 t f b b;
#X obj 74 147 outlet;
#X obj 161 121 pack f \$1;
#X obj 74 89 pack f \$2;
#X msg 74 69 99;
#X msg 164 77 98;
#X obj 28 20 inlet;
#X connect 0 0 2 0;
#X connect 1 0 0 0;
#X connect 1 1 6 0;
#X connect 1 2 5 0;
#X connect 3 0 2 0;
#X connect 4 0 2 0;
#X connect 5 0 4 0;
#X connect 6 0 3 0;
#X connect 7 0 1 0;
