#N canvas 108 -3 749 736 10;
#X obj 32 60 / 2;
#X obj 63 60 % 2;
#X floatatom 32 100 5 0 0 0 - - -;
#X obj 32 80 i;
#X obj 32 144 / 2;
#X obj 32 165 i;
#X obj 65 142 % 2;
#X floatatom 32 184 5 0 0 0 - - -;
#X obj 33 231 / 2;
#X obj 60 231 % 2;
#X obj 33 251 i;
#X floatatom 32 271 5 0 0 0 - - -;
#X obj 32 312 / 2;
#X obj 59 312 % 2;
#X obj 32 334 i;
#X floatatom 31 356 5 0 0 0 - - -;
#X obj 31 395 / 2;
#X obj 58 395 % 2;
#X obj 31 415 i;
#X floatatom 31 435 5 0 0 0 - - -;
#X obj 31 473 / 2;
#X obj 58 473 % 2;
#X obj 31 492 i;
#X floatatom 30 512 5 0 0 0 - - -;
#X obj 30 550 / 2;
#X obj 57 550 % 2;
#X obj 30 569 i;
#X floatatom 31 591 5 0 0 0 - - -;
#X obj 58 627 % 2;
#X obj 33 41 t f f;
#X obj 32 207 t f f;
#X obj 32 291 t f f;
#X obj 31 375 t f f;
#X obj 31 453 t f f;
#X obj 31 530 t f f;
#X obj 32 120 t f f;
#X obj 27 701 outlet;
#X obj 72 701 outlet;
#X obj 117 701 outlet;
#X obj 162 701 outlet;
#X obj 206 701 outlet;
#X obj 251 701 outlet;
#X obj 296 701 outlet;
#X obj 341 701 outlet;
#X text 94 95 inspiré de http://forum.pdpatchrepo.info/user/enrico
;
#X obj 33 19 inlet;
#X connect 0 0 3 0;
#X connect 1 0 36 0;
#X connect 2 0 35 0;
#X connect 3 0 2 0;
#X connect 4 0 5 0;
#X connect 5 0 7 0;
#X connect 6 0 37 0;
#X connect 7 0 30 0;
#X connect 8 0 10 0;
#X connect 9 0 38 0;
#X connect 10 0 11 0;
#X connect 11 0 31 0;
#X connect 12 0 14 0;
#X connect 13 0 39 0;
#X connect 14 0 15 0;
#X connect 15 0 32 0;
#X connect 16 0 18 0;
#X connect 17 0 40 0;
#X connect 18 0 19 0;
#X connect 19 0 33 0;
#X connect 20 0 22 0;
#X connect 21 0 41 0;
#X connect 22 0 23 0;
#X connect 23 0 34 0;
#X connect 24 0 26 0;
#X connect 25 0 42 0;
#X connect 26 0 27 0;
#X connect 27 0 28 0;
#X connect 28 0 43 0;
#X connect 29 0 0 0;
#X connect 29 1 1 0;
#X connect 30 0 8 0;
#X connect 30 1 9 0;
#X connect 31 0 12 0;
#X connect 31 1 13 0;
#X connect 32 0 16 0;
#X connect 32 1 17 0;
#X connect 33 0 20 0;
#X connect 33 1 21 0;
#X connect 34 0 24 0;
#X connect 34 1 25 0;
#X connect 35 0 4 0;
#X connect 35 1 6 0;
#X connect 45 0 29 0;
