#N canvas 0 29 1351 690 10;
#X floatatom 786 150 5 0 0 0 env - -, f 5;
#N canvas 0 50 450 300 cloud 0;
#X obj 33 221 t b f;
#X obj 33 246 del;
#X obj 58 158 + 200;
#X obj 59 83 loadbang;
#X obj 33 282 outlet;
#X obj 210 33 inlet minimum;
#X obj 58 114 random 30;
#X obj 25 88 bng 15 250 50 0 empty empty empty 17 7 0 10 -262144 -1
-1;
#X obj 264 96 *;
#X floatatom 261 135 5 0 0 0 - - -, f 5;
#X obj 332 139 / 24000;
#X floatatom 331 164 5 0 0 0 - - -, f 5;
#X obj 152 83 clip 50 1000;
#X obj 210 117 / 2;
#X connect 0 0 1 0;
#X connect 0 1 1 1;
#X connect 1 0 4 0;
#X connect 1 0 6 0;
#X connect 2 0 0 0;
#X connect 3 0 6 0;
#X connect 5 0 8 0;
#X connect 5 0 8 1;
#X connect 5 0 12 0;
#X connect 5 0 13 0;
#X connect 6 0 2 0;
#X connect 7 0 6 0;
#X connect 8 0 9 0;
#X connect 8 0 10 0;
#X connect 10 0 11 0;
#X connect 12 0 6 1;
#X connect 13 0 2 1;
#X restore 445 63 pd cloud;
#X obj 445 84 f;
#X floatatom 567 104 5 0 0 0 - - -, f 5;
#X obj 445 152 pack f f;
#X obj 445 106 pack f 1;
#X obj 219 98 inlet~;
#X obj 221 494 outlet~;
#X obj 399 494 outlet~;
#X obj 560 24 inlet time;
#X obj 785 121 inlet ramp;
#X obj 665 24 inlet feedback;
#X obj 660 143 s \$0-fdbk;
#X obj 712 78 \$2;
#X obj 712 55 loadbang;
#X obj 660 121 clip 0 1;
#X obj 559 67 clip 1 1000;
#X obj 649 50 loadbang;
#X obj 875 114 loadbang;
#X obj 875 137 \$3;
#X obj 867 158 clip 1 500;
#X obj 649 73 \$1;
#X obj 445 175 route 1 2 3 4;
#X obj 445 129 poly 4 1;
#X floatatom 946 275 5 0 0 0 - - -, f 5;
#X obj 995 222 * -1;
#X obj 1000 135 inlet;
#X obj 278 310 abstractions/randtime;
#X obj 443 312 abstractions/randtime;
#X obj 597 330 abstractions/randtime;
#X obj 771 322 abstractions/randtime;
#X obj 441 286 t f f;
#X obj 597 307 t f f, f 6;
#X obj 769 296 t f f;
#X obj 220 371 abstractions/retr4shuf~;
#X obj 398 365 abstractions/retr4shuf~;
#X obj 745 366 abstractions/retr4shuf~;
#X obj 576 365 abstractions/retr4shuf~;
#X obj 1055 153 \$4;
#X obj 1053 126 loadbang;
#X connect 0 0 34 2;
#X connect 0 0 35 2;
#X connect 0 0 36 2;
#X connect 0 0 37 2;
#X connect 1 0 2 0;
#X connect 2 0 5 0;
#X connect 3 0 2 1;
#X connect 3 0 1 0;
#X connect 4 0 22 0;
#X connect 5 0 23 0;
#X connect 6 0 34 0;
#X connect 6 0 35 0;
#X connect 6 0 36 0;
#X connect 6 0 37 0;
#X connect 9 0 16 0;
#X connect 10 0 0 0;
#X connect 11 0 15 0;
#X connect 13 0 15 0;
#X connect 14 0 13 0;
#X connect 15 0 12 0;
#X connect 16 0 3 0;
#X connect 17 0 21 0;
#X connect 18 0 19 0;
#X connect 19 0 20 0;
#X connect 20 0 0 0;
#X connect 21 0 16 0;
#X connect 22 0 27 0;
#X connect 22 0 34 1;
#X connect 22 1 31 0;
#X connect 22 2 32 0;
#X connect 22 3 33 0;
#X connect 23 0 4 0;
#X connect 23 1 4 1;
#X connect 24 0 34 4;
#X connect 24 0 35 4;
#X connect 24 0 36 4;
#X connect 24 0 37 4;
#X connect 25 0 24 0;
#X connect 26 0 25 0;
#X connect 31 0 28 0;
#X connect 31 1 35 1;
#X connect 32 0 29 0;
#X connect 32 1 37 1;
#X connect 33 0 30 0;
#X connect 33 1 36 1;
#X connect 34 0 7 0;
#X connect 35 0 8 0;
#X connect 36 0 8 0;
#X connect 37 0 7 0;
#X connect 38 0 25 0;
#X connect 39 0 38 0;
