#N canvas 116 198 450 300 10;
#X obj 28 49 pack 0 10;
#X obj 30 181 *~;
#X obj 28 73 vline~;
#X obj 28 28 mtof;
#X obj 31 204 outlet~;
#X obj 28 -26 inlet;
#X obj 28 4 unpack f f;
#X obj 29 96 hoc.triangle~;
#X obj 135 65 *~ 4000;
#X obj 135 86 +~ 50;
#X obj 30 138 vcf~ 9;
#X obj 29 117 *~ 0.5;
#X obj 137 46 hoc.adsr~ 100 50 0.6 400;
#X obj 134 121 hoc.adsr~ 1 40 0.5 400;
#X connect 0 0 2 0;
#X connect 1 0 4 0;
#X connect 2 0 7 0;
#X connect 3 0 0 0;
#X connect 5 0 6 0;
#X connect 6 0 3 0;
#X connect 6 1 12 0;
#X connect 6 1 13 0;
#X connect 7 0 11 0;
#X connect 8 0 9 0;
#X connect 9 0 10 1;
#X connect 10 0 1 0;
#X connect 11 0 10 0;
#X connect 12 0 8 0;
#X connect 13 0 1 1;
