#N canvas 181 346 785 365 10;
#X obj 130 121 vd~ \$0-flange;
#X obj 126 34 delwrite~ \$0-flange 50;
#X obj 115 150 +~;
#X obj 115 9 inlet~;
#X obj 115 199 outlet~;
#X obj 274 135 *~ -1;
#X obj 275 159 +~ 1;
#X obj 290 185 min~;
#X obj 273 78 line~;
#X obj 356 105 line~;
#X obj 290 208 *~;
#X obj 356 16 loadbang;
#X obj 356 58 sel 0;
#X obj 413 17 inlet depth;
#X obj 332 -7 inlet freq;
#X obj 356 37 \$2;
#X obj 273 101 phasor~;
#X obj 273 -6 loadbang;
#X obj 273 15 \$1;
#X obj 163 100 *~;
#X obj 575 71 line~;
#X obj 273 35 sel 0;
#X obj 575 50 pack 0.2 20;
#X obj 273 55 pack 0.2 20;
#X obj 356 82 pack 30 20;
#X obj 498 -5 loadbang;
#X obj 498 16 \$3;
#X obj 575 8 inlet fdbk;
#X text 317 146 pour creer une onde triangle;
#X text 474 98 inlet2 & arg1 : frequence;
#X text 477 113 inlet3 & arg2 : depth;
#X text 478 127 inlet4 & arg3 : feedback;
#X obj 498 37 moses 0.01;
#X obj 576 31 clip 0 0.99;
#X connect 0 0 2 1;
#X connect 0 0 19 0;
#X connect 2 0 4 0;
#X connect 3 0 2 0;
#X connect 3 0 1 0;
#X connect 5 0 6 0;
#X connect 6 0 7 1;
#X connect 7 0 10 0;
#X connect 8 0 16 0;
#X connect 9 0 10 1;
#X connect 10 0 0 0;
#X connect 11 0 15 0;
#X connect 12 0 24 0;
#X connect 12 1 24 0;
#X connect 13 0 24 0;
#X connect 14 0 23 0;
#X connect 15 0 12 0;
#X connect 16 0 5 0;
#X connect 16 0 7 0;
#X connect 17 0 18 0;
#X connect 18 0 21 0;
#X connect 19 0 1 0;
#X connect 20 0 19 1;
#X connect 21 0 23 0;
#X connect 21 1 23 0;
#X connect 22 0 20 0;
#X connect 23 0 8 0;
#X connect 24 0 9 0;
#X connect 25 0 26 0;
#X connect 26 0 32 0;
#X connect 27 0 33 0;
#X connect 32 1 33 0;
#X connect 33 0 22 0;
