#N canvas 0 29 450 300 10;
#X msg 338 120 \; pd dsp 1;
#X obj 338 96 loadbang;
#X obj 55 114 hoc.play~ samples/voice.wav;
#X obj 135 80 bng 15 250 50 0 empty empty empty 17 7 0 10 -262144 -1
-1;
#X obj 55 65 loadbang;
#X obj 54 165 hoc.disto~ 0.5;
#X obj 55 227 dac~;
#X text 8 9 Simple distortion;
#X text 224 181 inlet1/arg1 : disto amount 0 -1;
#X connect 1 0 0 0;
#X connect 2 0 5 0;
#X connect 2 1 3 0;
#X connect 3 0 2 0;
#X connect 4 0 2 0;
#X connect 5 0 6 0;
#X connect 5 0 6 1;
