#N canvas 21 29 706 418 10;
#X obj 25 157 mtof;
#X obj 25 129 makenote 1 400;
#X obj 25 181 hoc.square~;
#X obj 25 211 *~;
#X obj 24 256 dac~;
#X obj 25 100 hoc.seq8 60 60 62 60 63 60 65 63;
#X obj 25 232 *~ 0.3;
#X text 6 5 8 steps sequenceur;
#X text 270 154 inlets1..8/args1..8: note midi;
#X text 270 166 dernier inlet : tempo en ms (defaut:500);
#X connect 0 0 2 0;
#X connect 1 0 0 0;
#X connect 1 1 3 1;
#X connect 2 0 3 0;
#X connect 3 0 6 0;
#X connect 5 0 1 0;
#X connect 6 0 4 0;
#X connect 6 0 4 1;
