#N canvas 160 29 1102 695 10;
#X obj 219 524 makenote 120 500;
#X obj 101 251 metro;
#X obj 53 148 f;
#X floatatom 53 129 5 0 0 0 periode - -, f 5;
#X obj 341 -18 vsl 15 128 0 1 0 0 empty empty random_tempo 0 -9 0 10
-262144 -1 -1 0 1;
#X obj 134 52 metro 100;
#X obj 134 29 loadbang;
#X obj 134 74 random;
#X obj 134 199 +;
#X obj 134 147 *;
#X obj 134 118 -;
#X obj 152 97 / 1.2;
#X obj 134 171 t b f;
#X obj 133 226 change;
#X obj 65 224 loadbang;
#X obj 165 125 t b f;
#X msg 166 328 60;
#X msg 195 328 62;
#X msg 225 328 64;
#X msg 254 328 65;
#X msg 284 328 67;
#X msg 314 328 69;
#X msg 344 328 71;
#X obj 166 281 random 7;
#X obj 166 303 sel 0 1 2 3 4 5 6;
#X obj 249 106 vsl 15 128 0 1 0 0 empty empty duration 0 -9 0 10 -262144
-1 -1 12700 1;
#X obj 249 413 + 0.1;
#X obj 249 435 t b f;
#X obj 248 460 *;
#X obj 172 384 f;
#X obj 34 293 random 12;
#X obj 34 315 + 60;
#X msg 395 323 60;
#X msg 424 323 62;
#X msg 454 323 64;
#X msg 483 323 66;
#X msg 513 323 68;
#X msg 543 323 70;
#X obj 396 300 sel 0 1 2 3 4 5;
#X obj 396 278 random 6;
#X obj 425 368 f;
#X text 61 317 chromatique;
#X obj 470 168 s;
#X obj 396 254 r par_ton;
#X msg 508 144 symbol par_ton;
#X obj 167 260 r diatonique;
#X msg 508 121 symbol diatonique;
#X obj 34 273 r chromatique;
#X msg 508 98 symbol chromatique;
#X obj 425 497 +;
#X floatatom 166 -8 5 0 0 0 pitch - -, f 5;
#X msg 508 74 symbol just_c;
#X obj -69 271 r just_c;
#X msg -69 298 60;
#X obj 219 559 pack f f;
#X floatatom 294 478 5 0 0 0 - - -, f 5;
#X obj 249 391 * 0.9;
#X obj 53 107 /;
#X obj 53 60 t b f;
#X msg 53 83 1;
#X floatatom 53 23 5 0 0 0 BPM - -, f 5;
#X obj 53 -61 inlet bpm;
#X obj -34 -6 loadbang;
#X msg -34 16 120;
#X obj 246 -59 inlet duration;
#X msg 248 66 1;
#X obj 247 46 loadbang;
#X obj 405 7 loadbang;
#X obj 375 -80 inlet random_tempo;
#X obj 643 118 loadbang;
#X obj 486 -38 inlet note_mode;
#X obj 486 -16 sel 1 2 3 4;
#X obj 539 39 print modes:;
#X msg 519 14 1:just_c 2:chromatique 3:diatonique 4:parton;
#X obj 150 -58 inlet pitch;
#X obj 217 584 outlet;
#X msg 406 27 0;
#X obj 709 63 inlet trigger;
#X obj 53 40 / 60000;
#X connect 0 0 54 0;
#X connect 0 1 54 1;
#X connect 1 0 42 0;
#X connect 2 0 7 1;
#X connect 2 0 11 0;
#X connect 2 0 8 0;
#X connect 3 0 2 0;
#X connect 4 0 15 0;
#X connect 5 0 7 0;
#X connect 6 0 5 0;
#X connect 7 0 10 0;
#X connect 8 0 13 0;
#X connect 9 0 12 0;
#X connect 10 0 9 0;
#X connect 11 0 10 1;
#X connect 12 0 8 0;
#X connect 12 1 8 1;
#X connect 13 0 1 1;
#X connect 13 0 28 0;
#X connect 14 0 1 0;
#X connect 15 0 9 0;
#X connect 15 1 9 1;
#X connect 16 0 29 0;
#X connect 17 0 29 0;
#X connect 18 0 29 0;
#X connect 19 0 29 0;
#X connect 20 0 29 0;
#X connect 21 0 29 0;
#X connect 22 0 29 0;
#X connect 23 0 24 0;
#X connect 24 0 16 0;
#X connect 24 1 17 0;
#X connect 24 2 18 0;
#X connect 24 3 19 0;
#X connect 24 4 20 0;
#X connect 24 5 21 0;
#X connect 24 6 22 0;
#X connect 25 0 56 0;
#X connect 26 0 27 0;
#X connect 27 0 28 0;
#X connect 27 1 28 1;
#X connect 28 0 0 2;
#X connect 28 0 55 0;
#X connect 29 0 49 0;
#X connect 30 0 31 0;
#X connect 31 0 49 0;
#X connect 32 0 40 0;
#X connect 33 0 40 0;
#X connect 34 0 40 0;
#X connect 35 0 40 0;
#X connect 36 0 40 0;
#X connect 37 0 40 0;
#X connect 38 0 32 0;
#X connect 38 1 33 0;
#X connect 38 2 34 0;
#X connect 38 3 35 0;
#X connect 38 4 36 0;
#X connect 38 5 37 0;
#X connect 39 0 38 0;
#X connect 40 0 49 0;
#X connect 43 0 39 0;
#X connect 44 0 42 1;
#X connect 45 0 23 0;
#X connect 46 0 42 1;
#X connect 47 0 30 0;
#X connect 48 0 42 1;
#X connect 49 0 0 0;
#X connect 50 0 49 1;
#X connect 51 0 42 1;
#X connect 52 0 53 0;
#X connect 53 0 49 0;
#X connect 54 0 75 0;
#X connect 56 0 26 0;
#X connect 57 0 3 0;
#X connect 58 0 59 0;
#X connect 58 1 57 1;
#X connect 59 0 57 0;
#X connect 60 0 78 0;
#X connect 61 0 60 0;
#X connect 62 0 63 0;
#X connect 63 0 60 0;
#X connect 64 0 25 0;
#X connect 65 0 25 0;
#X connect 66 0 65 0;
#X connect 67 0 76 0;
#X connect 68 0 4 0;
#X connect 69 0 46 0;
#X connect 70 0 71 0;
#X connect 71 0 51 0;
#X connect 71 1 48 0;
#X connect 71 2 46 0;
#X connect 71 3 44 0;
#X connect 71 4 73 0;
#X connect 73 0 72 0;
#X connect 74 0 50 0;
#X connect 76 0 4 0;
#X connect 77 0 1 0;
#X connect 78 0 58 0;
