#N canvas 418 140 564 406 10;
#X obj 38 194 hoc.lesser;
#X obj 131 194 hoc.higher;
#X obj 202 42 sel 0 1, f 13;
#X obj 246 63 t b b;
#X msg 157 116 1;
#X msg 190 115 0;
#X obj 20 348 hoc.scale 0 1 0 1, f 20;
#X obj 41 234 f;
#X obj 113 235 f;
#X obj 158 66 t b b;
#X obj 73 268 outlet;
#X obj 145 266 outlet;
#X obj 20 32 inlet stream;
#X obj 202 17 inlet onoff;
#X obj 20 379 outlet stream;
#X obj 228 235 \$1;
#X obj 265 236 \$2;
#X obj 249 187 loadbang;
#X obj 265 258 sel 0;
#X msg 257 282 1;
#X obj 102 305 inlet minOut;
#X obj 129 323 inlet maxOut;
#X obj 38 157 spigot 1;
#X connect 0 0 7 1;
#X connect 1 0 8 1;
#X connect 2 0 9 0;
#X connect 2 1 3 0;
#X connect 3 0 4 0;
#X connect 3 1 1 1;
#X connect 3 1 0 1;
#X connect 4 0 22 1;
#X connect 5 0 22 1;
#X connect 6 0 14 0;
#X connect 7 0 10 0;
#X connect 7 0 6 1;
#X connect 8 0 11 0;
#X connect 8 0 6 2;
#X connect 9 0 8 0;
#X connect 9 0 7 0;
#X connect 9 1 5 0;
#X connect 12 0 6 0;
#X connect 12 0 22 0;
#X connect 13 0 2 0;
#X connect 15 0 6 3;
#X connect 16 0 18 0;
#X connect 17 0 15 0;
#X connect 17 0 16 0;
#X connect 18 0 19 0;
#X connect 18 1 6 4;
#X connect 19 0 6 4;
#X connect 20 0 6 3;
#X connect 21 0 6 4;
#X connect 22 0 0 0;
#X connect 22 0 1 0;
