#N canvas 219 313 450 300 10;
#X obj 31 140 hoc.sample.disco~;
#X text 5 0 4 samples pour le groupe de disco...;
#X obj 32 50 metro 500;
#X obj 32 28 loadbang;
#X obj 58 71 + 1;
#X obj 31 73 0;
#X obj 58 92 mod 4;
#X obj 31 113 sel 0 1 2 3;
#X obj 31 178 dac~;
#X msg 184 88 \; pd dsp 1;
#X obj 184 69 loadbang;
#X connect 0 0 8 0;
#X connect 0 1 8 1;
#X connect 0 2 8 0;
#X connect 0 3 8 1;
#X connect 2 0 5 0;
#X connect 3 0 2 0;
#X connect 4 0 6 0;
#X connect 5 0 4 0;
#X connect 5 0 7 0;
#X connect 6 0 5 1;
#X connect 7 0 0 0;
#X connect 7 1 0 1;
#X connect 7 2 0 2;
#X connect 7 3 0 3;
#X connect 10 0 9 0;
