#N canvas 93 40 652 404 10;
#X obj 83 226 +~;
#X obj 332 -19 inlet mod_depth;
#X obj 324 12 \$3;
#X obj 319 91 clip 0 5000;
#X obj 262 -11 loadbang;
#X obj 82 252 osc~;
#X obj 100 174 osc~;
#X obj 100 201 *~;
#X obj 21 -29 inlet freq;
#X obj 23 167 line~;
#X msg 23 146 \$1 5;
#X obj 99 151 line~;
#X msg 99 130 \$1 5;
#X obj 42 -8 \$1;
#X obj 101 -17 loadbang;
#X obj 98 108 *;
#X obj 168 17 \$2;
#X obj 168 -18 inlet ratio;
#X obj 82 276 outlet~;
#X obj 168 38 sel 0;
#X msg 168 60 2.333;
#X obj 200 82 clip 0.01 16;
#X obj 21 76 clip 20 20000;
#X obj 41 14 sel 0;
#X msg 39 36 440;
#X obj 168 105 t b f;
#X obj 330 36 sel 0;
#X msg 330 59 400;
#X obj 160 237 delwrite~ \$0-s 3e-05;
#X obj 159 151 delread~ \$0-s 3e-05;
#X obj 160 213 *~ 0;
#X obj 479 -18 inlet feedback;
#X obj 473 28 \$4;
#X obj 443 104 pow 2;
#X obj 444 129 * 1000;
#X obj 453 75 clip 0 1;
#X obj 156 182 line~;
#X obj 270 124 pack f 5;
#X connect 0 0 5 0;
#X connect 1 0 3 0;
#X connect 2 0 26 0;
#X connect 3 0 37 0;
#X connect 4 0 2 0;
#X connect 5 0 18 0;
#X connect 6 0 7 0;
#X connect 6 0 30 0;
#X connect 7 0 0 1;
#X connect 8 0 22 0;
#X connect 9 0 0 0;
#X connect 10 0 9 0;
#X connect 11 0 6 0;
#X connect 12 0 11 0;
#X connect 13 0 23 0;
#X connect 14 0 13 0;
#X connect 14 0 16 0;
#X connect 15 0 12 0;
#X connect 16 0 19 0;
#X connect 17 0 21 0;
#X connect 19 0 20 0;
#X connect 19 1 21 0;
#X connect 20 0 25 0;
#X connect 21 0 25 0;
#X connect 22 0 10 0;
#X connect 22 0 15 0;
#X connect 23 0 24 0;
#X connect 23 1 22 0;
#X connect 24 0 22 0;
#X connect 25 0 15 0;
#X connect 25 1 15 1;
#X connect 26 0 27 0;
#X connect 26 1 3 0;
#X connect 27 0 3 0;
#X connect 29 0 6 0;
#X connect 30 0 28 0;
#X connect 31 0 32 0;
#X connect 32 0 35 0;
#X connect 33 0 34 0;
#X connect 34 0 30 1;
#X connect 35 0 33 0;
#X connect 36 0 7 1;
#X connect 37 0 36 0;
