#N canvas 157 226 516 361 10;
#X obj 21 88 random 50;
#X obj 21 68 metro 20;
#X obj 21 47 loadbang;
#X obj 21 110 / 100;
#X obj 133 273 hoc.show;
#X obj 21 272 hoc.show;
#X obj 221 155 tgl 15 0 empty empty calibration 17 7 0 10 -262144 -1
-1 0 1;
#X floatatom 177 213 5 0 0 0 - - -, f 5;
#X floatatom 221 213 5 0 0 0 - - -, f 5;
#X text 17 9 Pour calibrer un flux de données manuellement;
#X text 142 40 inlet1: flux;
#X text 140 73 outlet1: valeur minimale actuelle;
#X text 140 86 outlet2: valeur maximale actuelle;
#X text 142 52 inlet4: calibration on(1) ou off (0);
#X text 141 106 arg1/inlet1: valeur minimale de sortie (defaut:0);
#X text 140 118 arg2/inlet2: valeur maximale de sortie (defaut:1);
#X obj 133 181 hoc.calibrate;
#X connect 0 0 3 0;
#X connect 1 0 0 0;
#X connect 2 0 1 0;
#X connect 3 0 5 0;
#X connect 3 0 16 0;
#X connect 6 0 16 3;
#X connect 16 0 4 0;
#X connect 16 1 7 0;
#X connect 16 2 8 0;
