#N canvas 427 387 450 300 10;
#X obj 17 103 dac~;
#X obj 17 74 *~ 0.5;
#X text 19 3 Oscillateur utilisé dans Cruel Temple Kit...;
#X msg 176 74 \; pd dsp 1;
#X obj 176 52 loadbang;
#X obj 18 51 hoc.temple.chaos~ 200;
#X text 104 121 inlet1/arg1: frequence;
#X obj 18 30 key;
#X connect 1 0 0 0;
#X connect 1 0 0 1;
#X connect 4 0 3 0;
#X connect 5 0 1 0;
#X connect 7 0 5 0;
