#N canvas 158 -4 674 592 10;
#X obj 106 324 cpole~;
#X obj 104 378 czero~;
#X obj -22 282 *~ 0.01;
#X obj 33 282 *~ 0.01;
#X obj -4 243 cos~;
#X obj 33 244 cos~;
#X obj 32 222 -~ 0.25;
#X obj 13 173 samplerate~;
#X obj -3 195 /~;
#X obj 93 234 inlet~;
#X obj 103 521 outlet~;
#X obj 128 296 *~;
#X obj 156 297 *~;
#X obj 182 161 *~ -0.1;
#X obj 182 182 expr~ exp($v1);
#X obj 182 203 *~ -1;
#X obj 182 225 +~ 0.9999;
#X obj 181 139 clip~ 0.001 100;
#X obj 181 114 sig~;
#X msg 115 150 bang;
#X obj 153 371 + 1;
#X obj 103 404 /~ 10;
#X obj 185 319 + 1;
#X obj 185 371 *;
#X obj 185 343 t b f;
#X obj 103 474 +~;
#X obj 164 91 + 20;
#X obj 153 347 / 4;
#X obj 185 295 * 16;
#X obj 103 497 /~ 5;
#X obj 153 67 * 20;
#X obj 224 342 * 1;
#X text 282 56 inspiré de audio.examples/H12.peaking.pd;
#X obj 257 -8 inlet resonance;
#X obj 13 150 loadbang;
#X obj 111 -7 inlet cutoff;
#X obj 201 -7 loadbang;
#X obj 201 37 \$2;
#X obj 56 -8 loadbang;
#X obj 103 25 \$1;
#X text 344 100 inlet1: audio in;
#X text 345 114 inlet2/arg1 : cutoff 0/1;
#X text 345 124 inlet3/arg2 : res 0/1;
#X obj -2 125 line~;
#X obj -2 105 pack f 3;
#X obj 102 65 pow 2;
#X obj -1 65 * 5000;
#X obj -2 86 + 20;
#X obj 102 45 clip 0 1;
#X obj 117 441 *~;
#X obj 184 416 line~;
#X obj 185 394 pack f 5;
#X connect 0 0 1 0;
#X connect 0 1 1 1;
#X connect 1 0 21 0;
#X connect 2 0 1 2;
#X connect 3 0 1 3;
#X connect 4 0 2 0;
#X connect 4 0 11 0;
#X connect 5 0 3 0;
#X connect 5 0 12 0;
#X connect 6 0 5 0;
#X connect 7 0 8 1;
#X connect 8 0 6 0;
#X connect 8 0 4 0;
#X connect 9 0 0 0;
#X connect 11 0 0 2;
#X connect 12 0 0 3;
#X connect 13 0 14 0;
#X connect 14 0 15 0;
#X connect 15 0 16 0;
#X connect 16 0 11 1;
#X connect 16 0 12 1;
#X connect 17 0 13 0;
#X connect 18 0 17 0;
#X connect 19 0 7 0;
#X connect 20 0 21 1;
#X connect 21 0 25 0;
#X connect 21 0 49 0;
#X connect 22 0 24 0;
#X connect 23 0 51 0;
#X connect 24 0 23 0;
#X connect 24 1 23 1;
#X connect 25 0 29 0;
#X connect 26 0 18 0;
#X connect 27 0 20 0;
#X connect 28 0 22 0;
#X connect 29 0 10 0;
#X connect 30 0 26 0;
#X connect 30 0 27 0;
#X connect 31 0 23 0;
#X connect 33 0 37 0;
#X connect 34 0 7 0;
#X connect 35 0 39 0;
#X connect 36 0 37 0;
#X connect 37 0 31 0;
#X connect 37 0 30 0;
#X connect 38 0 39 0;
#X connect 39 0 48 0;
#X connect 43 0 8 0;
#X connect 44 0 43 0;
#X connect 45 0 46 0;
#X connect 45 0 28 0;
#X connect 46 0 47 0;
#X connect 47 0 44 0;
#X connect 48 0 45 0;
#X connect 49 0 25 1;
#X connect 50 0 49 1;
#X connect 51 0 50 0;
