#N canvas 0 29 450 300 10;
#X obj 31 188 dac~;
#X obj 30 131 hoc.fm~ 100 2.3333 400;
#X msg 321 79 \; pd dsp 1;
#X obj 321 56 loadbang;
#X text 5 4 Simple synthèse FM;
#X text 244 147 inlet1/arg1 : frequence;
#X text 244 159 inlet2/arg2 : ratio;
#X text 244 170 inlet3/arg3 : mod depth;
#X text 244 181 inlet4/arg4 : feedback 0 - 1;
#X obj 31 159 *~ 0.3;
#X connect 1 0 9 0;
#X connect 3 0 2 0;
#X connect 9 0 0 0;
#X connect 9 0 0 1;
