#N canvas 147 29 986 708 10;
#X floatatom 786 150 5 0 0 0 env - -;
#N canvas 0 50 450 300 cloud 0;
#X obj 33 221 t b f;
#X obj 33 246 del;
#X obj 58 158 + 200;
#X obj 59 83 loadbang;
#X obj 33 282 outlet;
#X obj 210 33 inlet minimum;
#X obj 58 114 random 30;
#X obj 25 88 bng 15 250 50 0 empty empty empty 17 7 0 10 -262144 -1
-1;
#X obj 264 96 *;
#X floatatom 261 135 5 0 0 0 - - -;
#X obj 332 139 / 24000;
#X floatatom 331 164 5 0 0 0 - - -;
#X obj 152 83 clip 50 1000;
#X obj 210 117 / 2;
#X connect 0 0 1 0;
#X connect 0 1 1 1;
#X connect 1 0 4 0;
#X connect 1 0 6 0;
#X connect 2 0 0 0;
#X connect 3 0 6 0;
#X connect 5 0 8 0;
#X connect 5 0 8 1;
#X connect 5 0 12 0;
#X connect 5 0 13 0;
#X connect 6 0 2 0;
#X connect 7 0 6 0;
#X connect 8 0 9 0;
#X connect 8 0 10 0;
#X connect 10 0 11 0;
#X connect 12 0 6 1;
#X connect 13 0 2 1;
#X restore 445 63 pd cloud;
#X obj 445 84 f;
#X floatatom 567 104 5 0 0 0 - - -;
#X obj 445 152 pack f f;
#X obj 395 237 abstractions/retr4shuf~;
#X obj 445 106 pack f 1;
#X obj 445 175 route 1 2;
#X obj 445 129 poly 2 1;
#X obj 227 275 delwrite~ \$0-del1 1000;
#X obj 409 273 delwrite~ \$0-del2 1000;
#X obj 417 422 *~ 0.9;
#X obj 67 275 delwrite~ \$0-del4 1000;
#X obj 587 272 delwrite~ \$0-del5 1000;
#X obj 250 421 *~ 0.9;
#X obj 586 298 * 1.33;
#X obj 417 310 * 1.66;
#X obj 587 367 vd~ \$0-del5 1000;
#X obj 417 377 vd~ \$0-del2 1000;
#X obj 250 374 vd~ \$0-del1 1000;
#X obj 64 366 vd~ \$0-del4 1000;
#X obj 65 344 line~;
#X obj 250 348 line~;
#X obj 417 353 line~;
#X obj 586 343 line~;
#X obj 63 413 *~ 0.9;
#X obj 587 417 *~ 0.9;
#X obj 65 300 * 2.1;
#X obj 626 395 r \$0-fdbk;
#X obj 457 399 r \$0-fdbk;
#X obj 291 399 r \$0-fdbk;
#X obj 102 389 r \$0-fdbk;
#X obj 586 320 pack f 5;
#X obj 417 331 pack f 5;
#X obj 249 326 pack f 5;
#X obj 65 322 pack f 5;
#X obj 219 98 inlet~;
#X obj 220 498 outlet~;
#X obj 398 498 outlet~;
#X obj 560 24 inlet time;
#X obj 785 121 inlet ramp;
#X obj 665 24 inlet feedback;
#X obj 653 152 s \$0-fdbk;
#X obj 712 78 \$2;
#X obj 712 55 loadbang;
#X obj 660 121 clip 0 1;
#X obj 559 67 clip 1 1000;
#X obj 649 50 loadbang;
#X obj 875 114 loadbang;
#X obj 875 137 \$3;
#X obj 867 158 clip 1 500;
#X obj 649 73 \$1;
#X obj 217 243 abstractions/retr4shuf~;
#X connect 0 0 5 2;
#X connect 0 0 52 2;
#X connect 1 0 2 0;
#X connect 2 0 6 0;
#X connect 3 0 2 1;
#X connect 3 0 1 0;
#X connect 3 0 15 0;
#X connect 3 0 16 0;
#X connect 3 0 27 0;
#X connect 3 0 34 0;
#X connect 4 0 7 0;
#X connect 5 0 10 0;
#X connect 5 0 38 0;
#X connect 6 0 8 0;
#X connect 7 0 52 1;
#X connect 7 1 5 1;
#X connect 8 0 4 0;
#X connect 8 1 4 1;
#X connect 11 0 13 0;
#X connect 11 0 38 0;
#X connect 14 0 12 0;
#X connect 14 0 38 0;
#X connect 15 0 32 0;
#X connect 16 0 33 0;
#X connect 17 0 26 0;
#X connect 18 0 11 0;
#X connect 19 0 14 0;
#X connect 20 0 25 0;
#X connect 20 0 10 0;
#X connect 21 0 20 0;
#X connect 22 0 19 0;
#X connect 23 0 18 0;
#X connect 24 0 17 0;
#X connect 25 0 37 0;
#X connect 26 0 9 0;
#X connect 26 0 37 0;
#X connect 27 0 35 0;
#X connect 28 0 26 1;
#X connect 29 0 11 1;
#X connect 30 0 14 1;
#X connect 31 0 25 1;
#X connect 32 0 24 0;
#X connect 33 0 23 0;
#X connect 34 0 22 0;
#X connect 35 0 21 0;
#X connect 36 0 5 0;
#X connect 36 0 52 0;
#X connect 39 0 46 0;
#X connect 40 0 0 0;
#X connect 41 0 45 0;
#X connect 43 0 45 0;
#X connect 44 0 43 0;
#X connect 45 0 42 0;
#X connect 46 0 3 0;
#X connect 47 0 51 0;
#X connect 48 0 49 0;
#X connect 49 0 50 0;
#X connect 50 0 0 0;
#X connect 51 0 46 0;
#X connect 52 0 9 0;
#X connect 52 0 37 0;
