#N canvas 197 353 450 300 10;
#X obj 12 116 dac~;
#X obj 11 79 hoc.square~;
#N canvas 1 87 450 300 seq 0;
#X obj 92 125 mtof;
#X obj 92 80 random 20;
#X obj 91 102 + 20;
#X obj 91 170 vline~;
#X obj 93 145 pack f 40;
#X obj 93 33 loadbang;
#X obj 90 193 outlet~;
#X obj 92 55 metro 150;
#X connect 0 0 4 0;
#X connect 1 0 2 0;
#X connect 2 0 0 0;
#X connect 3 0 6 0;
#X connect 4 0 3 0;
#X connect 5 0 7 0;
#X connect 7 0 1 0;
#X restore 12 50 pd seq;
#X obj 74 30 hoc.triangle~ 0.1;
#X obj 74 55 /~ 2.01;
#X text 7 4 Simple onde carrée;
#X text 132 90 inlet1/arg1 : frequence;
#X text 132 100 inlet2/arg2 : pulse width -0.5 0.5;
#X connect 1 0 0 0;
#X connect 1 0 0 1;
#X connect 2 0 1 0;
#X connect 3 0 4 0;
#X connect 4 0 1 1;
