#N canvas 25 130 450 300 10;
#X text 112 48 inlet1/arg1 : frequence;
#X text 112 59 inlet2/arg2 : amplitude;
#X msg 184 114 \; pd dsp 1;
#X obj 184 93 loadbang;
#X obj 18 177 dac~;
#X obj 35 55 sig~ 440;
#X obj 18 29 hoc.op~ 330 500;
#X text 145 22 <!>argument s'ajoute à l'inlet~</!>;
#X obj 17 81 hoc.op~ 0 1000;
#X obj 17 145 hoc.op~ 0 1;
#X obj 33 121 sig~ 220;
#X text 7 3 Simple operateur pour programmer des DX !;
#X connect 3 0 2 0;
#X connect 5 0 8 0;
#X connect 6 0 8 0;
#X connect 8 0 9 0;
#X connect 9 0 4 0;
#X connect 9 0 4 1;
#X connect 10 0 9 0;
