#N canvas 362 178 450 300 10;
#X obj 11 123 hoc.pitchshifter~ 0.2;
#X obj 145 123 hoc.pitchshifter~ -0.2;
#X obj 37 153 hoc.pitchshifter~ 0.4;
#X obj 171 153 hoc.pitchshifter~ -0.4;
#X obj 11 63 inlet~;
#X obj -12 218 throw~ \$0-s;
#X obj 160 46 catch~ \$0-s;
#X obj 159 68 outlet~;
#X obj 302 70 f;
#X obj 301 97 * -1;
#X obj 301 21 loadbang;
#X obj 305 47 \$1;
#X obj 357 20 inlet;
#X obj 11 90 *~ 0.7;
#X connect 0 0 5 0;
#X connect 1 0 5 0;
#X connect 2 0 5 0;
#X connect 3 0 5 0;
#X connect 4 0 13 0;
#X connect 6 0 7 0;
#X connect 8 0 0 1;
#X connect 8 0 2 1;
#X connect 8 0 9 0;
#X connect 9 0 1 1;
#X connect 9 0 3 1;
#X connect 10 0 11 0;
#X connect 11 0 8 0;
#X connect 12 0 8 0;
#X connect 13 0 0 0;
#X connect 13 0 1 0;
#X connect 13 0 2 0;
#X connect 13 0 3 0;
#X connect 13 0 5 0;
