#N canvas 227 294 450 300 10;
#X text 11 2 Synthetiseur dans un style disco...;
#X obj 16 59 hoc.synth.disco~;
#N canvas 1 87 450 300 sequenceur 0;
#X obj 82 90 + 20;
#X obj 82 42 metro 300;
#X obj 82 20 tgl 15 0 empty empty empty 0 -6 0 8 -262144 -1 -1 1 1
;
#X obj 82 176 s \$0-note;
#X obj 82 65 random 70;
#X floatatom 158 20 3 0 0 0 - - -;
#X obj 82 136 pack 0 1;
#X obj 179 64 - 20;
#X obj 136 119 pipe 280;
#X obj 136 138 pack 0 0;
#X obj 101 1 loadbang;
#X msg 102 21 1;
#X connect 0 0 6 0;
#X connect 0 0 8 0;
#X connect 1 0 4 0;
#X connect 2 0 1 0;
#X connect 4 0 0 0;
#X connect 5 0 1 1;
#X connect 5 0 7 0;
#X connect 6 0 3 0;
#X connect 7 0 8 1;
#X connect 8 0 9 0;
#X connect 9 0 3 0;
#X connect 10 0 11 0;
#X connect 11 0 2 0;
#X restore 79 37 pd sequenceur;
#X obj 16 37 r \$0-note;
#X msg 160 93 \; pd dsp 1;
#X obj 160 73 loadbang;
#X obj 16 103 dac~;
#X connect 1 0 6 0;
#X connect 1 0 6 1;
#X connect 3 0 1 0;
#X connect 5 0 4 0;
