#N canvas 0 75 450 300 10;
#X obj 18 213 h.output~;
#N canvas 0 29 450 300 drums 0;
#X obj 42 98 hoc.counter;
#X obj 42 122 % 2;
#X obj 42 144 sel 0 1;
#X obj 42 55 loadbang;
#X obj 105 57 bng 15 250 50 0 empty empty empty 17 7 0 10 -262144 -1
-1;
#X obj 42 76 metro 500;
#X obj 42 166 hoc.play~ samples/sample1.wav;
#X obj 106 199 hoc.play~ samples/sample2.wav;
#X obj 43 251 outlet~;
#X connect 0 0 1 0;
#X connect 1 0 2 0;
#X connect 2 0 6 0;
#X connect 2 1 7 0;
#X connect 3 0 5 0;
#X connect 4 0 5 0;
#X connect 5 0 0 0;
#X connect 6 0 8 0;
#X connect 7 0 8 0;
#X restore 17 40 pd drums;
#X text 9 10 simple compresseur;
#X text 169 56 inlet2/arg1 : threshold en db;
#X text 168 70 inlet3/arg2 : ratio;
#X text 169 84 inlet4/arg3 : attack/release en ms;
#X obj 18 100 hoc.bypass~;
#X obj 92 75 tgl 15 0 empty empty comparer 17 7 0 10 -262144 -1 -1
0 1;
#X obj 17 165 *~ 9;
#X obj 18 133 hoc.compressor~ -20 4 120;
#X connect 1 0 6 0;
#X connect 6 0 9 0;
#X connect 6 1 0 0;
#X connect 6 1 0 1;
#X connect 7 0 6 1;
#X connect 8 0 0 0;
#X connect 8 0 0 1;
#X connect 9 0 8 0;
