#N canvas 0 29 746 495 10;
#X obj 47 22 inlet~;
#X obj 48 436 outlet~;
#X obj 349 156 * -1;
#X obj 47 378 *~ 0.5;
#X obj 297 19 inlet depth;
#X obj 389 18 loadbang;
#X obj 604 26 inlet feedback;
#X obj 604 48 clip 0 1;
#X obj 171 11 inlet delay;
#X obj 171 33 clip 0 120;
#X obj 389 62 sel 0;
#X msg 389 84 0.2;
#X obj 389 40 \$2;
#X obj 235 270 * 0.5;
#X obj 235 323 * 0.5;
#X obj 534 24 loadbang;
#X obj 534 46 \$3;
#X obj 234 83 sel 0;
#X obj 247 36 loadbang;
#X obj 234 61 \$1;
#X msg 234 105 10;
#X obj 300 118 / 1;
#X obj 184 348 abstractions/chorusvoice~ -0.2;
#X obj 113 155 abstractions/chorusvoice~ 0.2;
#X obj 185 295 abstractions/chorusvoice~ 0.2;
#X obj 125 212 abstractions/chorusvoice~ -0.2;
#X obj 604 104 sqrt;
#X obj 300 84 clip 0 1;
#X obj 49 55 *~ 0.3;
#X connect 0 0 28 0;
#X connect 2 0 14 0;
#X connect 2 0 25 1;
#X connect 3 0 1 0;
#X connect 4 0 27 0;
#X connect 5 0 12 0;
#X connect 6 0 7 0;
#X connect 7 0 26 0;
#X connect 8 0 9 0;
#X connect 9 0 22 2;
#X connect 9 0 23 2;
#X connect 9 0 24 2;
#X connect 9 0 25 2;
#X connect 10 0 11 0;
#X connect 10 1 27 0;
#X connect 11 0 27 0;
#X connect 12 0 10 0;
#X connect 13 0 24 1;
#X connect 14 0 22 1;
#X connect 15 0 16 0;
#X connect 16 0 7 0;
#X connect 17 0 20 0;
#X connect 17 1 9 0;
#X connect 18 0 19 0;
#X connect 19 0 17 0;
#X connect 20 0 9 0;
#X connect 21 0 2 0;
#X connect 21 0 13 0;
#X connect 21 0 23 1;
#X connect 22 0 3 0;
#X connect 23 0 3 0;
#X connect 24 0 3 0;
#X connect 25 0 3 0;
#X connect 26 0 22 3;
#X connect 26 0 23 3;
#X connect 26 0 24 3;
#X connect 26 0 25 3;
#X connect 27 0 21 0;
#X connect 28 0 3 0;
#X connect 28 0 23 0;
#X connect 28 0 25 0;
#X connect 28 0 24 0;
#X connect 28 0 22 0;
