#N canvas 1562 654 450 300 10;
#X obj 26 133 hoc.lorenz~ 10;
#X text 16 35 De la documentation de [expr] de Shahrokh Yadegari;
#X text 16 19 Oscillateur chaotique;
#X obj 26 181 h.output~;
#X floatatom 26 111 5 0 100 0 - - -, f 5;
#X connect 0 0 3 0;
#X connect 0 0 3 1;
#X connect 4 0 0 0;
