#N canvas 186 349 731 313 10;
#X obj 97 69 \$1;
#X obj 156 67 \$2;
#X obj 216 66 \$3;
#X obj 275 66 \$4;
#X obj 332 66 \$5;
#X obj 391 66 \$6;
#X obj 451 68 \$7;
#X obj 510 69 \$8;
#X obj 97 247 outlet;
#X obj 97 25 loadbang;
#X obj 635 34 + 1;
#X obj 598 13 metro 500;
#X obj 598 36 0;
#X obj 598 -9 loadbang;
#X obj 598 62 mod 8;
#X obj 277 7 sel 0 1 2 3 4 5 6 7;
#N canvas 0 59 264 284 play 0;
#X obj 79 154 f;
#X obj 97 79 inlet;
#X obj 79 181 sel 0;
#X obj 111 211 outlet;
#X obj 142 79 inlet;
#X connect 0 0 2 0;
#X connect 1 0 0 1;
#X connect 2 1 3 0;
#X connect 4 0 0 0;
#X restore 97 117 pd play;
#N canvas 0 59 264 284 play 0;
#X obj 79 154 f;
#X obj 97 79 inlet;
#X obj 79 181 sel 0;
#X obj 111 211 outlet;
#X obj 142 79 inlet;
#X connect 0 0 2 0;
#X connect 1 0 0 1;
#X connect 2 1 3 0;
#X connect 4 0 0 0;
#X restore 155 116 pd play;
#N canvas 0 59 264 284 play 0;
#X obj 79 154 f;
#X obj 97 79 inlet;
#X obj 79 181 sel 0;
#X obj 111 211 outlet;
#X obj 142 79 inlet;
#X connect 0 0 2 0;
#X connect 1 0 0 1;
#X connect 2 1 3 0;
#X connect 4 0 0 0;
#X restore 212 116 pd play;
#N canvas 0 59 264 284 play 0;
#X obj 79 154 f;
#X obj 97 79 inlet;
#X obj 79 181 sel 0;
#X obj 111 211 outlet;
#X obj 142 79 inlet;
#X connect 0 0 2 0;
#X connect 1 0 0 1;
#X connect 2 1 3 0;
#X connect 4 0 0 0;
#X restore 270 115 pd play;
#N canvas 0 59 264 284 play 0;
#X obj 79 154 f;
#X obj 97 79 inlet;
#X obj 79 181 sel 0;
#X obj 111 211 outlet;
#X obj 142 79 inlet;
#X connect 0 0 2 0;
#X connect 1 0 0 1;
#X connect 2 1 3 0;
#X connect 4 0 0 0;
#X restore 329 114 pd play;
#N canvas 0 59 264 284 play 0;
#X obj 79 154 f;
#X obj 97 79 inlet;
#X obj 79 181 sel 0;
#X obj 111 211 outlet;
#X obj 142 79 inlet;
#X connect 0 0 2 0;
#X connect 1 0 0 1;
#X connect 2 1 3 0;
#X connect 4 0 0 0;
#X restore 387 113 pd play;
#N canvas 0 59 264 284 play 0;
#X obj 79 154 f;
#X obj 97 79 inlet;
#X obj 79 181 sel 0;
#X obj 111 211 outlet;
#X obj 142 79 inlet;
#X connect 0 0 2 0;
#X connect 1 0 0 1;
#X connect 2 1 3 0;
#X connect 4 0 0 0;
#X restore 444 113 pd play;
#N canvas 0 59 264 284 play 0;
#X obj 79 154 f;
#X obj 97 79 inlet;
#X obj 79 181 sel 0;
#X obj 111 211 outlet;
#X obj 142 79 inlet;
#X connect 0 0 2 0;
#X connect 1 0 0 1;
#X connect 2 1 3 0;
#X connect 4 0 0 0;
#X restore 502 112 pd play;
#X obj 122 -31 inlet;
#X obj 163 -31 inlet;
#X obj 204 -31 inlet;
#X obj 245 -31 inlet;
#X obj 287 -31 inlet;
#X obj 328 -31 inlet;
#X obj 369 -31 inlet;
#X obj 410 -31 inlet;
#X obj 658 -32 inlet time;
#X connect 0 0 16 0;
#X connect 1 0 17 0;
#X connect 2 0 18 0;
#X connect 3 0 19 0;
#X connect 4 0 20 0;
#X connect 5 0 21 0;
#X connect 6 0 22 0;
#X connect 7 0 23 0;
#X connect 9 0 0 0;
#X connect 9 0 1 0;
#X connect 9 0 2 0;
#X connect 9 0 3 0;
#X connect 9 0 4 0;
#X connect 9 0 5 0;
#X connect 9 0 6 0;
#X connect 9 0 7 0;
#X connect 10 0 12 1;
#X connect 11 0 12 0;
#X connect 12 0 10 0;
#X connect 12 0 14 0;
#X connect 13 0 11 0;
#X connect 14 0 15 0;
#X connect 15 0 16 1;
#X connect 15 1 17 1;
#X connect 15 2 18 1;
#X connect 15 3 19 1;
#X connect 15 4 20 1;
#X connect 15 5 21 1;
#X connect 15 6 22 1;
#X connect 15 7 23 1;
#X connect 16 0 8 0;
#X connect 17 0 8 0;
#X connect 18 0 8 0;
#X connect 19 0 8 0;
#X connect 20 0 8 0;
#X connect 21 0 8 0;
#X connect 22 0 8 0;
#X connect 23 0 8 0;
#X connect 24 0 0 0;
#X connect 25 0 1 0;
#X connect 26 0 2 0;
#X connect 27 0 3 0;
#X connect 28 0 4 0;
#X connect 29 0 5 0;
#X connect 30 0 6 0;
#X connect 31 0 7 0;
#X connect 32 0 11 1;
