#N canvas 84 173 1351 708 10;
#X obj 227 105 * 2;
#X obj 227 132 pow 0;
#X obj 228 195 * 2;
#X obj 230 279 * 2;
#X obj 232 360 * 2;
#X obj 235 441 * 2;
#X obj 232 515 * 2;
#X obj 230 594 * 2;
#X obj 226 659 * 2;
#X obj 228 222 pow 1;
#X obj 230 306 pow 2;
#X obj 232 387 pow 3;
#X obj 235 468 pow 4;
#X obj 232 542 pow 5;
#X obj 230 621 pow 6;
#X obj 226 686 pow 7;
#X obj 317 291 +;
#X obj 316 367 +;
#X obj 316 437 +;
#X obj 328 521 +;
#X obj 323 589 +;
#X obj 323 648 +;
#X obj -276 41 inlet;
#X obj -276 61 > 0;
#X obj -218 41 inlet;
#X obj -218 61 > 0;
#X obj -163 42 inlet;
#X obj -163 62 > 0;
#X obj -112 42 inlet;
#X obj -112 62 > 0;
#X obj -32 44 inlet;
#X obj -32 64 > 0;
#X obj 26 44 inlet;
#X obj 26 64 > 0;
#X obj 81 45 inlet;
#X obj 81 65 > 0;
#X obj 132 45 inlet;
#X obj 132 65 > 0;
#X obj 323 715 +;
#X obj 322 736 outlet;
#X obj 316 213 t b f;
#X obj 326 320 t b f;
#X obj 316 402 t b f;
#X obj 328 485 t b f;
#X obj 323 553 t b f;
#X obj 323 617 t b f;
#X obj 323 676 t b f;
#X text 297 46 inspiré de http://forum.pdpatchrepo.info/user/enrico
;
#X connect 0 0 1 0;
#X connect 1 0 40 0;
#X connect 2 0 9 0;
#X connect 3 0 10 0;
#X connect 4 0 11 0;
#X connect 5 0 12 0;
#X connect 6 0 13 0;
#X connect 7 0 14 0;
#X connect 8 0 15 0;
#X connect 9 0 16 0;
#X connect 10 0 17 0;
#X connect 11 0 18 0;
#X connect 12 0 19 0;
#X connect 13 0 20 0;
#X connect 14 0 21 0;
#X connect 15 0 38 0;
#X connect 16 0 41 0;
#X connect 17 0 42 0;
#X connect 18 0 43 0;
#X connect 19 0 44 0;
#X connect 20 0 45 0;
#X connect 21 0 46 0;
#X connect 22 0 23 0;
#X connect 23 0 0 0;
#X connect 24 0 25 0;
#X connect 25 0 2 0;
#X connect 26 0 27 0;
#X connect 27 0 3 0;
#X connect 28 0 29 0;
#X connect 29 0 4 0;
#X connect 30 0 31 0;
#X connect 31 0 5 0;
#X connect 32 0 33 0;
#X connect 33 0 6 0;
#X connect 34 0 35 0;
#X connect 35 0 7 0;
#X connect 36 0 37 0;
#X connect 37 0 8 0;
#X connect 38 0 39 0;
#X connect 40 0 16 0;
#X connect 40 1 16 1;
#X connect 41 0 17 0;
#X connect 41 1 17 1;
#X connect 42 0 18 0;
#X connect 42 1 18 1;
#X connect 43 0 19 0;
#X connect 43 1 19 1;
#X connect 44 0 20 0;
#X connect 44 1 20 1;
#X connect 45 0 21 0;
#X connect 45 1 21 1;
#X connect 46 0 38 0;
#X connect 46 1 38 1;
