#N canvas 767 324 450 300 10;
#N canvas 0 50 450 300 (subpatch) 0;
#X array \$0-tabctr 100 float 4;
#X coords 0 1 99 0 100 70 1 0 0;
#X restore 10 10 graph;
#X obj 238 77 metro 100;
#X obj 239 54 loadbang;
#X obj 153 75 inlet;
#X obj 154 179 tabwrite \$0-tabctr;
#X obj 271 108 + 1;
#X obj 233 110 0;
#X obj 233 132 % 100;
#X connect 1 0 6 0;
#X connect 2 0 1 0;
#X connect 3 0 4 0;
#X connect 5 0 6 1;
#X connect 6 0 5 0;
#X connect 6 0 7 0;
#X connect 7 0 4 1;
#X coords 0 -1 1 1 100 70 2 10 10;
