#N canvas 284 352 553 300 10;
#X text 267 68 inlet1/arg1:vitesse du sequenceur en ms;
#X text 267 80 inlet2/arg2:note midi la plus basse;
#X text 267 90 inlet3/arg3:note midi la plus haute;
#X obj 35 185 osc~;
#X obj 34 122 mtof;
#X obj 35 222 *~;
#X obj 174 143 / 127;
#X obj 35 262 dac~;
#X text 5 6 Simple sequenceur midi aleatoire;
#X msg 339 152 \; pd dsp 1;
#X obj 34 163 line~;
#X obj 34 142 pack f 5;
#X obj 80 193 hoc.adsr~ 20 30 0.5 20;
#X obj 339 130 loadbang;
#X obj 34 101 hoc.midi.random 300 60 80;
#X connect 3 0 5 0;
#X connect 4 0 11 0;
#X connect 5 0 7 0;
#X connect 5 0 7 1;
#X connect 6 0 12 0;
#X connect 10 0 3 0;
#X connect 11 0 10 0;
#X connect 12 0 5 1;
#X connect 13 0 9 0;
#X connect 14 0 4 0;
#X connect 14 1 6 0;
