#N canvas 518 163 659 553 10;
#X obj 23 478 +~;
#X obj 131 416 line~;
#X obj 95 416 *~;
#X obj 68 341 line~;
#X obj 53 362 *~;
#X obj 80 281 line~;
#X obj 44 281 *~;
#X obj 51 221 line~;
#X obj 22 221 *~;
#X obj 208 95 + 1;
#X obj 208 118 mod 4;
#X obj 173 92 f;
#X obj 173 144 t f b;
#X obj 173 251 route 0 1 2 3;
#X obj 173 67 metro 50;
#X obj 173 227 pack 0 0 200;
#X text 273 22 time constant (msec);
#X obj -52 7 inlet~;
#X obj 173 45 loadbang;
#X obj 326 60 \$1;
#X obj 326 40 loadbang;
#X obj 326 82 sel 0;
#X msg 326 105 50;
#X obj 326 126 clip 10 1000;
#X obj 23 500 outlet~;
#X obj 95 505 outlet~;
#X obj 441 43 loadbang;
#X obj 441 85 sel 0;
#X obj 441 63 \$2;
#X msg 441 108 0.5;
#X obj 441 129 clip 0 0.999;
#X obj 486 84 inlet feedback;
#X obj 370 81 inlet time;
#X obj 441 277 line~;
#X obj 441 257 pack f 20;
#X obj 326 150 * 2;
#X obj 204 173 random 1000;
#X obj 204 200 expr 2 * $f1/1000 - 0.7;
#X obj -27 60 delwrite~ \$0-del1 1000;
#X obj 43 249 delread~ \$0-del1 300;
#X obj -28 80 delwrite~ \$0-del2 1000;
#X obj -28 101 delwrite~ \$0-del3 1000;
#X obj 52 318 delread~ \$0-del2 200;
#X obj 95 390 delread~ \$0-del3 100;
#X obj -61 425 s~ \$0-fdbk;
#X obj 111 459 *~;
#X obj 125 439 r~ \$0-feedback;
#X obj 441 297 s~ \$0-feedback;
#X obj 99 367 *~;
#X obj 113 347 r~ \$0-feedback;
#X obj 105 301 *~;
#X obj 119 281 r~ \$0-feedback;
#X text 310 354 feedback doit aller dans toutes les lignes...;
#X obj -27 40 delwrite~ \$0-del0 1000;
#X obj 21 198 delread~ \$0-del0 50;
#X connect 0 0 24 0;
#X connect 1 0 2 1;
#X connect 2 0 25 0;
#X connect 2 0 45 1;
#X connect 3 0 4 1;
#X connect 4 0 0 1;
#X connect 4 0 48 0;
#X connect 5 0 6 1;
#X connect 6 0 25 0;
#X connect 6 0 50 0;
#X connect 7 0 8 1;
#X connect 8 0 0 0;
#X connect 9 0 10 0;
#X connect 10 0 11 1;
#X connect 11 0 9 0;
#X connect 11 0 12 0;
#X connect 12 0 15 0;
#X connect 12 1 36 0;
#X connect 13 0 7 0;
#X connect 13 1 5 0;
#X connect 13 2 3 0;
#X connect 13 3 1 0;
#X connect 14 0 11 0;
#X connect 15 0 13 0;
#X connect 17 0 38 0;
#X connect 17 0 40 0;
#X connect 17 0 41 0;
#X connect 17 0 53 0;
#X connect 18 0 14 0;
#X connect 19 0 21 0;
#X connect 20 0 19 0;
#X connect 21 0 22 0;
#X connect 21 1 23 0;
#X connect 22 0 23 0;
#X connect 23 0 14 1;
#X connect 23 0 35 0;
#X connect 26 0 28 0;
#X connect 27 0 29 0;
#X connect 27 1 30 0;
#X connect 28 0 27 0;
#X connect 29 0 30 0;
#X connect 30 0 34 0;
#X connect 31 0 30 0;
#X connect 32 0 23 0;
#X connect 33 0 47 0;
#X connect 34 0 33 0;
#X connect 35 0 15 2;
#X connect 36 0 37 0;
#X connect 37 0 15 1;
#X connect 39 0 6 0;
#X connect 42 0 4 0;
#X connect 43 0 2 0;
#X connect 46 0 45 1;
#X connect 49 0 48 1;
#X connect 51 0 50 1;
#X connect 54 0 8 0;
