#N canvas 313 80 934 522 10;
#X obj 104 -59 \$1;
#X obj 163 -61 \$2;
#X obj 223 -62 \$3;
#X obj 282 -62 \$4;
#X obj 339 -62 \$5;
#X obj 398 -62 \$6;
#X obj 458 -60 \$7;
#X obj 517 -59 \$8;
#X obj 104 -103 loadbang;
#X obj 618 -64 + 1;
#X obj 581 -62 0;
#X obj 581 -107 loadbang;
#X obj 581 -36 mod 8;
#X obj 295 -124 sel 0 1 2 3 4 5 6 7;
#X obj 129 -159 inlet;
#X obj 170 -159 inlet;
#X obj 211 -159 inlet;
#X obj 252 -159 inlet;
#X obj 294 -159 inlet;
#X obj 335 -159 inlet;
#X obj 376 -159 inlet;
#X obj 417 -159 inlet;
#X obj 665 -160 inlet time;
#X obj 27 -86 inlet~;
#X obj 27 267 outlet~;
#X obj 150 238 vline~;
#X obj 27 217 *~;
#X obj 104 144 sel 1 0;
#X msg 104 170 0 5;
#X obj 58 172 del 5;
#X msg 104 193 1 5;
#X msg 153 188 0 5;
#X obj 104 -19 f;
#X obj 154 -16 f;
#X obj 229 -18 f;
#X obj 283 -16 f;
#X obj 340 -21 f;
#X obj 409 -25 f;
#X obj 460 -28 f;
#X obj 517 -27 f;
#X obj 581 -85 metro 500;
#X obj 683 -113 \$9;
#X obj 683 -136 loadbang;
#X obj 683 -91 sel 0;
#X connect 0 0 32 1;
#X connect 1 0 33 1;
#X connect 2 0 34 1;
#X connect 3 0 35 1;
#X connect 4 0 36 1;
#X connect 5 0 37 1;
#X connect 6 0 38 1;
#X connect 7 0 39 1;
#X connect 8 0 0 0;
#X connect 8 0 1 0;
#X connect 8 0 2 0;
#X connect 8 0 3 0;
#X connect 8 0 4 0;
#X connect 8 0 5 0;
#X connect 8 0 6 0;
#X connect 8 0 7 0;
#X connect 9 0 10 1;
#X connect 10 0 9 0;
#X connect 10 0 12 0;
#X connect 11 0 40 0;
#X connect 12 0 13 0;
#X connect 13 0 32 0;
#X connect 13 1 33 0;
#X connect 13 2 34 0;
#X connect 13 3 35 0;
#X connect 13 4 36 0;
#X connect 13 5 37 0;
#X connect 13 6 38 0;
#X connect 13 7 39 0;
#X connect 14 0 0 0;
#X connect 15 0 1 0;
#X connect 16 0 2 0;
#X connect 17 0 3 0;
#X connect 18 0 4 0;
#X connect 19 0 5 0;
#X connect 20 0 6 0;
#X connect 21 0 7 0;
#X connect 22 0 40 1;
#X connect 23 0 26 0;
#X connect 25 0 26 1;
#X connect 26 0 24 0;
#X connect 27 0 28 0;
#X connect 27 0 29 0;
#X connect 27 1 31 0;
#X connect 28 0 25 0;
#X connect 29 0 30 0;
#X connect 30 0 25 0;
#X connect 31 0 25 0;
#X connect 32 0 27 0;
#X connect 33 0 27 0;
#X connect 34 0 27 0;
#X connect 35 0 27 0;
#X connect 36 0 27 0;
#X connect 37 0 27 0;
#X connect 38 0 27 0;
#X connect 39 0 27 0;
#X connect 40 0 10 0;
#X connect 41 0 43 0;
#X connect 42 0 41 0;
#X connect 43 1 40 1;
