#N canvas 831 416 450 300 10;
#X obj 24 83 hoc.play~ samples/bigbuckbunny.wav;
#X obj 24 63 bng 15 250 50 0 empty empty empty 17 7 0 10 -262144 -1
-1;
#X obj 23 181 dac~;
#X obj 75 116 tgl 15 0 empty empty retrig_moi_! 17 7 0 10 -262144 -1
-1 1 1;
#X obj 24 38 loadbang;
#X obj 23 134 hoc.retrigger~ 500;
#X text 18 7 Freeze le sample;
#X msg 279 72 \; pd dsp 1;
#X obj 278 53 loadbang;
#X text 212 130 inlet1 : signal;
#X text 212 141 inlet2 : 1/0 = on/off;
#X text 212 156 arg1 : temps de bouclage en ms;
#X text 144 195 Basé sur un [delwrite~];
#X text 144 208 voir hoc.retrigger2~ basé sur un tableau;
#X connect 0 0 5 0;
#X connect 0 1 1 0;
#X connect 1 0 0 0;
#X connect 3 0 5 1;
#X connect 4 0 1 0;
#X connect 5 0 2 0;
#X connect 5 0 2 1;
#X connect 8 0 7 0;
