#N canvas 0 29 1366 714 10;
#X obj 46 374 + 60;
#X obj 397 531 table \$0-tnotes;
#X obj 46 351 tabread \$0-tnotes;
#X obj 46 264 counter 3;
#X obj 46 226 metro;
#X obj 125 265 random 10;
#X obj 396 510 table \$0-notes;
#X obj 374 285 % 12;
#X obj 374 263 - 24;
#X obj 374 307 t b f;
#X obj 390 191 sel 0;
#X obj 374 328 f;
#X msg 390 214 0;
#X msg 418 214 1;
#X obj 374 368 tabwrite \$0-notes;
#X obj 598 277 tabread \$0-notes;
#X obj 598 301 sel 1;
#X obj 598 255 t f f;
#X obj 693 353 t l;
#X obj 598 353 list prepend;
#X obj 598 327 f;
#X obj 598 230 counter 12;
#X obj 598 202 Uzi 12;
#X obj 598 174 t b b b;
#X obj 115 149 \$1;
#X obj 115 126 inlet nombreDeNotes;
#N canvas 0 68 450 300 creationDesOctaves 0;
#N canvas 1 117 450 502 creeroctaves>60 0;
#X obj -322 221 list split;
#X obj -179 92 list length;
#X obj -294 242 unpack f;
#X obj -322 152 list;
#X obj -212 319 t l;
#X obj -294 319 list prepend;
#X obj -76 96 bng 15 250 50 0 empty empty clear_list 17 7 0 10 -262144
-1 -1;
#X obj -250 170 %;
#X obj -194 169 div;
#X obj -194 214 * 12;
#X obj -294 290 +;
#X obj -322 127 t b f;
#X obj -322 102 0;
#X obj -291 103 + 1;
#X obj -322 79 until;
#X obj -347 348 list;
#X obj -322 59 t f b;
#X msg -280 80 0;
#X obj -348 -4 inlet bangCreer;
#X obj -347 397 outlet;
#X obj -179 12 t l b;
#X obj -179 -9 inlet list;
#X obj -347 16 t b b;
#X obj -126 262 > 60;
#X obj -126 284 sel 1;
#X msg -322 37 60;
#X connect 0 1 2 0;
#X connect 1 0 7 1;
#X connect 1 0 8 1;
#X connect 2 0 10 0;
#X connect 3 0 0 0;
#X connect 4 0 5 1;
#X connect 5 0 4 0;
#X connect 5 0 15 1;
#X connect 6 0 5 1;
#X connect 6 0 3 1;
#X connect 7 0 0 1;
#X connect 8 0 9 0;
#X connect 9 0 10 1;
#X connect 10 0 5 0;
#X connect 10 0 23 0;
#X connect 11 0 3 0;
#X connect 11 1 7 0;
#X connect 11 1 8 0;
#X connect 12 0 13 0;
#X connect 12 0 11 0;
#X connect 13 0 12 1;
#X connect 14 0 12 0;
#X connect 15 0 19 0;
#X connect 16 0 14 0;
#X connect 16 1 17 0;
#X connect 17 0 12 1;
#X connect 18 0 22 0;
#X connect 20 0 1 0;
#X connect 20 0 3 1;
#X connect 20 1 6 0;
#X connect 21 0 20 0;
#X connect 22 0 15 0;
#X connect 22 1 25 0;
#X connect 23 0 24 0;
#X connect 24 0 14 1;
#X connect 25 0 16 0;
#X restore 110 71 pd creeroctaves>60;
#X msg 198 155 resize \$1;
#X obj 198 131 list length;
#X obj 109 116 iter;
#X obj 109 139 t f b;
#X obj 110 91 t l b l;
#X obj 136 161 f;
#X msg 154 137 0;
#X obj 165 162 + 1;
#X obj 49 189 tabwrite \$0-tnotes;
#X obj 198 177 s \$0-tnotes;
#X obj 219 20 inlet listeNotes;
#X obj 216 44 t b l;
#X connect 0 0 5 0;
#X connect 1 0 10 0;
#X connect 2 0 1 0;
#X connect 3 0 4 0;
#X connect 4 0 9 0;
#X connect 4 1 6 0;
#X connect 5 0 3 0;
#X connect 5 1 7 0;
#X connect 5 2 2 0;
#X connect 6 0 8 0;
#X connect 6 0 9 1;
#X connect 7 0 6 1;
#X connect 8 0 6 1;
#X connect 11 0 12 0;
#X connect 12 0 0 0;
#X connect 12 1 0 1;
#X restore 598 412 pd creationDesOctaves;
#X text 516 531 Notes de l'accord + octaves;
#X text 501 511 Notes de l'accord;
#X obj 46 514 outlet NotesMidi;
#X obj 46 321 route;
#X obj 46 298 prepend 1;
#X obj 118 321 route;
#X obj 118 298 prepend 2;
#X msg 207 265 1;
#X msg 238 265 2;
#X obj 207 164 inlet algorithme;
#X obj 207 190 \$2;
#X obj 207 214 sel 1 2;
#X obj 246 238 t b;
#X obj 46 48 \$1;
#X obj 46 72 sel 0;
#X obj 46 203 loadbang;
#X obj 149 164 loadbang;
#X obj 46 444 makenote 127 70;
#X obj 46 466 pack f f;
#X obj 374 71 inlet midi;
#X obj 374 93 unpack f f;
#X obj 46 182 /;
#X obj 46 135 t b f;
#X msg 46 158 1;
#X obj 46 115 / 60000;
#X obj 46 25 inlet bpm;
#X msg 46 94 120;
#X connect 0 0 44 0;
#X connect 2 0 0 0;
#X connect 3 0 31 0;
#X connect 4 0 3 0;
#X connect 4 0 5 0;
#X connect 5 0 33 0;
#X connect 7 0 9 0;
#X connect 8 0 7 0;
#X connect 9 0 11 0;
#X connect 9 1 14 1;
#X connect 10 0 12 0;
#X connect 10 1 13 0;
#X connect 11 0 14 0;
#X connect 12 0 11 1;
#X connect 13 0 11 1;
#X connect 15 0 16 0;
#X connect 16 0 20 0;
#X connect 17 0 15 0;
#X connect 17 1 20 1;
#X connect 18 0 19 1;
#X connect 19 0 18 0;
#X connect 19 0 26 0;
#X connect 20 0 19 0;
#X connect 21 0 17 0;
#X connect 22 0 21 0;
#X connect 23 0 22 0;
#X connect 23 1 21 2;
#X connect 23 2 19 1;
#X connect 24 0 5 1;
#X connect 24 0 3 4;
#X connect 25 0 24 0;
#X connect 30 0 2 0;
#X connect 31 0 30 0;
#X connect 32 0 2 0;
#X connect 33 0 32 0;
#X connect 34 0 30 1;
#X connect 34 0 32 1;
#X connect 35 0 30 1;
#X connect 35 0 32 1;
#X connect 36 0 37 0;
#X connect 37 0 38 0;
#X connect 38 0 34 0;
#X connect 38 1 35 0;
#X connect 38 2 39 0;
#X connect 39 0 34 0;
#X connect 40 0 41 0;
#X connect 41 0 53 0;
#X connect 41 1 51 0;
#X connect 42 0 4 0;
#X connect 43 0 37 0;
#X connect 44 0 45 0;
#X connect 44 1 45 1;
#X connect 45 0 29 0;
#X connect 46 0 47 0;
#X connect 47 0 8 0;
#X connect 47 1 23 0;
#X connect 47 1 10 0;
#X connect 48 0 4 1;
#X connect 49 0 50 0;
#X connect 49 1 48 1;
#X connect 50 0 48 0;
#X connect 51 0 49 0;
#X connect 52 0 40 0;
#X connect 53 0 51 0;
