#N canvas 483 128 880 639 10;
#X obj 28 77 *~ -1;
#X obj 29 101 +~ 1;
#X obj 44 127 min~;
#X obj 27 47 phasor~;
#X obj 43 151 *~ 4;
#X obj 42 175 -~ 1;
#X obj 26 -13 inlet~;
#X obj 43 197 outlet~;
#X obj 77 15 sig~ \$1;
#X connect 0 0 1 0;
#X connect 1 0 2 1;
#X connect 2 0 4 0;
#X connect 3 0 0 0;
#X connect 3 0 2 0;
#X connect 4 0 5 0;
#X connect 5 0 7 0;
#X connect 6 0 3 0;
#X connect 8 0 3 0;
