#N canvas 619 303 450 300 10;
#X obj 60 63 poly 4 1;
#X obj 59 86 pack f f f;
#X obj 59 110 route 1 2 3 4;
#X obj 59 134 hoc.osc.disco~;
#X obj 77 154 hoc.osc.disco~;
#X obj 89 176 hoc.osc.disco~;
#X obj 107 196 hoc.osc.disco~;
#X obj 56 247 outlet~;
#X obj 57 185 +~;
#X obj 80 207 +~;
#X obj 56 224 +~;
#X obj 60 39 inlet note;
#X connect 0 0 1 0;
#X connect 0 1 1 1;
#X connect 0 2 1 2;
#X connect 1 0 2 0;
#X connect 2 0 3 0;
#X connect 2 1 4 0;
#X connect 2 2 5 0;
#X connect 2 3 6 0;
#X connect 3 0 8 0;
#X connect 4 0 8 1;
#X connect 5 0 9 0;
#X connect 6 0 9 1;
#X connect 8 0 10 0;
#X connect 9 0 10 1;
#X connect 10 0 7 0;
#X connect 11 0 0 0;
