#N canvas 0 29 1351 714 10;
#X obj 179 670 outlet~;
#X obj 726 233 > 10;
#X obj 726 257 change;
#X obj 428 55 inlet~ carrier;
#X obj 179 649 hipp~ 20;
#X obj 179 593 *~ 3;
#X obj 282 297 abstractions/hoc.vocoder.voice~ 1480;
#X obj 726 580 hoc.adsr~ 5 10 1 100;
#X obj 179 615 *~;
#X obj 726 179 env~ 1024;
#X obj 328 378 abstractions/hoc.vocoder.voice~ 2700;
#X obj 227 216 abstractions/hoc.vocoder.voice~ 770;
#X obj 259 255 abstractions/hoc.vocoder.voice~ 1080;
#X obj 174 112 abstractions/hoc.vocoder.voice~ 100;
#X obj 183 134 abstractions/hoc.vocoder.voice~ 200;
#X obj 195 154 abstractions/hoc.vocoder.voice~ 300;
#X obj 206 175 abstractions/hoc.vocoder.voice~ 510;
#X obj 216 196 abstractions/hoc.vocoder.voice~ 630;
#X obj 242 235 abstractions/hoc.vocoder.voice~ 920;
#X obj 270 277 abstractions/hoc.vocoder.voice~ 1270;
#X obj 293 318 abstractions/hoc.vocoder.voice~ 1720;
#X obj 303 338 abstractions/hoc.vocoder.voice~ 2000;
#X obj 315 358 abstractions/hoc.vocoder.voice~ 2320;
#X obj 340 399 abstractions/hoc.vocoder.voice~ 3150;
#X obj 352 419 abstractions/hoc.vocoder.voice~ 3700;
#X obj 365 439 abstractions/hoc.vocoder.voice~ 4400;
#X obj 377 459 abstractions/hoc.vocoder.voice~ 5300;
#X obj 389 480 abstractions/hoc.vocoder.voice~ 6400;
#X obj 401 500 abstractions/hoc.vocoder.voice~ 7700;
#X obj 411 521 abstractions/hoc.vocoder.voice~ 9500;
#X obj 418 541 abstractions/hoc.vocoder.voice~ 12000;
#X obj 429 559 abstractions/hoc.vocoder.voice~ 15500;
#X obj 273 17 inlet~ modulator;
#X obj 272 58 *~ 1;
#X connect 1 0 2 0;
#X connect 2 0 7 0;
#X connect 3 0 6 1;
#X connect 3 0 10 1;
#X connect 3 0 11 1;
#X connect 3 0 12 1;
#X connect 3 0 13 1;
#X connect 3 0 14 1;
#X connect 3 0 15 1;
#X connect 3 0 16 1;
#X connect 3 0 17 1;
#X connect 3 0 18 1;
#X connect 3 0 19 1;
#X connect 3 0 20 1;
#X connect 3 0 21 1;
#X connect 3 0 22 1;
#X connect 3 0 23 1;
#X connect 3 0 24 1;
#X connect 3 0 25 1;
#X connect 3 0 26 1;
#X connect 3 0 27 1;
#X connect 3 0 28 1;
#X connect 3 0 29 1;
#X connect 3 0 30 1;
#X connect 3 0 31 1;
#X connect 4 0 0 0;
#X connect 5 0 8 0;
#X connect 6 0 5 0;
#X connect 7 0 8 1;
#X connect 8 0 4 0;
#X connect 9 0 1 0;
#X connect 10 0 5 0;
#X connect 11 0 5 0;
#X connect 12 0 5 0;
#X connect 13 0 5 0;
#X connect 14 0 5 0;
#X connect 15 0 5 0;
#X connect 16 0 5 0;
#X connect 17 0 5 0;
#X connect 18 0 5 0;
#X connect 19 0 5 0;
#X connect 20 0 5 0;
#X connect 21 0 5 0;
#X connect 22 0 5 0;
#X connect 23 0 5 0;
#X connect 24 0 5 0;
#X connect 25 0 5 0;
#X connect 26 0 5 0;
#X connect 28 0 5 0;
#X connect 29 0 5 0;
#X connect 30 0 5 0;
#X connect 31 0 5 0;
#X connect 32 0 33 0;
#X connect 33 0 6 0;
#X connect 33 0 9 0;
#X connect 33 0 10 0;
#X connect 33 0 11 0;
#X connect 33 0 12 0;
#X connect 33 0 13 0;
#X connect 33 0 14 0;
#X connect 33 0 15 0;
#X connect 33 0 16 0;
#X connect 33 0 17 0;
#X connect 33 0 18 0;
#X connect 33 0 19 0;
#X connect 33 0 20 0;
#X connect 33 0 21 0;
#X connect 33 0 22 0;
#X connect 33 0 23 0;
#X connect 33 0 24 0;
#X connect 33 0 25 0;
#X connect 33 0 26 0;
#X connect 33 0 27 0;
#X connect 33 0 28 0;
#X connect 33 0 29 0;
#X connect 33 0 30 0;
#X connect 33 0 31 0;
