#N canvas 377 328 450 300 10;
#X obj 96 41 loadbang;
#X obj 114 173 random;
#X obj 96 62 t b b b;
#X obj 138 144 - \$1;
#X obj 136 84 \$2;
#X obj 98 236 del;
#X obj 55 38 t b;
#X obj 114 194 + \$1;
#X obj 136 105 sel 0;
#X msg 136 125 5;
#X obj 114 215 * 1000;
#X obj 98 257 outlet;
#X obj 209 29 inlet;
#X obj 259 30 inlet;
#X connect 0 0 2 0;
#X connect 1 0 7 0;
#X connect 2 0 5 0;
#X connect 2 1 1 0;
#X connect 2 2 4 0;
#X connect 3 0 1 1;
#X connect 4 0 8 0;
#X connect 5 0 6 0;
#X connect 5 0 11 0;
#X connect 6 0 2 0;
#X connect 7 0 10 0;
#X connect 8 0 9 0;
#X connect 8 1 3 0;
#X connect 9 0 3 0;
#X connect 10 0 5 1;
#X connect 12 0 4 1;
#X connect 13 0 3 1;
#X connect 13 0 7 1;
