#N canvas 32 347 465 336 10;
#X obj 29 110 until;
#X obj 29 84 t f f;
#X obj 29 133 hoc.counter;
#X obj 29 8 loadbang;
#X obj 29 30 \$3;
#X obj 29 157 t b f b, f 19;
#X obj 29 181 symbol \$1;
#X obj 171 200 symbol \$2;
#X obj 28 59 max 1;
#X text 74 58 prevent infinite loop;
#X text 58 29 number of instances;
#X obj 105 183 * 20;
#X obj 30 226 pack s f s, f 17;
#X msg 30 252 \; \$1 obj 20 \$2 \$3;
#X obj 105 205 + 100;
#X connect 0 0 2 0;
#X connect 1 0 0 0;
#X connect 1 1 2 1;
#X connect 1 1 0 1;
#X connect 2 0 5 0;
#X connect 3 0 4 0;
#X connect 4 0 8 0;
#X connect 5 0 6 0;
#X connect 5 1 11 0;
#X connect 5 2 7 0;
#X connect 6 0 12 0;
#X connect 7 0 12 2;
#X connect 8 0 1 0;
#X connect 11 0 14 0;
#X connect 12 0 13 0;
#X connect 14 0 12 1;
