#N canvas 107 219 576 426 10;
#X obj 136 96 env~;
#X obj 40 22 inlet~;
#X obj 105 233 line~;
#X obj 136 140 change;
#X obj 136 162 sel 0 1;
#X obj 105 210 pack 1 f;
#X obj 215 158 value \$0-attack;
#X obj 40 272 *~;
#X obj 167 234 line~;
#X obj 294 185 value \$0-release;
#X obj 167 211 pack 0 f;
#X obj 40 294 outlet~;
#X obj 136 118 <;
#X obj 314 67 \$1;
#X obj 431 69 \$2;
#X obj 475 68 \$3;
#X obj 314 87 sel 0;
#X msg 314 109 30;
#X obj 177 67 inlet threshold;
#X obj 177 91 clip 0 100;
#X obj 314 46 loadbang;
#X obj 430 89 sel 0;
#X msg 430 111 30;
#X obj 430 48 loadbang;
#X obj 402 25 inlet threshold;
#X obj 353 295 hoc.init-value;
#X connect 0 0 12 0;
#X connect 1 0 0 0;
#X connect 1 0 7 0;
#X connect 2 0 7 1;
#X connect 3 0 4 0;
#X connect 4 0 5 0;
#X connect 4 1 10 0;
#X connect 5 0 2 0;
#X connect 6 0 5 1;
#X connect 7 0 11 0;
#X connect 8 0 7 1;
#X connect 9 0 10 1;
#X connect 10 0 8 0;
#X connect 12 0 3 0;
#X connect 13 0 16 0;
#X connect 13 0 19 0;
#X connect 14 0 21 0;
#X connect 16 0 17 0;
#X connect 17 0 19 0;
#X connect 18 0 19 0;
#X connect 19 0 12 1;
#X connect 20 0 13 0;
#X connect 21 0 22 0;
#X connect 23 0 14 0;
