#N canvas 32 107 512 230 10;
#X obj 230 138 table \$0-sample;
#X obj 13 100 tabplay~ \$0-sample;
#X obj 153 138 soundfiler;
#X obj 206 71 \$0;
#X obj 206 49 loadbang;
#X obj 153 93 pack s f;
#X msg 153 117 read -resize \$1 \$2-sample;
#X obj 12 125 outlet~;
#X obj 13 74 inlet play;
#X obj 95 125 outlet;
#X obj 283 63 symbol \$1;
#X obj 348 62 \$0;
#X obj 282 24 loadbang;
#X obj 283 82 pack s f;
#X obj 283 43 t b b;
#X obj 125 57 inlet file;
#X connect 1 0 7 0;
#X connect 1 1 9 0;
#X connect 3 0 5 1;
#X connect 4 0 3 0;
#X connect 5 0 6 0;
#X connect 6 0 2 0;
#X connect 8 0 1 0;
#X connect 10 0 13 0;
#X connect 11 0 13 1;
#X connect 12 0 14 0;
#X connect 13 0 6 0;
#X connect 14 0 10 0;
#X connect 14 1 11 0;
#X connect 15 0 5 0;
#X coords 0 230 1 229 20 30 0;
