#N canvas 0 0 450 300 10;
#X obj 168 97 line~;
#X obj 123 142 *~;
#X obj 168 74 pack f 10;
#X obj 232 97 line~;
#X obj 187 142 *~;
#X obj 232 74 pack f 10;
#X obj 122 173 outlet~;
#X obj 122 -3 inlet~;
#X obj 186 173 outlet~;
#X obj 206 -3 inlet onOff;
#X obj 206 18 sel 0 1;
#X msg 256 53 1;
#X msg 168 53 0;
#X msg 197 54 1;
#X msg 285 51 0;
#X obj 281 -4 loadbang;
#X connect 0 0 1 1;
#X connect 1 0 6 0;
#X connect 2 0 0 0;
#X connect 3 0 4 1;
#X connect 4 0 8 0;
#X connect 5 0 3 0;
#X connect 7 0 1 0;
#X connect 7 0 4 0;
#X connect 9 0 10 0;
#X connect 10 0 13 0;
#X connect 10 0 14 0;
#X connect 10 1 11 0;
#X connect 10 1 12 0;
#X connect 11 0 5 0;
#X connect 12 0 2 0;
#X connect 13 0 2 0;
#X connect 14 0 5 0;
#X connect 15 0 13 0;
#X connect 15 0 14 0;
