#N canvas 602 127 358 417 10;
#X obj 64 192 line;
#X obj 103 295 sig~;
#X obj 32 169 t b a;
#X obj 103 317 *~;
#X msg 32 148 1 \, 0 \$1;
#X obj 103 209 *;
#X obj 32 242 metro;
#X obj 121 150 / 10;
#X obj 56 107 t f f;
#X obj 57 88 max 150;
#X obj 32 371 outlet;
#X obj 57 54 \$1;
#X obj 57 27 inlet;
#X obj 104 372 outlet~;
#X obj 14 27 inlet;
#X obj 14 49 t b;
#X obj 103 231 sel 0;
#X msg 103 253 stop;
#X connect 0 0 1 0;
#X connect 0 0 5 0;
#X connect 1 0 3 0;
#X connect 1 0 3 1;
#X connect 2 0 6 0;
#X connect 2 1 0 0;
#X connect 3 0 13 0;
#X connect 4 0 2 0;
#X connect 5 0 6 1;
#X connect 5 0 16 0;
#X connect 6 0 10 0;
#X connect 7 0 5 1;
#X connect 7 0 6 1;
#X connect 8 0 4 0;
#X connect 8 1 7 0;
#X connect 9 0 8 0;
#X connect 11 0 9 0;
#X connect 12 0 11 0;
#X connect 14 0 15 0;
#X connect 15 0 11 0;
#X connect 16 0 17 0;
#X connect 17 0 6 0;
