#N canvas 725 29 546 636 10;
#X obj 43 27 inlet;
#X obj 26 538 outlet;
#X obj 43 49 - \$1;
#X obj 43 85 /;
#X obj 104 102 -;
#X obj 135 78 \$1;
#X obj 104 78 \$2;
#X obj 104 53 t b b;
#X obj 104 27 loadbang;
#X obj 95 462 -;
#X obj 95 414 t b b;
#X obj 95 394 loadbang;
#X obj 122 438 \$3;
#X obj 95 437 \$4;
#X obj 26 484 *;
#X obj 26 506 + \$3;
#X obj -29 335 * -1;
#X obj -29 355 + 1;
#X obj -29 404 * -1;
#X obj -29 423 + 1;
#X obj 74 201 abs;
#X obj 69 144 \$5;
#X obj 69 166 sel 0;
#X obj -29 311 spigot;
#X obj 28 309 spigot;
#X obj 82 312 spigot;
#X obj -29 380 pow 2;
#X obj 82 373 pow 2;
#X msg 42 241 1;
#X msg 9 240 0;
#X obj 107 202 > 0;
#X obj 117 227 * -1;
#X obj 118 247 + 1;
#X obj 155 227 * -1;
#X obj 156 247 + 1;
#X obj 145 202 < 0;
#X obj 69 124 loadbang;
#X obj 217 9 inlet minimum_in;
#X obj 227 52 inlet maximum_in;
#X obj 244 298 inlet minimum_out;
#X obj 275 346 inlet maximum_out;
#X obj 377 108 inlet transfert;
#X obj 218 29 t b f;
#X obj 244 320 t b f;
#X connect 0 0 2 0;
#X connect 2 0 3 0;
#X connect 3 0 23 0;
#X connect 3 0 24 0;
#X connect 3 0 25 0;
#X connect 4 0 3 1;
#X connect 5 0 4 1;
#X connect 6 0 4 0;
#X connect 7 0 6 0;
#X connect 7 1 5 0;
#X connect 8 0 7 0;
#X connect 9 0 14 1;
#X connect 10 0 13 0;
#X connect 10 1 12 0;
#X connect 11 0 10 0;
#X connect 12 0 9 1;
#X connect 13 0 9 0;
#X connect 14 0 15 0;
#X connect 15 0 1 0;
#X connect 16 0 17 0;
#X connect 17 0 26 0;
#X connect 18 0 19 0;
#X connect 19 0 14 0;
#X connect 20 0 27 1;
#X connect 20 0 26 1;
#X connect 21 0 22 0;
#X connect 22 0 28 0;
#X connect 22 0 29 0;
#X connect 22 1 20 0;
#X connect 22 1 30 0;
#X connect 22 1 35 0;
#X connect 23 0 16 0;
#X connect 24 0 14 0;
#X connect 25 0 27 0;
#X connect 26 0 18 0;
#X connect 27 0 14 0;
#X connect 28 0 24 1;
#X connect 29 0 25 1;
#X connect 29 0 23 1;
#X connect 30 0 25 1;
#X connect 30 0 31 0;
#X connect 31 0 32 0;
#X connect 32 0 24 1;
#X connect 32 0 23 1;
#X connect 33 0 34 0;
#X connect 34 0 24 1;
#X connect 34 0 25 1;
#X connect 35 0 33 0;
#X connect 35 0 23 1;
#X connect 36 0 21 0;
#X connect 37 0 2 1;
#X connect 37 0 42 0;
#X connect 38 0 6 0;
#X connect 39 0 15 1;
#X connect 39 0 43 0;
#X connect 40 0 13 0;
#X connect 41 0 21 0;
#X connect 42 0 7 0;
#X connect 42 1 5 1;
#X connect 43 0 10 0;
#X connect 43 1 12 1;
