#N canvas 465 167 450 300 10;
#X obj 85 98 spigot;
#X obj 85 74 pipe 1;
#X obj 86 120 clip 0 1;
#X obj 86 142 outlet;
#X obj 60 10 notein \$3;
#X obj 60 73 >;
#X obj 75 32 inlet minimum;
#X obj 112 -30 inlet maximum;
#X obj 32 72 <;
#X obj 32 97 change;
#X obj 75 52 \$1;
#X obj 21 -1 \$2;
#X obj 21 19 sel 0;
#X msg 21 41 127;
#X connect 0 0 2 0;
#X connect 1 0 0 0;
#X connect 2 0 3 0;
#X connect 4 0 5 0;
#X connect 4 0 8 0;
#X connect 4 1 1 0;
#X connect 5 0 9 0;
#X connect 6 0 10 0;
#X connect 7 0 11 0;
#X connect 8 0 9 0;
#X connect 9 0 0 1;
#X connect 10 0 5 1;
#X connect 11 0 12 0;
#X connect 12 0 13 0;
#X connect 12 1 8 1;
#X connect 13 0 8 1;
