#N canvas 2071 144 574 527 10;
#X obj 31 18 key;
#X obj 115 471 outlet;
#X msg 115 355 \$1 127;
#X obj 32 120 sel 113 115 100 102 106 107 108 109, f 36;
#X msg 32 224 60;
#X msg 82 224 62;
#X msg 137 224 64;
#X msg 192 224 65;
#X msg 246 223 67;
#X msg 304 224 69;
#X msg 354 225 71;
#X msg 406 225 72;
#X obj 304 125 sel 122 101 117 105 111, f 27;
#X msg 51 248 61;
#X msg 105 247 63;
#X msg 214 246 66;
#X msg 268 246 68;
#X msg 322 247 70;
#X obj 115 410 makenote 127 100;
#X obj 115 380 unpack;
#X obj 115 444 pack f f;
#X obj 290 353 \$1;
#X obj 290 377 sel 0;
#X msg 289 400 100;
#X obj 286 426 clip 10 1000;
#X obj 289 330 loadbang;
#X obj 342 379 inlet;
#X connect 0 0 3 0;
#X connect 0 0 12 0;
#X connect 2 0 19 0;
#X connect 3 0 4 0;
#X connect 3 1 5 0;
#X connect 3 2 6 0;
#X connect 3 3 7 0;
#X connect 3 4 8 0;
#X connect 3 5 9 0;
#X connect 3 6 10 0;
#X connect 3 7 11 0;
#X connect 4 0 2 0;
#X connect 5 0 2 0;
#X connect 6 0 2 0;
#X connect 7 0 2 0;
#X connect 8 0 2 0;
#X connect 9 0 2 0;
#X connect 10 0 2 0;
#X connect 11 0 2 0;
#X connect 12 0 13 0;
#X connect 12 1 14 0;
#X connect 12 2 15 0;
#X connect 12 3 16 0;
#X connect 12 4 17 0;
#X connect 13 0 2 0;
#X connect 14 0 2 0;
#X connect 15 0 2 0;
#X connect 16 0 2 0;
#X connect 17 0 2 0;
#X connect 18 0 20 0;
#X connect 18 1 20 1;
#X connect 19 0 18 0;
#X connect 19 1 18 1;
#X connect 20 0 1 0;
#X connect 21 0 22 0;
#X connect 22 0 23 0;
#X connect 22 1 24 0;
#X connect 23 0 24 0;
#X connect 24 0 18 2;
#X connect 25 0 21 0;
#X connect 26 0 24 0;
