#N canvas 224 29 984 576 10;
#X obj 143 133 openpanel;
#X obj 143 205 soundfiler;
#X obj 143 160 pack s f;
#X msg 143 184 read -resize \$1 \$2-sample;
#X obj 143 114 bng 15 250 50 0 empty \$0-openfile empty 17 7 0 10 -262144
-1 -1;
#N canvas 0 50 450 250 (subpatch) 0;
#X array \$0-sample 62079 float 2;
#X coords 0 1 62079 -1 200 140 1;
#X restore 283 295 graph;
#X obj 143 258 s \$0-nb_samples;
#X obj 184 86 loadbang;
#X obj 184 108 \$0;
#X obj 349 123 s \$0-duration;
#X floatatom 349 102 5 0 0 0 - - -, f 5;
#X obj 150 474 catch~ \$0-bus1;
#X obj 480 126 s \$0-duration-rand;
#X obj 483 106 hsl 128 15 0 1 0 0 empty empty empty -2 -8 0 10 -262144
-1 -1 0 1;
#X obj 599 438 pack \$0 \$1 f;
#X obj 680 417 * 20;
#X obj 603 396 t b f f;
#X obj 603 350 until;
#X obj 603 372 f;
#X obj 633 373 + 1;
#X obj 603 304 t f b;
#X msg 635 327 0;
#X obj 565 272 t b f b;
#X obj 349 82 r \$0-refresh;
#X obj 144 235 f;
#X obj 45 209 r \$0-refresh;
#X obj 541 326 s \$0-refresh;
#X obj 618 127 s \$0-window;
#X msg 638 102 gaussian;
#X msg 632 76 hann;
#X obj 565 196 loadbang;
#X obj 565 218 \$1;
#X obj 150 496 outlet~;
#X obj 562 243 clip 1 32;
#X msg 417 54 50;
#X obj 417 32 loadbang;
#X obj 765 73 inlet file;
#X obj 766 95 s \$0-openfile;
#X obj 728 188 hoc.window.hann \$0-hann;
#X obj 483 53 inlet duration-rand;
#X obj 313 57 inlet duration;
#X obj 728 142 inlet window_width;
#X text 680 163 [hoc.window.hann \$0-hann];
#X msg 654 205 2;
#N canvas 0 29 450 300 \$0-voices 0;
#X restore 282 442 pd \$0-voices;
#X obj 698 302 \$0;
#X obj 698 281 bng 15 250 50 0 empty empty empty 17 7 0 10 -262144
-1 -1;
#X msg 698 324 \; pd-\$1-voices clear;
#X msg 599 467 \; pd-\$1-voices obj 100 \$3 abstractions/granvoice~
\$1 \$2 \; pd-\$1-voices loadbang \; pd dsp 0 \; pd dsp 1;
#X connect 0 0 2 0;
#X connect 1 0 24 0;
#X connect 2 0 3 0;
#X connect 3 0 1 0;
#X connect 4 0 0 0;
#X connect 7 0 8 0;
#X connect 8 0 2 1;
#X connect 10 0 9 0;
#X connect 11 0 32 0;
#X connect 13 0 12 0;
#X connect 14 0 48 0;
#X connect 15 0 14 2;
#X connect 16 0 14 0;
#X connect 16 1 14 1;
#X connect 16 2 15 0;
#X connect 17 0 18 0;
#X connect 18 0 19 0;
#X connect 18 0 16 0;
#X connect 19 0 18 1;
#X connect 20 0 17 0;
#X connect 20 1 21 0;
#X connect 21 0 18 1;
#X connect 22 0 26 0;
#X connect 22 1 20 0;
#X connect 22 2 45 0;
#X connect 23 0 10 0;
#X connect 24 0 6 0;
#X connect 25 0 24 0;
#X connect 28 0 27 0;
#X connect 29 0 27 0;
#X connect 30 0 31 0;
#X connect 31 0 33 0;
#X connect 33 0 22 0;
#X connect 34 0 10 0;
#X connect 35 0 34 0;
#X connect 36 0 37 0;
#X connect 39 0 12 0;
#X connect 40 0 10 0;
#X connect 41 0 38 0;
#X connect 43 0 33 0;
#X connect 45 0 47 0;
#X connect 46 0 45 0;
#X coords 0 -1 1 1 60 30 1 100 100;
