#N canvas 657 242 450 300 10;
#X obj 219 124 table \$0-sample;
#X obj 13 87 tabplay~ \$0-sample;
#X obj 152 52 openpanel;
#X obj 152 124 soundfiler;
#X obj 196 31 \$0;
#X obj 196 9 loadbang;
#X obj 152 79 pack s f;
#X msg 152 103 read -resize \$1 \$2-sample;
#X obj 12 112 outlet~;
#X obj 13 61 inlet play;
#X obj 152 33 bng 15 250 50 0 empty empty empty 17 7 0 10 -262144 -1
-1;
#X obj 95 112 outlet;
#X obj 253 28 symbol \$1;
#X msg 253 67 read -resize \$1 \$2-sample;
#X obj 318 27 \$0;
#X obj 253 -13 loadbang;
#X obj 253 47 pack s f;
#X obj 253 8 t b b;
#X connect 1 0 8 0;
#X connect 1 1 11 0;
#X connect 2 0 6 0;
#X connect 4 0 6 1;
#X connect 5 0 4 0;
#X connect 6 0 7 0;
#X connect 7 0 3 0;
#X connect 9 0 1 0;
#X connect 10 0 2 0;
#X connect 12 0 16 0;
#X connect 13 0 3 0;
#X connect 14 0 16 1;
#X connect 15 0 17 0;
#X connect 16 0 13 0;
#X connect 17 0 12 0;
#X connect 17 1 14 0;
#X coords 0 -1 1 1 20 30 1 150 20;
