#N canvas 382 29 816 510 10;
#N canvas 832 355 485 373 randomwalk 0;
#X obj 123 113 f;
#X obj 104 198 random 4;
#X obj 26 197 random 2;
#X obj 123 138 t b b f;
#X obj 26 253 sel 0 1;
#X obj 159 328 +;
#X obj 123 87 metro 100;
#X obj 104 252 + 1;
#X obj 82 309 *;
#X msg 26 282 -1;
#X obj 242 83 moses 0;
#X obj 316 83 moses 100;
#X obj 242 107 * -1;
#X obj 407 86 * -1;
#X obj 407 111 + 200;
#X msg 60 282 1;
#X text 39 9 Random walk generator;
#X text 35 235 sign;
#X text 113 234 magnitude;
#X text 275 22 coercion to range 0-100 \; if out of range \, reflect
;
#X text 273 58 us back in.;
#X obj 258 265 outlet;
#X obj 258 187 f;
#X obj 123 54 inlet;
#X obj 169 55 r \$0-periode;
#X obj 255 228 * 0.01;
#X connect 0 0 3 0;
#X connect 1 0 7 0;
#X connect 2 0 4 0;
#X connect 3 0 2 0;
#X connect 3 1 1 0;
#X connect 3 2 5 1;
#X connect 4 0 9 0;
#X connect 4 1 15 0;
#X connect 5 0 10 0;
#X connect 6 0 0 0;
#X connect 7 0 8 1;
#X connect 8 0 5 0;
#X connect 9 0 8 0;
#X connect 10 0 12 0;
#X connect 10 1 11 0;
#X connect 11 0 22 0;
#X connect 11 1 13 0;
#X connect 12 0 22 0;
#X connect 13 0 14 0;
#X connect 14 0 22 0;
#X connect 15 0 8 0;
#X connect 22 0 0 1;
#X connect 22 0 25 0;
#X connect 23 0 6 0;
#X connect 24 0 6 1;
#X connect 25 0 21 0;
#X restore 211 338 pd randomwalk;
#X obj 139 22 loadbang;
#X obj 139 44 \$1;
#X obj 139 66 sel 0;
#X msg 139 87 4;
#X obj 209 28 inlet frequence;
#X obj 136 209 /;
#X obj 136 162 t b f;
#X msg 136 185 1;
#X obj 136 136 * 0.001;
#X obj 327 451 outlet;
#X obj 326 388 *;
#X obj 407 22 inlet depth;
#X obj 342 75 sel 0;
#X obj 342 53 \$2;
#X obj 343 23 loadbang;
#X msg 342 100 1;
#X obj 531 73 sel 0;
#X msg 531 98 2;
#X obj 580 27 inlet wavform;
#X obj 531 51 \$3;
#X obj 515 25 loadbang;
#X obj 531 180 sel 1 2 3, f 36;
#N canvas 638 91 567 434 vagues 1;
#X obj 88 159 inlet;
#X obj 88 214 metro 100;
#X obj 88 236 random 100;
#X obj 89 313 line;
#X obj 88 284 pack f 100;
#X obj 89 335 outlet;
#X obj 170 155 r \$0-periode;
#X obj 88 258 / 100;
#X connect 0 0 1 0;
#X connect 1 0 2 0;
#X connect 2 0 7 0;
#X connect 3 0 5 0;
#X connect 4 0 3 0;
#X connect 6 0 1 1;
#X connect 6 0 4 1;
#X connect 7 0 4 0;
#X restore 445 295 pd vagues;
#X obj 563 156 s \$0-allstop;
#X obj 133 259 s \$0-periode;
#X obj 59 233 print periode;
#X obj 139 111 clip 0.0001 100;
#X obj 531 124 t f b;
#X msg 582 132 0;
#X obj 461 256 r \$0-allstop;
#X obj 167 296 r \$0-allstop;
#X connect 0 0 11 0;
#X connect 1 0 2 0;
#X connect 2 0 3 0;
#X connect 3 0 4 0;
#X connect 3 1 27 0;
#X connect 4 0 27 0;
#X connect 5 0 27 0;
#X connect 6 0 25 0;
#X connect 6 0 26 0;
#X connect 7 0 8 0;
#X connect 7 1 6 1;
#X connect 8 0 6 0;
#X connect 9 0 7 0;
#X connect 11 0 10 0;
#X connect 12 0 14 0;
#X connect 13 0 16 0;
#X connect 13 1 11 1;
#X connect 14 0 13 0;
#X connect 15 0 14 0;
#X connect 16 0 11 1;
#X connect 17 0 18 0;
#X connect 17 1 28 0;
#X connect 18 0 28 0;
#X connect 19 0 20 0;
#X connect 20 0 17 0;
#X connect 21 0 20 0;
#X connect 22 1 0 0;
#X connect 22 2 23 0;
#X connect 23 0 11 0;
#X connect 27 0 9 0;
#X connect 28 0 22 0;
#X connect 28 1 29 0;
#X connect 29 0 24 0;
#X connect 30 0 23 0;
#X connect 31 0 0 0;
