#N canvas 112 123 450 300 10;
#X obj 189 63 spigot;
#X obj 218 30 pipe 1;
#X obj 190 85 clip 0 1;
#X obj 190 107 outlet;
#X obj 167 29 == \$1;
#X obj 167 3 notein \$2;
#X connect 0 0 2 0;
#X connect 1 0 0 0;
#X connect 2 0 3 0;
#X connect 4 0 0 1;
#X connect 5 0 4 0;
#X connect 5 1 1 0;
