#N canvas 0 29 771 248 10;
#N canvas 0 50 608 388 hanning-table 0;
#X obj 92 206 phasor~;
#X obj 92 234 cos~;
#X obj 30 252 -~;
#X obj 28 218 sig~ 1;
#X msg 37 180 0;
#X text 141 13 CALCULATE HANNING;
#X text 141 27 WINDOW TABLE;
#N canvas 0 50 450 300 (subpatch) 0;
#X array \$0-hanning 512 float 0;
#X coords 0 1 511 0 256 128 1 0 0;
#X restore 305 93 graph;
#X obj 93 171 sig~;
#X text 24 354 sample rate / window size;
#X msg 23 144 bang;
#X obj 66 269 sig~ 0.5;
#X obj 49 300 *~;
#X obj 67 96 samplerate~;
#X obj 25 53 t b f;
#X obj 25 8 loadbang;
#X msg 25 31 512;
#X obj 94 131 / 512;
#X obj 23 328 tabwrite~ \$0-hanning;
#X connect 0 0 1 0;
#X connect 1 0 2 1;
#X connect 2 0 12 0;
#X connect 3 0 2 0;
#X connect 4 0 0 1;
#X connect 8 0 0 0;
#X connect 10 0 4 0;
#X connect 10 0 18 0;
#X connect 11 0 12 1;
#X connect 12 0 18 0;
#X connect 13 0 17 0;
#X connect 14 0 13 0;
#X connect 14 0 10 0;
#X connect 14 1 17 1;
#X connect 15 0 16 0;
#X connect 16 0 14 0;
#X connect 17 0 8 0;
#X restore 74 112 pd hanning-table;
#N canvas 7 115 328 354 fft-analysis 0;
#X obj 69 15 inlet~;
#X obj 43 74 rfft~;
#X obj 37 123 *~;
#X obj 81 124 *~;
#X obj 49 167 +~;
#X obj 49 196 sqrt~;
#X obj 171 209 block~ 512 2;
#X obj 164 99 *~;
#X obj 69 36 /~ 8;
#X obj 51 249 clip~ 0 1;
#X obj 27 297 tabsend~ \$0-response;
#X obj 182 61 tabreceive~ \$0-hanning;
#X connect 0 0 8 0;
#X connect 1 0 2 0;
#X connect 1 0 2 1;
#X connect 1 1 3 0;
#X connect 1 1 3 1;
#X connect 2 0 4 0;
#X connect 3 0 4 1;
#X connect 4 0 5 0;
#X connect 5 0 9 0;
#X connect 7 0 1 0;
#X connect 8 0 7 0;
#X connect 9 0 10 0;
#X connect 11 0 7 1;
#X restore 53 50 pd fft-analysis;
#N canvas 0 50 450 300 (subpatch) 0;
#X array \$0-response 256 float 0;
#X coords 0 1 255 0 256 140 1 0 0;
#X restore 351 31 graph;
#X obj 53 27 inlet~;
#X connect 3 0 1 0;
#X coords 0 -1 1 1 257 142 2 350 30;
