#N canvas 116 58 705 324 10;
#X obj 115 174 hoc.retrigger2~, f 25;
#X obj 115 47 bng 15 250 50 0 empty empty empty 17 7 0 10 -262144 -1
-1;
#X obj 116 241 h.output~;
#X obj 115 66 hoc.play~ ./samples/voice.wav;
#X floatatom 287 146 5 0 0 0 - - -, f 5;
#X text 228 146 Click!;
#X text 323 142 Changer la vitesse;
#X text 9 7 Retrigger;
#X obj 115 20 loadbang;
#X text 345 57 Basé sur un tableau;
#X text 345 70 voir hoc.retrigger~ basé sur [delwrite~];
#X msg 201 147 100;
#X text 336 183 0 = vitesse normale;
#X connect 0 0 2 0;
#X connect 0 0 2 1;
#X connect 1 0 3 0;
#X connect 3 0 0 0;
#X connect 3 1 1 0;
#X connect 4 0 0 2;
#X connect 8 0 1 0;
#X connect 11 0 0 1;
