#N canvas 28 310 450 300 10;
#X obj 25 48 inlet~;
#X obj 137 67 inlet freq;
#X obj 127 130 sel 0;
#X obj 128 90 loadbang;
#X obj 126 171 clip 0 20000;
#X obj 126 211 line~;
#X obj 126 191 pack f 20;
#X obj 26 170 *~;
#X obj 25 208 outlet~;
#X obj 127 109 \$1;
#X msg 126 150 100;
#X obj 41 118 hoc.square~;
#X obj 211 128 sel 0;
#X obj 212 88 loadbang;
#X obj 222 65 inlet~ pwm;
#X obj 211 107 \$2;
#X msg 210 148 0.5;
#X obj 210 169 clip~ -0.5 0.5;
#X connect 0 0 7 0;
#X connect 1 0 4 0;
#X connect 2 0 10 0;
#X connect 2 1 4 0;
#X connect 3 0 9 0;
#X connect 4 0 6 0;
#X connect 5 0 11 0;
#X connect 6 0 5 0;
#X connect 7 0 8 0;
#X connect 9 0 2 0;
#X connect 10 0 4 0;
#X connect 11 0 7 1;
#X connect 12 0 16 0;
#X connect 12 1 17 0;
#X connect 13 0 15 0;
#X connect 14 0 17 0;
#X connect 15 0 12 0;
#X connect 16 0 17 0;
#X connect 17 0 11 1;
