#N canvas 59 267 586 480 10;
#X obj 125 97 hoc.midipanic;
#X text 296 31 inlet1:bang pour déclencher le midipanic;
#X obj 250 205 makenote 127 100;
#X obj 253 140 metro 200;
#X obj 250 168 f;
#X obj 286 169 + 1;
#X obj 253 95 loadbang;
#X obj 253 117 t b b;
#X msg 325 141 60;
#X obj 251 235 pack f f;
#X obj 251 260 poly 4;
#X obj 251 305 route 1 2 3 4;
#X obj 251 283 pack f f f;
#N canvas 1 82 450 370 voice 0;
#X obj 147 116 inlet;
#X obj 146 140 unpack f f;
#X obj 206 179 / 127;
#X obj 143 176 mtof;
#X obj 146 215 osc~;
#X obj 146 247 *~;
#X obj 146 332 outlet~;
#X obj 109 215 osc~;
#X obj 110 190 * 2;
#X obj 146 301 *~ 0.1;
#X obj 148 276 clip~ -0.5 0.5;
#X connect 0 0 1 0;
#X connect 1 0 3 0;
#X connect 1 1 2 0;
#X connect 2 0 5 1;
#X connect 3 0 4 0;
#X connect 3 0 8 0;
#X connect 4 0 5 0;
#X connect 5 0 10 0;
#X connect 7 0 5 0;
#X connect 8 0 7 0;
#X connect 9 0 6 0;
#X connect 10 0 9 0;
#X restore 253 332 pd voice;
#X obj 253 401 hipp~ 50;
#N canvas 1 82 450 370 voice 0;
#X obj 147 116 inlet;
#X obj 146 140 unpack f f;
#X obj 206 179 / 127;
#X obj 143 176 mtof;
#X obj 146 215 osc~;
#X obj 146 247 *~;
#X obj 146 332 outlet~;
#X obj 109 215 osc~;
#X obj 110 190 * 2;
#X obj 146 301 *~ 0.1;
#X obj 148 276 clip~ -0.5 0.5;
#X connect 0 0 1 0;
#X connect 1 0 3 0;
#X connect 1 1 2 0;
#X connect 2 0 5 1;
#X connect 3 0 4 0;
#X connect 3 0 8 0;
#X connect 4 0 5 0;
#X connect 5 0 10 0;
#X connect 7 0 5 0;
#X connect 8 0 7 0;
#X connect 9 0 6 0;
#X connect 10 0 9 0;
#X restore 263 342 pd voice;
#N canvas 1 82 450 370 voice 0;
#X obj 147 116 inlet;
#X obj 146 140 unpack f f;
#X obj 206 179 / 127;
#X obj 143 176 mtof;
#X obj 146 215 osc~;
#X obj 146 247 *~;
#X obj 146 332 outlet~;
#X obj 109 215 osc~;
#X obj 110 190 * 2;
#X obj 146 301 *~ 0.1;
#X obj 148 276 clip~ -0.5 0.5;
#X connect 0 0 1 0;
#X connect 1 0 3 0;
#X connect 1 1 2 0;
#X connect 2 0 5 1;
#X connect 3 0 4 0;
#X connect 3 0 8 0;
#X connect 4 0 5 0;
#X connect 5 0 10 0;
#X connect 7 0 5 0;
#X connect 8 0 7 0;
#X connect 9 0 6 0;
#X connect 10 0 9 0;
#X restore 273 352 pd voice;
#N canvas 1 82 450 370 voice 0;
#X obj 147 116 inlet;
#X obj 146 140 unpack f f;
#X obj 206 179 / 127;
#X obj 143 176 mtof;
#X obj 146 215 osc~;
#X obj 146 247 *~;
#X obj 146 332 outlet~;
#X obj 109 215 osc~;
#X obj 110 190 * 2;
#X obj 146 301 *~ 0.1;
#X obj 148 276 clip~ -0.5 0.5;
#X connect 0 0 1 0;
#X connect 1 0 3 0;
#X connect 1 1 2 0;
#X connect 2 0 5 1;
#X connect 3 0 4 0;
#X connect 3 0 8 0;
#X connect 4 0 5 0;
#X connect 5 0 10 0;
#X connect 7 0 5 0;
#X connect 8 0 7 0;
#X connect 9 0 6 0;
#X connect 10 0 9 0;
#X restore 283 362 pd voice;
#X obj 254 427 dac~;
#X msg 475 114 \; pd dsp 1;
#X obj 318 105 bng 15 250 50 0 empty empty empty 17 7 0 10 -262144
-1 -1;
#X obj 324 183 sel 1;
#X obj 373 208 makenote 127 100;
#X obj 373 229 pack f f;
#X obj 373 187 + 3;
#X obj 477 205 makenote 127 100;
#X obj 477 226 pack f f;
#X obj 477 185 + 7;
#X obj 475 92 loadbang;
#X obj 324 161 > 90;
#X msg 136 199 60 127;
#X obj 136 173 del 5000;
#X obj 125 76 bng 15 250 50 0 empty empty empty 17 7 0 10 -262144 -1
-1;
#X text 145 64 cliquer ici pour éteindre cette note qui a oublié
son note off;
#X text 42 6 Pour éteindre les notes midi qui restent bloquées;
#X connect 0 0 10 0;
#X connect 2 0 9 0;
#X connect 2 1 9 1;
#X connect 3 0 4 0;
#X connect 4 0 5 0;
#X connect 4 0 2 0;
#X connect 4 0 24 0;
#X connect 4 0 27 0;
#X connect 4 0 29 0;
#X connect 5 0 4 1;
#X connect 6 0 7 0;
#X connect 6 0 31 0;
#X connect 7 0 3 0;
#X connect 7 1 8 0;
#X connect 8 0 4 1;
#X connect 9 0 10 0;
#X connect 10 0 12 0;
#X connect 10 1 12 1;
#X connect 10 2 12 2;
#X connect 11 0 13 0;
#X connect 11 1 15 0;
#X connect 11 2 16 0;
#X connect 11 3 17 0;
#X connect 12 0 11 0;
#X connect 13 0 14 0;
#X connect 14 0 18 0;
#X connect 14 0 18 1;
#X connect 15 0 14 0;
#X connect 16 0 14 0;
#X connect 17 0 14 0;
#X connect 20 0 7 0;
#X connect 21 0 8 0;
#X connect 22 0 23 0;
#X connect 22 1 23 1;
#X connect 23 0 10 0;
#X connect 24 0 22 0;
#X connect 25 0 26 0;
#X connect 25 1 26 1;
#X connect 26 0 10 0;
#X connect 27 0 25 0;
#X connect 28 0 19 0;
#X connect 29 0 21 0;
#X connect 30 0 10 0;
#X connect 31 0 30 0;
#X connect 32 0 0 0;
