#N canvas 108 315 523 354 10;
#X obj -28 118 hoc.arpeggiator;
#X obj -28 215 hoc.sampler~;
#X obj -27 248 h.output~;
#X msg 53 185 ./samples/pianoC3.wav;
#X floatatom 6 75 5 0 0 2 nombre_de_notes nombre_de_notes -, f 5;
#X floatatom 52 95 5 1 2 2 algorithme algorithme -, f 5;
#X floatatom -28 48 5 10 200 2 BPM bpm -, f 5;
#N canvas 0 50 450 300 accords_midi 0;
#X obj 36 99 seq;
#X obj 66 100 bng 15 250 50 0 empty empty empty 17 7 0 10 -262144 -1
-1;
#X obj 36 122 midiparse;
#X msg 36 76 read ./datas/accords.mid;
#X obj 35 34 loadbang;
#X obj 35 54 t b b;
#X obj 36 151 outlet;
#X connect 0 0 2 0;
#X connect 0 1 1 0;
#X connect 1 0 0 0;
#X connect 2 0 6 0;
#X connect 3 0 0 0;
#X connect 4 0 5 0;
#X connect 5 0 1 0;
#X connect 5 1 3 0;
#X restore 138 88 pd accords_midi;
#X msg 213 146 \; bpm 120 \; nombre_de_notes 4 \; algorithme 1 \;;
#X obj 213 123 loadbang;
#X obj -28 93 * 4;
#X text 146 52 ! necessite Cyclone...;
#X text -31 6 Arpeggiator Midi;
#X connect 0 0 1 0;
#X connect 1 0 2 0;
#X connect 1 0 2 1;
#X connect 3 0 1 1;
#X connect 4 0 0 1;
#X connect 5 0 0 2;
#X connect 6 0 10 0;
#X connect 7 0 0 3;
#X connect 9 0 8 0;
#X connect 9 0 3 0;
#X connect 10 0 0 0;
