#N canvas 432 410 598 300 10;
#X obj 405 135 table \$0-sample;
#X obj 289 235 tabplay~ \$0-sample;
#X obj 47 185 soundfiler;
#X obj 59 30 \$0;
#X obj 59 8 loadbang;
#X obj 15 78 pack s f;
#X msg 15 118 read -resize \$1 \$2-sample;
#X obj 288 260 outlet~;
#X obj 148 56 symbol \$1;
#X obj 213 55 \$0;
#X obj 147 17 loadbang;
#X obj 148 75 pack s f;
#X obj 148 36 t b b;
#X obj 15 55 inlet openpanel;
#X obj 15 152 t b a;
#X obj 304 193 t b;
#X obj 285 118 inlet reset;
#X connect 1 0 7 0;
#X connect 1 1 15 0;
#X connect 3 0 5 1;
#X connect 4 0 3 0;
#X connect 5 0 6 0;
#X connect 6 0 14 0;
#X connect 8 0 11 0;
#X connect 9 0 11 1;
#X connect 10 0 12 0;
#X connect 11 0 6 0;
#X connect 12 0 8 0;
#X connect 12 1 9 0;
#X connect 13 0 5 0;
#X connect 14 0 1 0;
#X connect 14 1 2 0;
#X connect 15 0 1 0;
#X connect 16 0 15 0;
