#N canvas 417 309 203 235 10;
#X obj 13 36 list fromsymbol;
#X obj 13 137 list split;
#X obj 61 85 list length;
#X obj 13 58 t l l;
#X obj 11 164 list tosymbol;
#X obj 10 14 inlet;
#X obj 61 107 - \$1;
#X obj 11 186 outlet;
#X connect 0 0 3 0;
#X connect 1 1 4 0;
#X connect 2 0 6 0;
#X connect 3 0 1 0;
#X connect 3 1 2 0;
#X connect 4 0 7 0;
#X connect 5 0 0 0;
#X connect 6 0 1 1;
