#N canvas 274 279 450 300 10;
#X obj 25 48 inlet~;
#X obj 64 117 osc~;
#X obj 137 67 inlet freq;
#X obj 127 130 sel 0;
#X obj 128 90 loadbang;
#X obj 126 171 clip 0 20000;
#X obj 126 211 line~;
#X obj 126 191 pack f 20;
#X obj 26 170 *~;
#X obj 25 208 outlet~;
#X obj 127 109 \$1;
#X msg 126 150 100;
#X connect 0 0 8 0;
#X connect 1 0 8 1;
#X connect 2 0 5 0;
#X connect 3 0 11 0;
#X connect 3 1 5 0;
#X connect 4 0 10 0;
#X connect 5 0 7 0;
#X connect 6 0 1 0;
#X connect 7 0 6 0;
#X connect 8 0 9 0;
#X connect 10 0 3 0;
#X connect 11 0 5 0;
