#N canvas 325 119 652 576 10;
#X obj 185 184 sig~;
#X obj 28 223 expr~ int($v1 * ($v2)) / ($v2);
#X obj 185 161 pow 2;
#X text 214 65 bit depth;
#X obj 27 184 samphold~;
#X obj 291 155 phasor~;
#X text 319 59 samplerate;
#X obj 27 141 inlet~;
#X obj 351 35 inlet;
#X obj 291 36 loadbang;
#X obj 291 60 \$2;
#X obj 185 39 loadbang;
#X obj 185 63 \$1;
#X obj 185 138 clip 2 24;
#X obj 241 39 inlet;
#X obj 28 247 outlet~;
#X obj 185 85 sel 0;
#X msg 184 110 8;
#X obj 291 88 sel 0;
#X msg 290 113 22100;
#X obj 291 134 clip 90 44099;
#X connect 0 0 1 1;
#X connect 1 0 15 0;
#X connect 2 0 0 0;
#X connect 4 0 1 0;
#X connect 5 0 4 1;
#X connect 7 0 4 0;
#X connect 8 0 20 0;
#X connect 9 0 10 0;
#X connect 10 0 18 0;
#X connect 11 0 12 0;
#X connect 12 0 16 0;
#X connect 13 0 2 0;
#X connect 14 0 13 0;
#X connect 16 0 17 0;
#X connect 16 1 13 0;
#X connect 17 0 13 0;
#X connect 18 0 19 0;
#X connect 18 1 20 0;
#X connect 19 0 20 0;
#X connect 20 0 5 0;
