#N canvas 169 71 809 551 10;
#X obj 133 296 moses 25;
#X obj 211 297 moses 50;
#X obj 295 297 moses 75;
#X obj 171 237 25, f 4;
#X obj 264 265 50;
#X obj 348 264 75;
#X obj 171 211 + 25;
#X obj 263 232 + 50;
#X obj 350 231 + 75;
#X obj 133 322 t b;
#X obj 211 320 t b;
#X obj 295 321 t b;
#X obj 393 325 t b;
#X obj 121 495 outlet;
#X obj -28 227 random 100;
#X obj 133 372 random 25;
#X obj 211 372 random 25;
#X obj 295 370 random 25;
#X obj 393 371 random 25;
#X obj 211 400 + 25;
#X obj 294 399 + 50;
#X obj 393 400 + 75;
#X obj 47 13 loadbang;
#X obj 47 35 \$1;
#X obj 47 57 sel 0;
#X obj 47 102 clip 0.0001 20;
#X msg 47 78 4;
#X obj 117 19 inlet frequence;
#X obj 47 192 /;
#X obj 47 145 t b f;
#X msg 47 168 1;
#X obj 47 123 * 0.001;
#X obj 122 445 pack f f;
#X obj 121 471 line;
#X obj -15 352 f;
#X obj -37 317 sel 0 1;
#X obj -37 292 r \$0-interpolation;
#X obj -28 203 metro;
#X obj -100 177 loadbang;
#X obj -68 76 inlet reset;
#X obj -61 107 t b;
#X msg 18 351 0;
#X obj 519 76 s \$0-interpolation;
#X obj 519 30 loadbang;
#X obj 174 107 inlet band1;
#X obj 175 188 clip -25 25;
#X obj 263 208 clip -25 25;
#X obj 271 109 inlet band2;
#X obj 356 207 clip -25 25;
#X obj 378 110 inlet band2;
#X obj 195 162 \$2;
#X obj 194 138 loadbang;
#X obj 282 153 loadbang;
#X obj 283 177 \$3;
#X obj 382 154 loadbang;
#X obj 383 178 \$4;
#X obj 519 51 \$5;
#X connect 0 0 9 0;
#X connect 0 1 1 0;
#X connect 1 0 10 0;
#X connect 1 1 2 0;
#X connect 2 0 11 0;
#X connect 2 1 12 0;
#X connect 3 0 0 1;
#X connect 4 0 1 1;
#X connect 5 0 2 1;
#X connect 6 0 3 0;
#X connect 7 0 4 0;
#X connect 8 0 5 0;
#X connect 9 0 15 0;
#X connect 10 0 16 0;
#X connect 11 0 17 0;
#X connect 12 0 18 0;
#X connect 14 0 0 0;
#X connect 15 0 32 0;
#X connect 16 0 19 0;
#X connect 17 0 20 0;
#X connect 18 0 21 0;
#X connect 19 0 32 0;
#X connect 20 0 32 0;
#X connect 21 0 32 0;
#X connect 22 0 23 0;
#X connect 23 0 24 0;
#X connect 24 0 26 0;
#X connect 24 1 25 0;
#X connect 25 0 31 0;
#X connect 26 0 25 0;
#X connect 27 0 25 0;
#X connect 28 0 34 1;
#X connect 28 0 37 1;
#X connect 29 0 30 0;
#X connect 29 1 28 1;
#X connect 30 0 28 0;
#X connect 31 0 29 0;
#X connect 32 0 33 0;
#X connect 33 0 13 0;
#X connect 34 0 32 1;
#X connect 35 0 41 0;
#X connect 35 1 34 0;
#X connect 36 0 35 0;
#X connect 37 0 14 0;
#X connect 38 0 37 0;
#X connect 39 0 40 0;
#X connect 40 0 37 0;
#X connect 41 0 32 1;
#X connect 43 0 56 0;
#X connect 44 0 45 0;
#X connect 45 0 6 0;
#X connect 46 0 7 0;
#X connect 47 0 46 0;
#X connect 48 0 8 0;
#X connect 49 0 48 0;
#X connect 50 0 45 0;
#X connect 51 0 50 0;
#X connect 52 0 53 0;
#X connect 53 0 46 0;
#X connect 54 0 55 0;
#X connect 55 0 48 0;
#X connect 56 0 42 0;
