#N canvas 242 117 577 503 10;
#X obj 74 58 soundfiler;
#X obj 14 10 loadbang;
#X obj 19 280 inlet;
#X obj 18 326 outlet~;
#X obj 157 282 inlet;
#X obj 156 328 outlet~;
#X obj 73 102 soundfiler;
#X msg 74 36 read -resize ./samples/sample1.wav hocsample1;
#X msg 73 80 read -resize ./samples/sample2.wav hocsample2;
#X obj 296 280 inlet;
#X obj 295 326 outlet~;
#X obj 431 282 inlet;
#X obj 430 327 outlet~;
#X obj 14 32 t b b b b;
#X obj 74 148 soundfiler;
#X obj 73 192 soundfiler;
#X msg 74 126 read -resize ./samples/sample3.wav hocsample3;
#X msg 73 170 read -resize ./samples/sample4.wav hocsample4;
#X obj 404 43 table hocsample1;
#X obj 404 63 table hocsample2;
#X obj 404 84 table hocsample3;
#X obj 404 104 table hocsample4;
#X obj 19 304 tabplay~ hocsample1;
#X obj 157 304 tabplay~ hocsample2;
#X obj 296 304 tabplay~ hocsample3;
#X obj 431 304 tabplay~ hocsample4;
#X connect 1 0 13 0;
#X connect 2 0 22 0;
#X connect 4 0 23 0;
#X connect 7 0 0 0;
#X connect 8 0 6 0;
#X connect 9 0 24 0;
#X connect 11 0 25 0;
#X connect 13 0 8 0;
#X connect 13 1 7 0;
#X connect 13 2 17 0;
#X connect 13 3 16 0;
#X connect 16 0 14 0;
#X connect 17 0 15 0;
#X connect 22 0 3 0;
#X connect 23 0 5 0;
#X connect 24 0 10 0;
#X connect 25 0 12 0;
