#N canvas 488 307 450 300 10;
#X obj 58 10 inlet;
#X obj 63 166 outlet;
#X obj 58 107 f;
#X obj 94 106 + 1;
#X obj 58 60 route set goto;
#X obj -13 61 route jam;
#X obj 183 9 inlet;
#X obj 269 172 counter;
#X msg 182 80 0;
#X obj 182 40 sel 0 1 2;
#X connect 0 0 4 0;
#X connect 0 0 5 0;
#X connect 2 0 3 0;
#X connect 3 0 2 0;
#X connect 4 0 2 1;
#X connect 4 1 2 1;
#X connect 5 0 2 0;
#X connect 6 0 9 0;
