#N canvas 721 196 450 387 10;
#X obj 167 39 -;
#X obj 75 39 -;
#X obj 167 -3 t b b;
#X obj 140 -48 loadbang;
#X obj 194 17 \$1;
#X obj 167 17 \$2;
#X obj 75 17 \$4;
#X obj 102 16 \$3;
#X obj 75 -5 t b b;
#X obj 17 56 inlet;
#X obj 17 172 outlet;
#X obj 75 60 /;
#X obj 140 -26 t b b;
#X obj 17 95 *;
#X obj 133 126 \$1;
#X obj 160 126 \$3;
#X obj 133 75 loadbang;
#X obj 133 98 t b b;
#X obj 133 151 +;
#X obj 17 131 +;
#X text 47 132 offset;
#X text 46 93 factor;
#X connect 0 0 11 1;
#X connect 1 0 11 0;
#X connect 2 0 5 0;
#X connect 2 1 4 0;
#X connect 3 0 12 0;
#X connect 4 0 0 1;
#X connect 5 0 0 0;
#X connect 6 0 1 0;
#X connect 7 0 1 1;
#X connect 8 0 6 0;
#X connect 8 1 7 0;
#X connect 9 0 13 0;
#X connect 11 0 13 1;
#X connect 12 0 8 0;
#X connect 12 1 2 0;
#X connect 13 0 19 0;
#X connect 14 0 18 0;
#X connect 15 0 18 1;
#X connect 16 0 17 0;
#X connect 17 0 14 0;
#X connect 17 1 15 0;
#X connect 18 0 19 1;
#X connect 19 0 10 0;
