#N canvas 88 195 450 300 10;
#X obj 197 45 inlet;
#X obj 147 47 inlet~;
#X obj 148 132 outlet~;
#X obj 148 77 lop~ \$1;
#X obj 148 99 lop~ \$1;
#X connect 0 0 3 1;
#X connect 0 0 4 1;
#X connect 1 0 3 0;
#X connect 3 0 4 0;
#X connect 4 0 2 0;
