#N canvas 0 48 748 718 10;
#X obj 109 76 hsl 75 10 0 1.5 0 0 empty empty volume 0 5 1 10 -204786
-4034 -13381 0 1;
#X obj 44 37 inlet~;
#X obj 45 158 outlet~;
#X obj 106 115 line~;
#X obj 106 91 pack f 20;
#X obj 46 131 *~;
#X obj 138 26 loadbang;
#X msg 138 48 1;
#X obj 233 43 inlet;
#X connect 0 0 4 0;
#X connect 1 0 5 0;
#X connect 3 0 5 1;
#X connect 4 0 3 0;
#X connect 5 0 2 0;
#X connect 6 0 7 0;
#X connect 7 0 0 0;
#X connect 8 0 0 0;
#X coords 0 -1 1 1 90 20 2 100 70;
