#N canvas 549 29 621 484 10;
#X obj 117 176 catch~ \$0-l2;
#N canvas 7 92 450 300 seq 0;
#X obj 20 206 f;
#X obj 49 206 + 1;
#X msg 20 111 1;
#X obj 20 146 /;
#X obj 20 80 t b f;
#X obj 20 16 inlet BPM;
#X obj 62 153 loadbang;
#X obj 20 252 + 1;
#X obj 61 117 / 15000;
#X obj 20 230 % 16;
#X obj 20 273 s \$0-seq;
#X obj 20 180 metro 100;
#X obj 20 38 clip 1 1000;
#X obj 135 162 bng 15 250 50 0 empty empty empty 17 7 0 10 -262144
-1 -1;
#X connect 0 0 1 0;
#X connect 0 0 9 0;
#X connect 1 0 0 1;
#X connect 2 0 3 0;
#X connect 3 0 11 1;
#X connect 4 0 2 0;
#X connect 4 1 8 0;
#X connect 5 0 12 0;
#X connect 6 0 11 0;
#X connect 7 0 10 0;
#X connect 8 0 3 1;
#X connect 9 0 7 0;
#X connect 11 0 0 0;
#X connect 12 0 4 0;
#X connect 13 0 11 0;
#X restore 315 22 pd seq;
#X obj 26 175 catch~ \$0-l1;
#X obj 207 175 catch~ \$0-l3;
#X obj 298 175 catch~ \$0-l4;
#X obj 239 -6 inlet BPM;
#X obj 26 197 outlet~;
#X obj 117 197 outlet~;
#X obj 207 197 outlet~;
#X obj 297 197 outlet~;
#X obj 367 120 s \$0-change-step;
#X obj 367 100 + 1;
#X obj 367 80 r \$0-radio;
#X floatatom 239 18 5 0 0 0 - - -, f 5;
#X obj 65 17 hradio 15 1 0 4 \$0-radio empty empty 0 -8 0 10 -262144
-1 -1 0;
#X obj 128 17 bng 15 250 50 0 \$0-copy2next empty copy 17 7 0 10 -262144
-1 -1;
#X obj 21 35 abstractions/hoc.16steps_s~ \$0 l1;
#X obj 21 51 abstractions/hoc.16steps_s~ \$0 l2;
#X obj 21 66 abstractions/hoc.16steps_s~ \$0 l3;
#X obj 21 82 abstractions/hoc.16steps_s~ \$0 l4;
#X obj 444 55 loadbang;
#X msg 444 77 0;
#X connect 0 0 7 0;
#X connect 2 0 6 0;
#X connect 3 0 8 0;
#X connect 4 0 9 0;
#X connect 5 0 13 0;
#X connect 11 0 10 0;
#X connect 12 0 11 0;
#X connect 13 0 1 0;
#X connect 20 0 21 0;
#X connect 21 0 11 0;
#X coords 0 -1 1 1 260 90 1 20 15;
