#N canvas 564 109 621 484 10;
#X obj 81 171 catch~ \$0-l2;
#X obj 23 149 catch~ \$0-l1;
#X obj 138 191 catch~ \$0-l3;
#X obj 195 213 catch~ \$0-l4;
#X obj 240 25 inlet BPM;
#X obj 23 171 outlet~;
#X obj 81 192 outlet~;
#X obj 138 213 outlet~;
#X obj 194 235 outlet~;
#X obj 413 74 s \$0-change-step;
#X obj 413 54 + 1;
#X obj 413 34 r \$0-radio;
#X floatatom 240 55 5 1 1000 0 - - -, f 5;
#X obj 97 54 hradio 15 1 0 4 \$0-radio empty empty 0 -8 0 10 -262144
-1 -1 0;
#X obj 160 54 bng 15 250 50 0 \$0-copy2next empty copy 17 7 0 10 -262144
-1 -1;
#X obj 318 18 loadbang;
#X msg 318 40 120;
#X obj 22 73 abstractions/hoc.16step~ \$0 l1;
#X obj 22 89 abstractions/hoc.16step~ \$0 l2;
#X obj 22 105 abstractions/hoc.16step~ \$0 l3;
#X obj 22 121 abstractions/hoc.16step~ \$0 l4;
#X obj 315 197 f;
#X obj 344 197 + 1;
#X obj 315 243 + 1;
#X obj 315 221 % 16;
#X obj 315 264 s \$0-seq;
#N canvas 0 29 450 300 self-tempo 1;
#X msg 20 111 1;
#X obj 20 146 /;
#X obj 20 80 t b f;
#X obj 20 16 inlet BPM;
#X obj 62 153 loadbang;
#X obj 61 117 / 15000;
#X obj 20 180 metro 100;
#X obj 20 38 clip 1 1000;
#X obj 135 162 bng 15 250 50 0 empty empty empty 17 7 0 10 -262144
-1 -1;
#X obj 20 207 outlet;
#X connect 0 0 1 0;
#X connect 1 0 6 1;
#X connect 2 0 0 0;
#X connect 2 1 5 0;
#X connect 3 0 7 0;
#X connect 4 0 6 0;
#X connect 5 0 1 1;
#X connect 6 0 9 0;
#X connect 7 0 2 0;
#X connect 8 0 6 0;
#X restore 295 71 pd self-tempo;
#X obj 295 133 prepend 1;
#X obj 364 134 prepend 0;
#X obj 224 55 tgl 15 0 empty empty empty 17 7 0 10 -262144 -1 -1 0
1;
#X obj 364 112 r GLOBAL_TEMPO;
#X obj 314 173 route 0;
#X connect 0 0 6 0;
#X connect 1 0 5 0;
#X connect 2 0 7 0;
#X connect 3 0 8 0;
#X connect 4 0 12 0;
#X connect 10 0 9 0;
#X connect 11 0 10 0;
#X connect 12 0 26 0;
#X connect 15 0 16 0;
#X connect 16 0 12 0;
#X connect 21 0 22 0;
#X connect 21 0 24 0;
#X connect 22 0 21 1;
#X connect 23 0 25 0;
#X connect 24 0 23 0;
#X connect 26 0 27 0;
#X connect 27 0 31 0;
#X connect 28 0 31 0;
#X connect 29 0 31 1;
#X connect 30 0 28 0;
#X connect 31 0 21 0;
#X coords 0 -1 1 1 260 90 1 20 50;
