#N canvas 230 236 450 300 10;
#X obj 17 134 hoc.bitcrusher~;
#X obj 16 160 outlet~;
#X obj 58 86 hsl 70 10 80 44100 0 0 empty empty Samplerate 0 5 1 10
-261948 -258113 -261234 6900 1;
#X obj 58 69 hsl 70 10 4 8 0 0 empty empty bitdepth 0 5 1 10 -261948
-258113 -261234 0 1;
#X obj 16 9 inlet~;
#X msg 144 62 8;
#X msg 143 82 22100;
#X obj 165 23 loadbang;
#X connect 0 0 1 0;
#X connect 2 0 0 2;
#X connect 3 0 0 1;
#X connect 4 0 0 0;
#X connect 5 0 3 0;
#X connect 6 0 2 0;
#X connect 7 0 5 0;
#X connect 7 0 6 0;
#X coords 0 -1 1 1 85 50 1 50 50;
