#N canvas 119 31 450 300 10;
#X obj 103 218 tgl 15 0 empty empty empty 17 7 0 10 -261682 -260097
-86853 0 1;
#X obj 32 69 hoc.calibrate;
#X obj 29 47 inlet;
#X obj 23 137 outlet;
#X obj 101 236 nbx 4 12 -1e+37 1e+37 0 0 empty empty empty 0 -8 0 10
-261682 -260097 -86853 0 256;
#X obj 141 236 nbx 4 12 -1e+37 1e+37 0 0 empty empty empty 0 -8 0 10
-261682 -260097 -86853 0 256;
#X obj 121 218 bng 15 250 50 0 empty empty empty 17 7 0 10 -261682
-260097 -86853;
#X obj 155 105 f;
#X obj 155 127 + 1;
#X obj 155 83 metro 400;
#X obj 137 218 bng 15 250 50 0 empty empty empty 17 7 0 10 -261682
-260097 -86853;
#X obj 153 218 bng 15 250 50 0 empty empty empty 17 7 0 10 -261682
-260097 -86853;
#X obj 168 218 bng 15 250 50 0 empty empty empty 17 7 0 10 -261682
-260097 -86853;
#X obj 155 171 sel 0 1 2 3;
#X obj 155 149 % 4;
#X connect 0 0 1 3;
#X connect 0 0 9 0;
#X connect 1 0 3 0;
#X connect 1 1 4 0;
#X connect 1 2 5 0;
#X connect 2 0 1 0;
#X connect 7 0 8 0;
#X connect 8 0 7 1;
#X connect 8 0 14 0;
#X connect 9 0 7 0;
#X connect 13 0 6 0;
#X connect 13 1 10 0;
#X connect 13 2 11 0;
#X connect 13 3 12 0;
#X connect 14 0 13 0;
#X coords 0 -1 1 1 85 50 1 100 200;
