#N canvas 511 283 450 300 10;
#X obj 208 203 outlet;
#X obj 106 117 hsl 70 10 0 3000 0 0 empty empty empty -2 -8 0 10 -262130
-257985 -83269 5900 1;
#X obj 103 50 loadbang;
#X msg 103 71 600;
#X obj 187 148 hoc.cloud;
#X obj 233 88 inlet;
#X connect 1 0 4 0;
#X connect 2 0 3 0;
#X connect 3 0 1 0;
#X connect 4 0 0 0;
#X connect 5 0 4 0;
#X coords 0 -1 1 1 85 30 1 100 100;
