#N canvas 0 48 748 718 10;
#X obj 101 185 hoc.dd7~;
#X obj 31 21 inlet~;
#X obj 50 233 outlet~;
#X obj 107 116 hsl 70 10 10 2000 0 0 empty empty time 0 5 1 10 -203904
-4160 -16662 37 1;
#X obj 107 127 hsl 70 10 0 1 0 0 empty empty feedback 0 5 1 10 -203904
-4160 -16662 2760 1;
#X msg 205 113 120;
#X msg 207 137 0.7;
#X obj 241 87 loadbang;
#X obj 147 107 hradio 8 1 0 4 empty empty empty 0 -8 0 10 -262144 -1
-1 0;
#X obj 232 236 + 1;
#X obj 185 32 inlet;
#X obj 237 32 inlet;
#X connect 0 0 2 0;
#X connect 1 0 0 0;
#X connect 3 0 0 1;
#X connect 4 0 0 2;
#X connect 5 0 3 0;
#X connect 6 0 4 0;
#X connect 7 0 5 0;
#X connect 7 0 6 0;
#X connect 8 0 9 0;
#X connect 9 0 0 3;
#X connect 10 0 3 0;
#X connect 11 0 4 0;
#X coords 0 -1 1 1 85 40 1 100 100;
