#N canvas 267 156 472 401 10;
#X obj 17 238 hoc.lfo;
#X obj 17 261 outlet;
#X obj 105 115 hsl 64 10 0.01 15 1 0 empty empty Frequence 3 4 0 10
-262130 -257985 -83269 3800 1;
#X obj 105 125 hsl 64 10 0 40 0 0 empty empty Depth 3 4 0 10 -262130
-257985 -83269 4200 1;
#X obj 101 135 hradio 10 1 0 7 empty empty empty 0 -8 0 10 -262130
-257985 -83269 1;
#X symbolatom 102 146 7 0 0 0 - - -, f 7;
#X msg 99 193 set sinus;
#X obj 99 170 sel 0 1 2 3 4 5 6;
#X msg 116 214 set triangle;
#X msg 134 235 set sawdown;
#X msg 148 255 set sawup;
#X msg 162 276 set square;
#X msg 182 297 set wfdown;
#X msg 195 317 set wfup;
#X obj 192 24 loadbang;
#X msg 197 94 1;
#X msg 198 73 10;
#X msg 199 53 0.3;
#X obj 154 145 bng 15 250 50 0 empty empty reset 0 7 0 8 -262130 -257985
-83269;
#X obj 6 19 inlet;
#X obj 47 18 inlet;
#X obj 90 16 inlet;
#X obj 131 15 inlet;
#X floatatom 244 167 5 0 0 0 - - -, f 5;
#X obj 69 216 + 1;
#X connect 0 0 1 0;
#X connect 2 0 0 1;
#X connect 3 0 0 2;
#X connect 4 0 7 0;
#X connect 4 0 23 0;
#X connect 4 0 24 0;
#X connect 6 0 5 0;
#X connect 7 0 6 0;
#X connect 7 1 8 0;
#X connect 7 2 9 0;
#X connect 7 3 10 0;
#X connect 7 4 11 0;
#X connect 7 5 12 0;
#X connect 7 6 13 0;
#X connect 8 0 5 0;
#X connect 9 0 5 0;
#X connect 10 0 5 0;
#X connect 11 0 5 0;
#X connect 12 0 5 0;
#X connect 13 0 5 0;
#X connect 14 0 15 0;
#X connect 14 0 16 0;
#X connect 14 0 17 0;
#X connect 15 0 4 0;
#X connect 16 0 3 0;
#X connect 17 0 2 0;
#X connect 18 0 0 0;
#X connect 19 0 18 0;
#X connect 20 0 2 0;
#X connect 21 0 3 0;
#X connect 22 0 4 0;
#X connect 24 0 0 3;
#X coords 0 -1 1 1 73 60 1 100 100;
