#N canvas 784 187 450 300 10;
#X obj 56 206 hoc.limiter~;
#X obj 106 113 hsl 75 10 0 20 0 0 empty empty amp 0 5 1 10 -204786
-4034 -13381 370 1;
#X obj 56 64 inlet~;
#X obj 57 242 outlet~;
#X obj 103 152 line~;
#X obj 103 133 pack f 20;
#X obj 63 179 *~;
#X obj 171 53 loadbang;
#X msg 171 75 1;
#X connect 0 0 3 0;
#X connect 1 0 5 0;
#X connect 2 0 6 0;
#X connect 4 0 6 1;
#X connect 5 0 4 0;
#X connect 6 0 0 0;
#X connect 7 0 8 0;
#X connect 8 0 1 0;
#X coords 0 -1 1 1 85 25 1 100 100;
