#N canvas 445 29 758 549 10;
#N canvas 0 50 450 250 (subpatch) 0;
#X array \$0-table 67717 float 0;
#X coords 0 1 67716 -1 100 50 1 0 0;
#X restore 11 11 graph;
#X obj 112 11 tgl 15 0 empty empty rec 0 7 0 10 -261234 -258113 -86277
0 1;
#X obj 174 42 sel 0 1;
#X obj 174 138 tabwrite~ \$0-table;
#X msg 174 88 stop;
#X obj 111 45 tgl 15 0 empty empty play 0 7 0 10 -204786 -4034 -13381
1 1;
#X obj 26 86 sel 0 1;
#X msg 26 108 stop;
#X obj 26 200 outlet~;
#X obj 11 7 cnv 15 100 60 empty empty empty 20 12 0 14 -204786 -66577
0;
#X obj 108 84 inlet~;
#X obj 26 176 tabplay~ \$0-table;
#X obj 197 66 t b b;
#X obj 198 203 realtime;
#X obj 251 175 t b;
#X obj 198 225 * 44.1;
#X obj 349 148 block~ 1024;
#X obj 145 200 bng 15 250 50 0 empty empty empty 17 7 0 10 -262144
-1 -1;
#X obj 55 144 pack 0 f;
#X connect 1 0 2 0;
#X connect 2 0 4 0;
#X connect 2 1 12 0;
#X connect 4 0 3 0;
#X connect 4 0 14 0;
#X connect 5 0 6 0;
#X connect 6 0 7 0;
#X connect 6 1 18 0;
#X connect 7 0 11 0;
#X connect 10 0 3 0;
#X connect 11 0 8 0;
#X connect 11 1 17 0;
#X connect 12 0 3 0;
#X connect 12 1 13 0;
#X connect 13 0 15 0;
#X connect 14 0 13 1;
#X connect 15 0 18 1;
#X connect 17 0 18 0;
#X connect 18 0 11 0;
#X coords 0 -1 1 1 120 52 2 10 10;
