#N canvas 593 56 761 631 10;
#X obj 8 62 h.fm~;
#X text 4 4 Les vues hoclib \, par catégories;
#X obj 463 58 h.adsr~;
#X obj 102 476 h.adsr;
#X obj 18 289 h.bitcrusher~;
#X obj 24 597 h.calibrate;
#X obj 138 289 h.chorus~;
#X obj 231 288 h.comb~;
#X obj 399 324 h.dd7~;
#X obj 23 476 h.lfo;
#X obj 20 187 h.loop~;
#X obj 259 475 h.midi.random;
#X obj 22 691 h.output~;
#X obj 180 61 h.paf~;
#X obj 111 691 h.*~;
#X obj 19 340 h.pitchshifter~;
#X obj 399 366 h.rev~;
#X obj 488 324 h.shuffling~;
#X obj 18 376 h.vcf~;
#X obj 349 59 h.wave~;
#X text 16 269 MODIFICATEURS SPECTRAUX;
#X text 395 305 MODIFICATEURS TEMPORELS;
#X text 4 41 GENERATEURS AUDIO;
#X text 18 458 GENERATEURS DATA;
#X text 255 458 GENERATEURS MIDI;
#X text 19 673 SORTIES / VOLUME...;
#X text 21 579 MODIFICATEURS DATA;
#X obj 23 743 cnv 15 500 300 empty empty empty 20 12 0 14 -241208 -66577
0;
#X obj 139 960 hoc.show~;
#X text 136 932 hoc.show~;
#X obj 31 959 hoc.show;
#X text 29 933 hoc.show;
#X obj 31 787 hoc.show.freq~;
#X text 117 771 hoc.show.freq~;
#X text 27 748 ! COMMENCENT PAR hoc.;
#X obj 113 597 h.line;
#X obj 155 476 h.cloud;
#X obj 155 508 h.fluctuation;
#X obj 138 348 h.ringmod~;
#X obj 521 58 h.karpluck~;
#X obj 137 381 h.disto~;
#X obj 293 788 hoc.waveshaper~;
#X text 290 761 hoc.waveshaper~;
#X obj 180 100 h.square~;
#X obj 231 327 h.retrigger~;
#X obj 612 58 h.lorenz~;
#X obj 150 187 h.tape~;
#X obj 204 691 h.pan~;
#X obj 612 87 h.granulator~;
#X text 18 151 Samples;
#X obj 267 186 h.play~;
#X obj 293 691 h.limiter~;
#X obj 373 182 h.bar~;
#X text 489 464 TODO : gate;
#X text 490 477 pitchshifter PV;
#X text 490 490 Enveloppe follower;
