#N canvas 294 213 844 487 10;
#X obj 101 119 cnv 8 10 40 \$0-key1-snd \$0-key1-rcv empty 20 12 0
14 -233017 -66577 0;
#X obj 113 119 cnv 10 10 40 \$0-key3-snd \$0-key3-rcv empty 20 12 0
14 -233017 -66577 0;
#X obj 125 119 cnv 10 10 40 \$0-key5-snd \$0-key5-rcv empty 20 12 0
14 -233017 -66577 0;
#X obj 137 119 cnv 10 10 40 \$0-key6-snd \$0-key6-rcv empty 20 12 0
14 -233017 -66577 0;
#X obj 149 119 cnv 10 10 40 \$0-key8-snd \$0-key8-rcv empty 20 12 0
14 -233017 -66577 0;
#X obj 161 119 cnv 10 10 40 \$0-key10-snd \$0-key10-rcv empty 20 12
0 14 -233017 -66577 0;
#X obj 173 119 cnv 10 10 40 \$0-key12-snd \$0-key12-rcv empty 20 12
0 14 -233017 -66577 0;
#X obj 108 118 cnv 8 8 25 \$0-key2-snd \$0-key2-rcv empty 20 12 0 14
-33289 -66577 0;
#X obj 121 118 cnv 8 8 25 \$0-key4-snd \$0-key4-rcv empty 20 12 0 14
-33289 -66577 0;
#X obj 144 118 cnv 8 8 25 \$0-key7-snd \$0-key7-rcv empty 20 12 0 14
-33289 -66577 0;
#X obj 156 118 cnv 8 8 25 \$0-key9-snd \$0-key9-rcv empty 20 12 0 14
-33289 -66577 0;
#X obj 168 118 cnv 8 8 25 \$0-key11-snd \$0-key11-rcv empty 20 12 0
14 -33289 -66577 0;
#X obj 274 346 s;
#X obj 354 244 makefilename \$0-key%d-rcv;
#X obj 273 5 notein;
#X obj 187 178 sel 0;
#X obj 351 106 - 48;
#X obj 351 128 + 1;
#X obj 308 154 sel 2 4 7 9 11;
#X obj 179 259 list prepend color;
#X obj 179 281 list trim;
#X obj 180 238 f;
#X msg 251 282 color 13;
#X msg 308 186 12;
#X msg 403 182 10;
#X obj 275 47 swap;
#X obj 382 341 print;
#X text 391 283 weird : if I plug the print here \, this patch works
correctly...;
#X connect 13 0 12 1;
#X connect 14 0 25 0;
#X connect 14 1 25 1;
#X connect 15 0 21 0;
#X connect 15 1 22 0;
#X connect 16 0 17 0;
#X connect 17 0 13 0;
#X connect 17 0 18 0;
#X connect 18 0 23 0;
#X connect 18 1 23 0;
#X connect 18 2 23 0;
#X connect 18 3 23 0;
#X connect 18 4 23 0;
#X connect 18 5 24 0;
#X connect 19 0 20 0;
#X connect 20 0 12 0;
#X connect 21 0 19 0;
#X connect 22 0 12 0;
#X connect 23 0 21 1;
#X connect 24 0 21 1;
#X connect 25 0 15 0;
#X connect 25 1 16 0;
#X coords 0 -1 1 1 85 60 2 100 100;
