#N canvas 701 184 460 327 10;
#X obj 38 258 outlet;
#X obj 133 254 outlet;
#X obj 107 135 hsl 70 10 20 127 0 0 empty empty minimum 0 5 1 10 -228856
-1 -162280 900 1;
#X obj 107 148 hsl 70 10 20 127 0 0 empty empty maximum 0 5 1 10 -228856
-1 -162280 3600 1;
#X obj 98 22 loadbang;
#X msg 154 65 120;
#X msg 100 61 60;
#X msg 109 83 85;
#X obj 43 195 /;
#X obj 43 148 t b f;
#X msg 43 171 1;
#X obj 43 128 / 60000;
#X obj 107 122 hsl 70 10 30 600 0 0 empty empty BPM 0 5 1 10 -228856
-1 -162280 0 1;
#X obj 69 220 hoc.midi.random;
#X obj 210 36 inlet;
#X obj 266 41 inlet;
#X obj 316 68 inlet;
#X connect 2 0 13 1;
#X connect 3 0 13 2;
#X connect 4 0 5 0;
#X connect 4 0 6 0;
#X connect 4 0 7 0;
#X connect 5 0 12 0;
#X connect 6 0 2 0;
#X connect 7 0 3 0;
#X connect 8 0 13 0;
#X connect 9 0 10 0;
#X connect 9 1 8 1;
#X connect 10 0 8 0;
#X connect 11 0 9 0;
#X connect 12 0 11 0;
#X connect 13 0 0 0;
#X connect 13 1 1 0;
#X connect 14 0 12 0;
#X connect 15 0 2 0;
#X connect 16 0 3 0;
#X coords 0 -1 1 1 85 60 1 100 100;
