#N canvas 0 29 900 718 10;
#X obj 108 125 hsl 70 10 0 1 0 0 empty empty volume 0 5 1 10 -204786
-4034 -13381 6230 1;
#X obj 267 196 t b;
#X msg 267 219 \; pd dsp 1;
#X obj 160 103 tgl 20 0 empty empty DSP 1 10 0 10 -204786 -4034 -13381
0 1;
#X msg 267 160 \; pd dsp \$1;
#X obj 35 217 *~;
#X obj 61 193 line~;
#X obj 61 173 pack f 20;
#X obj 35 284 dac~;
#X obj 35 237 hipp~ 5;
#X obj 35 258 lopp~ 20000;
#X obj 124 216 *~;
#X obj 150 192 line~;
#X obj 150 172 pack f 20;
#X obj 124 236 hipp~ 5;
#X obj 124 257 lopp~ 20000;
#X obj 35 79 inlet~ L;
#X obj 103 80 inlet~ R;
#X obj 216 76 loadbang;
#X msg 216 101 1;
#X msg 228 121 0.7;
#X obj 74 301 outlet~;
#X obj 131 301 outlet~;
#X connect 0 0 1 0;
#X connect 0 0 7 0;
#X connect 0 0 13 0;
#X connect 1 0 2 0;
#X connect 3 0 4 0;
#X connect 5 0 9 0;
#X connect 6 0 5 1;
#X connect 7 0 6 0;
#X connect 9 0 10 0;
#X connect 10 0 8 0;
#X connect 10 0 21 0;
#X connect 11 0 14 0;
#X connect 12 0 11 1;
#X connect 13 0 12 0;
#X connect 14 0 15 0;
#X connect 15 0 8 1;
#X connect 15 0 22 0;
#X connect 16 0 5 0;
#X connect 17 0 11 0;
#X connect 18 0 19 0;
#X connect 18 0 20 0;
#X connect 19 0 3 0;
#X connect 20 0 0 0;
#X coords 0 -1 1 1 85 40 1 100 100;
