#N canvas 501 220 450 300 10;
#X obj 37 167 hoc.pan.mono~;
#X obj 34 102 inlet~;
#X obj 30 215 outlet~;
#X obj 118 209 outlet~;
#X obj 145 47 loadbang;
#X msg 151 73 0.5;
#X obj 108 59 inlet;
#X obj 105 113 hsl 75 10 0 1 0 0 empty empty pan 0 5 1 10 -204786 -4034
-13381 0 1;
#X connect 0 0 2 0;
#X connect 0 1 3 0;
#X connect 1 0 0 0;
#X connect 4 0 5 0;
#X connect 5 0 7 0;
#X connect 6 0 7 0;
#X connect 7 0 0 1;
#X coords 0 -1 1 1 85 25 1 100 100;
