#N canvas 215 117 450 300 10;
#X obj 67 261 outlet~;
#X obj 106 121 hsl 70 10 10 2000 0 0 empty empty frequency 0 5 1 10
-261234 -258113 -86277 3004 1;
#X obj 184 121 hsl 70 10 0 100 0 0 empty empty mod_depth 0 5 1 10 -261234
-258113 -86277 1580 1;
#X obj 185 7 loadbang;
#X obj 18 34 inlet;
#X obj 18 56 mtof;
#X obj 104 8 inlet;
#X obj 68 190 hoc.paf~;
#X msg 185 47 40;
#X msg 230 51 20;
#X connect 1 0 7 0;
#X connect 2 0 7 1;
#X connect 3 0 8 0;
#X connect 3 0 9 0;
#X connect 4 0 5 0;
#X connect 5 0 1 0;
#X connect 6 0 2 0;
#X connect 7 0 0 0;
#X connect 8 0 1 0;
#X connect 9 0 2 0;
#X coords 0 -1 1 1 160 35 1 100 100;
