#N canvas 1586 315 450 300 10;
#X obj 63 143 hoc.pitchshifter~;
#X obj 108 116 hsl 70 10 -12 12 0 0 empty empty pitch 0 5 1 10 -232576
-159808 -45076 3100 1;
#X obj 183 50 loadbang;
#X msg 183 72 0;
#X obj 63 179 outlet~;
#X obj 63 111 inlet~;
#X connect 0 0 4 0;
#X connect 1 0 0 1;
#X connect 2 0 3 0;
#X connect 3 0 1 0;
#X connect 5 0 0 0;
#X coords 0 -1 1 1 85 30 1 100 100;
