#N canvas 99 309 450 300 10;
#X obj 12 181 bng 15 250 50 0 empty empty empty 17 7 0 10 -262144 -1
-1;
#X obj 224 117 openpanel;
#X obj 187 100 bng 13 250 50 0 empty empty empty 17 7 0 10 -262144
-1 -1;
#X obj 12 233 hoc.play~;
#X obj 185 127 tgl 15 0 empty empty loop -9 7 0 10 -262144 -1 -1 0
1;
#X symbolatom 100 113 14 0 0 0 - - -, f 14;
#X obj 11 258 outlet~;
#X obj 100 127 tgl 15 0 empty empty empty 17 7 0 10 -262144 -1 -1 0
1;
#X obj 51 152 sel 0 1;
#X msg 51 184 stop;
#X obj 102 80 hoc.lastchars 14;
#X obj 155 238 route 0 1;
#X obj 92 177 outlet;
#X obj 155 215 prepend;
#X obj 243 68 loadbang;
#X msg 243 90 0;
#X msg 155 258 0;
#X obj 12 59 inlet;
#X connect 0 0 3 0;
#X connect 1 0 10 0;
#X connect 1 0 3 1;
#X connect 2 0 1 0;
#X connect 3 0 6 0;
#X connect 3 1 13 0;
#X connect 4 0 13 1;
#X connect 7 0 8 0;
#X connect 8 0 9 0;
#X connect 8 0 12 0;
#X connect 8 1 3 0;
#X connect 9 0 3 0;
#X connect 10 0 5 0;
#X connect 11 0 16 0;
#X connect 11 1 0 0;
#X connect 13 0 11 0;
#X connect 14 0 15 0;
#X connect 15 0 4 0;
#X connect 16 0 7 0;
#X connect 17 0 7 0;
#X coords 0 -1 1 1 100 42 1 100 100;
