#N canvas 278 39 408 385 10;
#X obj 107 113 hsl 70 10 76 100 0 0 empty empty size 0 5 1 10 -203904
-4160 -16662 4025 1;
#X obj 241 87 loadbang;
#X obj 88 271 outlet~;
#X obj 149 272 outlet~;
#X obj 39 55 inlet~;
#X obj 93 55 inlet~;
#X obj 80 195 rev3~ 100 90 3500 20;
#X msg 205 113 90;
#X obj 180 47 inlet;
#X connect 0 0 6 3;
#X connect 1 0 7 0;
#X connect 4 0 6 0;
#X connect 5 0 6 1;
#X connect 6 2 2 0;
#X connect 6 3 3 0;
#X connect 7 0 0 0;
#X connect 8 0 0 0;
#X coords 0 -1 1 1 85 25 1 100 100;
