#N canvas 307 196 652 474 10;
#X obj 20 295 readsf~ 2;
#X obj 20 190 t f b;
#X obj 45 268 prepend open;
#X obj 382 33 apf \$0-localref note \$0-note;
#X obj 103 114 hsl 70 10 0 1 0 0 \$0-volume-snd \$0-volume-rcv volume
0 5 1 10 -204786 -4034 -13381 4000 1;
#X obj 382 73 apsym \$0-localref path \$0-path;
#X obj 382 53 apf \$0-localref volume \$0-volume;
#X symbolatom 382 99 27 0 0 0 - #0-path-rcv #0-path-snd, f 27;
#X obj 267 113 bng 10 250 50 0 empty empty empty 17 7 0 10 -262144
-1 -1;
#X obj 267 127 openpanel;
#X obj 267 149 s \$0-path-rcv;
#X obj 52 212 s \$0-path-rcv;
#X obj 45 246 r \$0-path-snd;
#X obj 19 362 *~;
#X obj 50 361 *~;
#X obj 68 325 r \$0-volume-snd;
#X symbolatom 100 100 25 0 0 0 - - -, f 25;
#X obj 100 77 hoc.lastchars 25;
#X obj 100 57 r \$0-path-snd;
#X obj 282 170 notein, f 12;
#X obj 301 336 + \$3;
#X obj 283 359 sel;
#X msg 283 387 1;
#X obj 301 314 r \$4-first_note;
#X obj 20 127 r \$1-\$4-\$2-cmd;
#X obj 19 411 throw~ bus-\$4-L;
#X obj 50 389 throw~ bus-\$4-R;
#X obj 382 12 apsubmaster \$0-localref \$1 \$4-\$2;
#X obj 29 148 hoc.key Space;
#X msg 29 170 0;
#X obj 283 290 stripnote;
#X obj 282 270 route;
#X obj 314 248 r \$4-midi_channel;
#X obj 282 201 pack f f;
#X obj 282 227 list prepend;
#X connect 0 0 13 0;
#X connect 0 1 14 0;
#X connect 1 0 0 0;
#X connect 1 1 11 0;
#X connect 2 0 0 0;
#X connect 8 0 9 0;
#X connect 9 0 10 0;
#X connect 12 0 2 0;
#X connect 13 0 25 0;
#X connect 14 0 26 0;
#X connect 15 0 13 1;
#X connect 15 0 14 1;
#X connect 17 0 16 0;
#X connect 18 0 17 0;
#X connect 19 0 33 0;
#X connect 19 1 33 1;
#X connect 19 2 34 1;
#X connect 20 0 21 1;
#X connect 21 0 22 0;
#X connect 22 0 1 0;
#X connect 23 0 20 0;
#X connect 24 0 1 0;
#X connect 28 0 29 0;
#X connect 29 0 1 0;
#X connect 30 0 21 0;
#X connect 31 0 30 0;
#X connect 32 0 31 1;
#X connect 33 0 34 0;
#X connect 34 0 31 0;
#X coords 0 -1 1 1 177 24 2 100 100;
