#N canvas 639 30 666 730 10;
#X obj 20 367 readsf~ 2;
#X obj 45 340 prepend open;
#X obj 382 33 apf \$0-localref note \$0-note;
#X obj 103 64 hsl 70 10 0.015 1.5 1 0 \$0-volume-snd \$0-volume-rcv
volume 0 5 1 10 -204786 -4034 -13381 0 1;
#X obj 382 101 apsym \$0-localref path \$0-path;
#X obj 382 53 apf \$0-localref volume \$0-volume;
#X symbolatom 383 134 27 0 0 0 - #0-path-rcv #0-path-snd, f 27;
#X obj 215 77 openpanel;
#X obj 215 99 s \$0-path-rcv;
#X obj 45 298 s \$0-path-rcv;
#X obj 45 318 r \$0-path-snd;
#X obj 19 470 *~;
#X obj 50 469 *~;
#X obj 68 445 r \$0-volume-snd;
#X obj 409 179 r \$0-path-snd;
#X obj 20 13 r \$1-\$4-\$2-cmd;
#X obj 19 519 throw~ bus-\$4-L;
#X obj 50 497 throw~ bus-\$4-R;
#X obj 382 12 apsubmaster \$0-localref \$1 \$4-\$2;
#X obj 48 142 hoc.key Space;
#X msg 48 168 0;
#X obj 101 51 cnv 10 95 10 empty \$0-cnv empty 2 5 2 10 -262144 -1
0;
#X obj 496 283 s \$0-cnv;
#X msg 496 261 label \$1;
#X obj 190 50 bng 10 250 50 0 empty empty empty 17 7 0 10 -262144 -1
-1;
#N canvas 1 50 901 713 is-playing-red 0;
#X msg 30 111 color 0;
#X obj 230 35 inlet playing;
#X obj 29 34 inlet not_playing;
#X msg 202 179 color 13;
#X obj 141 213 s \$0-cnv-isplaying-rcv;
#X obj 66 75 r \$0-finished;
#X connect 0 0 4 0;
#X connect 1 0 3 0;
#X connect 2 0 0 0;
#X connect 3 0 4 0;
#X connect 5 0 0 0;
#X restore 91 262 pd is-playing-red;
#X obj 91 227 sel 0 1;
#X obj 497 235 hoc.firstchars 20;
#X obj 79 126 spigot;
#X obj 189 64 tgl 10 0 \$0-loop-snd \$0-loop-rcv b 2 6 0 10 -191407
-1 -260097 0 1;
#X obj 382 73 apf \$0-localref loop \$0-loop;
#X msg 79 168 1;
#X obj 20 201 f;
#X obj 20 104 max 0;
#X msg 37 52 0;
#X obj 75 397 s \$0-finished;
#X obj 79 105 r \$0-finished;
#X obj 37 32 r \$0-finished;
#X obj 409 201 splitfilename;
#X obj 20 244 t b b;
#X msg 20 266 1;
#X obj 20 223 sel 1;
#X obj 20 73 - 0;
#X obj 176 63 bng 11 250 50 0 empty empty empty 17 7 0 10 -262144 -1
-1;
#X msg 176 79 1;
#X obj 177 64 cnv 9 9 9 \$0-cvn-isplaying-snd \$0-cnv-isplaying-rcv
empty 20 12 0 14 -262144 -66577 0;
#X connect 0 0 11 0;
#X connect 0 1 12 0;
#X connect 0 2 35 0;
#X connect 1 0 0 0;
#X connect 7 0 8 0;
#X connect 10 0 1 0;
#X connect 11 0 16 0;
#X connect 12 0 17 0;
#X connect 13 0 11 1;
#X connect 13 0 12 1;
#X connect 14 0 38 0;
#X connect 15 0 42 0;
#X connect 19 0 20 0;
#X connect 20 0 32 0;
#X connect 23 0 22 0;
#X connect 24 0 7 0;
#X connect 26 0 25 0;
#X connect 26 1 25 1;
#X connect 27 0 23 0;
#X connect 28 0 31 0;
#X connect 29 0 28 1;
#X connect 31 0 32 0;
#X connect 32 0 41 0;
#X connect 32 0 26 0;
#X connect 32 0 42 1;
#X connect 33 0 32 0;
#X connect 34 0 42 1;
#X connect 36 0 28 0;
#X connect 37 0 34 0;
#X connect 38 1 27 0;
#X connect 39 0 40 0;
#X connect 39 1 9 0;
#X connect 40 0 0 0;
#X connect 41 0 39 0;
#X connect 41 1 0 0;
#X connect 42 0 33 0;
#X connect 43 0 44 0;
#X connect 44 0 42 0;
#X coords 0 -1 1 1 100 24 2 100 50;
