#N canvas 716 304 460 327 10;
#X obj 40 202 hoc.seq.random;
#X obj 40 257 outlet;
#X obj 135 253 outlet;
#X obj 109 134 hsl 70 10 20 127 0 0 empty empty minimum 0 5 1 10 -228856
-1 -162280 2579 1;
#X obj 216 160 t b f;
#X msg 216 182 1;
#X obj 230 212 /;
#X obj 109 147 hsl 70 10 20 127 0 0 empty empty maximum 0 5 1 10 -228856
-1 -162280 4192 1;
#X obj 216 137 * 60000;
#X text 209 114 Transformation BPM -> période;
#X obj 100 21 loadbang;
#X msg 156 64 120;
#X msg 102 60 60;
#X msg 111 82 85;
#X connect 0 0 1 0;
#X connect 0 1 2 0;
#X connect 3 0 0 1;
#X connect 4 0 5 0;
#X connect 4 1 6 1;
#X connect 5 0 6 0;
#X connect 6 0 0 0;
#X connect 7 0 0 2;
#X connect 8 0 4 0;
#X connect 10 0 11 0;
#X connect 10 0 12 0;
#X connect 10 0 13 0;
#X connect 11 0 8 0;
#X connect 12 0 3 0;
#X connect 13 0 7 0;
#X coords 0 -1 1 1 85 60 1 100 100;
