#N canvas 520 247 597 440 10;
#N canvas 0 29 450 250 (subpatch) 0;
#X array \$0-steps 16 float 3;
#A 0 71.12 71.12 71.12 71.12 71.12 71.12 71.12 71.12 71.12 74.24 75.28
75.28 75.28 75.28 75.28 75.28;
#X coords 0 16 16 120 242 100 2 0 0;
#X restore 11 21 graph;
#X obj 11 121 abstractions/hoc.16steps \$0;
#X obj 431 240 f;
#X obj 460 240 + 1;
#X msg 431 145 1;
#X obj 431 180 /;
#X obj 431 114 t b f;
#X obj 473 187 loadbang;
#X obj 431 286 + 1;
#X obj 472 151 / 15000;
#X obj 431 264 % 16;
#X obj 431 334 s \$0-seq;
#X obj 431 214 metro 100;
#X obj 431 91 clip 1 1000;
#X obj 546 196 bng 15 250 50 0 empty empty empty 17 7 0 10 -262144
-1 -1;
#X obj 207 325 tabread \$0-steps;
#X obj 12 153 s \$0-steps;
#X obj 167 225 r \$0-steps;
#X obj 431 308 t f f;
#X obj 207 299 f;
#X obj 167 247 sel 0;
#X obj 207 365 i;
#X obj 207 387 makenote;
#X obj 207 273 t b f;
#X obj 239 300 * 127;
#X obj 260 366 / 16;
#X floatatom 217 138 5 0 0 0 tempo - #0-tempo, f 5;
#X obj 207 409 outlet;
#X obj 260 409 outlet;
#X obj 260 345 r \$0-tempo;
#X obj 432 71 r \$0-tempo;
#X connect 1 0 16 0;
#X connect 2 0 3 0;
#X connect 2 0 10 0;
#X connect 3 0 2 1;
#X connect 4 0 5 0;
#X connect 5 0 12 1;
#X connect 6 0 4 0;
#X connect 6 1 9 0;
#X connect 7 0 12 0;
#X connect 8 0 18 0;
#X connect 9 0 5 1;
#X connect 10 0 8 0;
#X connect 12 0 2 0;
#X connect 13 0 6 0;
#X connect 14 0 12 0;
#X connect 15 0 21 0;
#X connect 17 0 20 0;
#X connect 18 0 11 0;
#X connect 18 1 19 1;
#X connect 19 0 15 0;
#X connect 20 1 23 0;
#X connect 21 0 22 0;
#X connect 22 0 27 0;
#X connect 22 1 28 0;
#X connect 23 0 19 0;
#X connect 23 1 24 0;
#X connect 24 0 22 1;
#X connect 25 0 22 2;
#X connect 29 0 25 0;
#X connect 30 0 13 0;
#X coords 0 -1 1 1 250 140 1 10 20;
