#N canvas 47 77 450 300 10;
#X obj 31 21 inlet~;
#X obj 50 233 outlet~;
#X obj 107 116 hsl 70 10 4 2000 0 0 empty empty time 0 5 1 10 -203904
-4160 -16662 781 1;
#X obj 107 127 hsl 70 10 0 1 0 0 empty empty feedback 0 5 1 10 -203904
-4160 -16662 3430 1;
#X msg 205 113 120;
#X msg 207 137 0.7;
#X obj 241 87 loadbang;
#X obj 107 137 hsl 70 10 0 1 0 0 empty empty feedback 0 5 1 10 -203904
-4160 -16662 5100 1;
#X obj 167 237 hoc.shuffling~;
#X obj 101 186 hoc.shuffling~;
#X connect 0 0 9 0;
#X connect 2 0 9 1;
#X connect 3 0 9 2;
#X connect 4 0 2 0;
#X connect 5 0 3 0;
#X connect 6 0 4 0;
#X connect 6 0 5 0;
#X connect 9 0 1 0;
#X coords 0 -1 1 1 85 50 1 100 100;
