#N canvas 176 134 450 300 10;
#X obj 105 186 hoc.square~;
#X obj 106 25 inlet freq;
#X obj 187 51 inlet pwm;
#X obj 107 117 hsl 70 10 10 2000 0 0 empty empty frequency 0 5 1 10
-261234 -258113 -86277 0 1;
#X obj 185 117 hsl 70 10 0 1 0 0 empty empty PWM 0 5 1 10 -261234 -258113
-86277 0 1;
#X obj 104 230 outlet~;
#X connect 0 0 5 0;
#X connect 1 0 3 0;
#X connect 2 0 4 0;
#X connect 3 0 0 0;
#X connect 4 0 0 1;
#X coords 0 -1 1 1 160 30 1 100 100;
