#N canvas 64 290 450 300 10;
#X obj 101 141 hoc.tape~;
#X obj 191 101 bng 15 250 50 0 empty empty empty 17 7 0 10 -262144
-1 -1;
#X obj 100 177 outlet~;
#X obj 104 119 hsl 100 10 0 127 0 0 empty empty empty -2 -8 0 10 -262144
-1 -1 6200 1;
#X obj 114 54 inlet;
#X connect 0 0 2 0;
#X connect 1 0 0 1;
#X connect 3 0 0 0;
#X connect 4 0 3 0;
#X coords 0 -1 1 1 107 30 1 100 100;
