#N canvas 744 306 450 300 10;
#X obj 43 72 inlet~;
#X obj 44 195 outlet~;
#X obj 112 84 line~;
#X msg 112 55 \$1 20;
#X obj 43 120 vcf~ 10;
#X obj 44 145 vcf~ 10;
#X obj 112 11 inlet;
#X obj 109 117 hsl 95 10 20 115 0 0 empty empty freq 0 5 1 10 -232576
-159808 -45076 0 1;
#X obj 112 33 clip 20 20000;
#X obj 106 132 mtof;
#X connect 0 0 4 0;
#X connect 2 0 4 1;
#X connect 2 0 5 1;
#X connect 3 0 2 0;
#X connect 4 0 5 0;
#X connect 5 0 1 0;
#X connect 6 0 8 0;
#X connect 7 0 9 0;
#X connect 8 0 3 0;
#X connect 9 0 3 0;
#X coords 0 -1 1 1 110 30 1 100 100;
