#N canvas 243 67 914 636 10;
#X obj 8 62 h.fm~;
#X text 4 4 Les vues hoclib \, par catégories;
#X obj 463 58 h.adsr~;
#X obj 93 362 h.adsr;
#X obj 9 175 h.bitcrusher~;
#X obj 15 483 h.calibrate;
#X obj 129 175 h.chorus~;
#X obj 222 174 h.comb~;
#X obj 345 173 h.dd7~;
#X obj 14 362 h.lfo;
#X obj 546 182 h.loop~;
#X obj 250 361 h.midi.random;
#X obj 13 577 h.output~;
#X obj 180 61 h.paf~;
#X obj 102 577 h.*~;
#X obj 10 226 h.pitchshifter~;
#X obj 345 215 h.rev~;
#X obj 434 173 h.shuffling~;
#X obj 9 260 h.vcf~;
#X obj 349 59 h.wave~;
#X text 7 155 MODIFICATEURS SPECTRAUX;
#X text 341 154 MODIFICATEURS TEMPORELS;
#X text 4 41 GENERATEURS AUDIO;
#X text 9 344 GENERATEURS DATA;
#X text 246 344 GENERATEURS MIDI;
#X text 10 559 SORTIES / VOLUME...;
#X text 12 465 MODIFICATEURS DATA;
#X obj 380 284 cnv 15 500 300 empty empty empty 20 12 0 14 -241208
-66577 0;
#X obj 496 501 hoc.show~;
#X text 493 473 hoc.show~;
#X obj 388 500 hoc.show;
#X text 386 474 hoc.show;
#X obj 388 328 hoc.show.freq~;
#X text 474 312 hoc.show.freq~;
#X text 384 289 ! COMMENCENT PAR hoc.;
#X obj 104 483 h.line;
#X obj 146 362 h.cloud;
#X obj 146 394 h.fluctuation;
#X obj 602 503 hoc.play~;
#X obj 129 234 h.ringmod~;
#X obj 521 58 h.karpluck~;
#X obj 128 267 h.disto~;
#X obj 650 329 hoc.waveshaper~;
#X text 647 302 hoc.waveshaper~;
#X obj 180 100 h.square~;
#X obj 222 213 h.retrigger~;
#X obj 612 58 h.lorenz~;
#X obj 674 165 h.tape~;
#X text 613 164 h.loop~;
#X obj 196 578 h.pan~;
